<svg width="40" height="40" viewBox="0 0 40 40" fill="none" xmlns="http://www.w3.org/2000/svg">
<path d="M19.9778 3.56907C18.818 4.07107 17.8378 4.90628 17.0134 6.10068C15.9423 7.65427 15.5096 9.52376 15.8233 11.3889C15.9077 11.8866 16.0376 12.3734 16.2042 12.8495C16.8598 14.7125 15.0444 16.3288 13.7396 17.3458C11.9156 18.7652 9.87298 19.8233 7.8174 20.8641C7.39113 21.0804 6.96704 21.2947 6.54294 21.5175C6.50183 21.5392 6.46288 21.5608 6.42177 21.5803C4.84871 22.4133 3.71922 24.2222 3.25401 25.9056C2.8602 27.3294 2.94026 28.8311 3.38383 30.2332C4.24501 32.9552 6.08855 35.106 8.74565 36.1771C14.8323 38.6329 21.7456 37.577 27.551 34.8615C29.7342 33.8402 31.9239 32.6847 33.6441 30.9624C37.6644 26.9421 38.1102 20.6174 37.2598 15.2945C36.8703 12.8538 35.9724 10.5883 34.3171 8.721C31.4695 5.50781 27.3627 3.00216 22.9681 3C21.8581 3 20.8649 3.18609 19.9778 3.56907Z" fill="#EFEFEF" stroke="#929292" stroke-miterlimit="10"/>
<path d="M3.32544 25.8256C3.32544 25.8256 3.38386 27.2537 4.16065 28.5866C5.8657 31.5163 10.1673 35.991 20.2375 34.6386C22.3558 34.1626 30.7815 31.2978 34.488 26.2432C35.4985 24.7264 37.0564 23.677 37.3529 16.1341" fill="#EFEFEF"/>
<path d="M3.32544 25.8256C3.32544 25.8256 3.38386 27.2537 4.16065 28.5866C5.8657 31.5163 10.1673 35.991 20.2375 34.6386C22.3558 34.1626 30.7815 31.2978 34.488 26.2432C35.4985 24.7264 37.0564 23.677 37.3529 16.1341" stroke="#929292" stroke-miterlimit="10"/>
<path d="M6.54709 25.3993C6.46703 27.1649 8.21103 28.989 9.70836 29.6901C11.4978 30.5274 13.1877 31.8538 15.1091 32.3082C16.68 32.6804 18.4305 32.4662 19.9949 32.1394C22.5698 31.6028 25.188 30.1509 27.4816 28.8375C27.5594 28.7921 27.6395 28.7445 27.6936 28.6731C28.042 28.2122 27.3236 27.3121 26.9666 27.0849C26.6096 26.8577 26.2157 26.7776 25.8155 26.7452C25.2226 26.6976 24.6016 26.9659 24.039 26.9161C20.3325 26.5786 16.8812 25.54 15.9508 22.1991C15.0074 18.8041 10.6063 21.0393 8.84934 22.3657C8.12664 22.911 7.37798 23.5103 6.89329 24.2871C6.67043 24.6463 6.56224 25.0206 6.54493 25.3971L6.54709 25.3993Z" fill="#BFBFBF" stroke="#929292" stroke-miterlimit="10"/>
<path d="M19.6552 6.87099C19.0537 7.42492 18.794 8.23633 18.952 9.01961C19.2787 10.6446 19.6941 13.8665 18.5322 16.2033C17.102 19.0746 19.0407 21.8118 22.7342 23.0019C23.5846 23.2767 24.528 23.0906 25.1988 22.5237C27.0856 20.9312 27.9381 20.8554 26.1617 8.86815C26.0967 8.4289 25.9063 8.01346 25.6077 7.67158C24.4782 6.38198 21.9315 4.77646 19.6552 6.87099Z" fill="#BFBFBF" stroke="#929292" stroke-miterlimit="10"/>
<path d="M29.5934 12.2068C30.7813 20.0094 29.4268 20.3037 28.7582 22.4934C28.6327 22.9067 28.8815 23.3373 29.3013 23.439C30.5887 23.7462 32.1315 23.9864 33.2631 23.1187C34.4294 22.2229 34.7929 20.7083 34.8665 19.3083C34.9617 17.4756 34.8795 15.1171 33.7824 13.5635C33.0208 12.4838 31.7939 11.8844 30.5628 11.5036C30.0846 11.3565 29.5177 11.7113 29.5912 12.2047L29.5934 12.2068Z" fill="#BFBFBF" stroke="#929292" stroke-miterlimit="10"/>
</svg>
