<svg width="40" height="40" viewBox="0 0 40 40" fill="none" xmlns="http://www.w3.org/2000/svg">
<path d="M33.581 33.5485C33.4079 32.7977 33.2716 31.9885 32.7696 31.3761C32.5878 31.1554 32.3758 30.9823 32.1464 30.8395C32.4061 30.9174 32.6765 30.9585 32.9622 30.9477C33.7541 30.9131 34.4487 30.476 35.1238 30.106C35.2644 30.0281 35.4051 29.9502 35.5479 29.8745C37.4931 28.8077 37.4974 26.0143 35.5565 24.9411C35.4245 24.8675 35.2947 24.7961 35.1627 24.7225C34.1933 24.1859 33.3062 23.6233 32.1464 23.9825C31.4757 24.1902 30.9044 24.3568 30.2618 24.742C30.5452 24.5234 30.727 24.4953 30.9737 24.2443C31.2138 23.9977 31.4151 23.7185 31.5492 23.3831C31.8413 22.6475 31.7245 21.8339 31.6617 21.0657C31.6488 20.9056 31.6358 20.7455 31.6228 20.5854C31.4389 18.374 28.8921 17.2337 27.12 18.5688C27.001 18.6596 26.8798 18.7483 26.7608 18.8392C25.8758 19.5057 25.0017 20.0856 24.8545 21.2908C24.8069 21.6846 24.9 21.8923 24.9259 22.3099C24.7874 21.5872 24.5343 21.0679 24.2465 20.4404C23.7423 19.3369 22.7319 19.0491 21.6868 18.6834C21.5461 18.6337 21.4033 18.5839 21.2627 18.5341C19.1681 17.8006 17.0888 19.6636 17.5864 21.8252C17.6232 21.981 17.6578 22.139 17.6946 22.2948C17.8677 23.0456 18.004 23.8548 18.506 24.4672C18.6878 24.6879 18.8998 24.861 19.1292 25.0038C18.8695 24.9259 18.5991 24.8848 18.3134 24.8956C17.5215 24.9302 16.8269 25.3673 16.1518 25.7373C16.0112 25.8152 15.8706 25.8931 15.7277 25.9688C13.7825 27.0377 13.7782 29.829 15.7191 30.9022C15.8511 30.9758 15.9809 31.0472 16.1129 31.1208C17.0823 31.6574 17.9694 32.22 19.1292 31.8608C19.8 31.6531 20.3712 31.4865 21.0138 31.1013C20.7304 31.3198 20.5486 31.348 20.3019 31.599C20.0618 31.8456 19.8605 32.1248 19.7264 32.4601C19.4343 33.1958 19.5511 34.0094 19.6139 34.7775C19.6269 34.9377 19.6398 35.0978 19.6528 35.2579C19.8367 37.4693 22.3835 38.6117 24.1556 37.2745C24.2746 37.1836 24.3958 37.0949 24.5148 37.0041C25.3998 36.3376 26.2739 35.7577 26.4211 34.5525C26.4687 34.1587 26.3756 33.951 26.3497 33.5334C26.4882 34.2561 26.7413 34.7754 27.0291 35.4029C27.5333 36.5064 28.5437 36.7942 29.5888 37.1599C29.7295 37.2096 29.8723 37.2594 30.0129 37.3092C32.1075 38.0427 34.1868 36.1797 33.6892 34.0181C33.6524 33.8623 33.6178 33.7043 33.581 33.5485Z" fill="#BFBFBF" stroke="#929292" stroke-linecap="round" stroke-linejoin="round"/>
<path d="M27.7733 19.1163C27.174 18.3243 26.5854 17.4415 25.6702 16.985C25.3391 16.8205 24.9994 16.7275 24.651 16.682C24.9972 16.6344 25.3391 16.5436 25.6702 16.3791C26.5854 15.9226 27.174 15.0397 27.7733 14.2478C27.8988 14.0812 28.0243 13.9168 28.1498 13.7501C29.8765 11.4652 28.4095 8.17411 25.5555 7.93393C25.3629 7.91662 25.1703 7.90147 24.9777 7.88416C23.554 7.76299 22.2125 7.56825 21.0332 8.60253C20.3516 9.2019 19.7674 9.69957 19.2135 10.4937C19.432 10.0869 19.6311 9.95922 19.789 9.53296C19.9427 9.11751 20.0335 8.68043 20.0119 8.21522C19.9665 7.19392 19.4017 6.29596 18.9214 5.42612C18.8218 5.24437 18.7201 5.06261 18.6206 4.88086C17.238 2.37305 13.6331 2.37305 12.2505 4.88086C12.1574 5.04963 12.0644 5.22056 11.9713 5.38934C11.2811 6.64216 10.5562 7.78679 11.0214 9.28412C11.1729 9.77313 11.3914 9.97004 11.6424 10.4482C11.0972 9.67143 10.5259 9.19108 9.85733 8.6047C8.68024 7.57042 7.33871 7.76516 5.91279 7.88633C5.72021 7.90364 5.52763 7.91879 5.33506 7.9361C2.48105 8.17627 1.01401 11.4695 2.7407 13.7523C2.8662 13.9189 2.9917 14.0834 3.1172 14.25C3.71656 15.0419 4.30511 15.9247 5.22038 16.3813C5.55144 16.5457 5.89115 16.6388 6.23951 16.6842C5.89331 16.7318 5.55144 16.8227 5.22038 16.9871C4.30511 17.4437 3.71656 18.3265 3.1172 19.1184C2.9917 19.2851 2.8662 19.4495 2.7407 19.6161C1.01401 21.9011 2.48105 25.1921 5.33506 25.4323C5.52763 25.4496 5.72021 25.4648 5.91279 25.4821C7.33654 25.6033 8.67808 25.798 9.85733 24.7637C10.5389 24.1644 11.1231 23.6667 11.6771 22.8726C11.4585 23.2794 11.2595 23.407 11.1015 23.8333C10.9479 24.2487 10.857 24.6858 10.8786 25.151C10.9241 26.1723 11.4888 27.0703 11.9692 27.9401C12.0687 28.1219 12.1704 28.3036 12.2699 28.4854C13.6526 30.9932 17.2574 30.9932 18.6401 28.4854C18.7331 28.3166 18.8262 28.1457 18.9192 27.9769C19.6094 26.7241 20.3343 25.5795 19.8691 24.0821C19.7176 23.5931 19.4991 23.3962 19.2481 22.918C19.7934 23.6948 20.3646 24.1752 21.0332 24.7616C22.2103 25.7958 23.5518 25.6011 24.9777 25.4799C25.1703 25.4626 25.3629 25.4475 25.5555 25.4302C28.4095 25.19 29.8765 21.8967 28.1498 19.614C28.0243 19.4473 27.8988 19.2829 27.7733 19.1163Z" fill="#EFEFEF" stroke="#929292" stroke-linecap="round" stroke-linejoin="round"/>
<path d="M24.7874 15.0116C24.7874 15.0116 26.9425 13.3217 27.3493 11.9498L24.7874 15.0116Z" fill="#EFEFEF"/>
<path d="M24.7874 15.0116C24.7874 15.0116 26.9425 13.3217 27.3493 11.9498" stroke="#929292" stroke-linecap="round" stroke-linejoin="round"/>
<path d="M24.5969 13.7263C24.5969 13.7263 25.9125 12.7093 26.1505 11.9347L24.5969 13.7263Z" fill="#EFEFEF"/>
<path d="M24.5969 13.7263C24.5969 13.7263 25.9125 12.7093 26.1505 11.9347" stroke="#929292" stroke-linecap="round" stroke-linejoin="round"/>
<path d="M32.7109 29.5565C32.7109 29.5565 34.6627 29.048 35.3399 28.243" stroke="#929292" stroke-linecap="round" stroke-linejoin="round"/>
<path d="M32.96 28.4161C32.96 28.4161 34.1479 28.1175 34.5352 27.6631" stroke="#929292" stroke-linecap="round" stroke-linejoin="round"/>
</svg>
