<svg width="40" height="40" viewBox="0 0 40 40" fill="none" xmlns="http://www.w3.org/2000/svg">
<path d="M29.4066 11.3028C29.6879 11.0151 29.9476 10.6926 30.1748 10.3313C31.5466 8.1632 31.2826 5.53206 29.5819 4.45667C27.9028 3.39426 25.4534 4.24895 24.0708 6.36295C23.3589 4.95217 22.0087 4.00012 20.4573 4.00012C18.9059 4.00012 17.5578 4.95217 16.8438 6.36295C15.4611 4.24895 13.0118 3.39642 11.3327 4.45667C9.63411 5.53206 9.36797 8.16104 10.7398 10.3313C10.8891 10.5672 11.0514 10.7879 11.2245 10.9913C6.29542 13.4341 3 17.8655 3 22.9309C3 30.6318 10.6165 36.8721 20.0137 36.8721C29.411 36.8721 37.0253 30.6296 37.0253 22.9309C37.0253 18.0754 33.996 13.7998 29.4001 11.3028H29.4066Z" fill="#EFEFEF" stroke="#929292" stroke-linecap="round" stroke-linejoin="round"/>
<path d="M15.7466 13.3044L12.2607 16.9547" stroke="#929292" stroke-linecap="round" stroke-linejoin="round"/>
<path d="M20.9917 13.1031L20.957 18.1512" stroke="#929292" stroke-linecap="round" stroke-linejoin="round"/>
<path d="M25.6914 13.3044L29.2032 16.9309" stroke="#929292" stroke-linecap="round" stroke-linejoin="round"/>
</svg>
