<svg width="40" height="40" viewBox="0 0 40 40" fill="none" xmlns="http://www.w3.org/2000/svg">
<path d="M16.4365 3.11167C19.6584 2.57073 22.9949 4.07454 25.5568 5.90942C30.2608 9.28057 32.8206 15.0319 33.3312 20.6858C33.6039 23.7129 33.3312 26.8287 32.2017 29.6503C31.0723 32.4718 29.034 34.984 26.3314 36.3774C23.7284 37.7211 20.6862 37.9656 17.7629 37.7623C14.4567 37.5329 10.9622 36.6328 8.77678 34.1401C6.71471 31.7881 6.20406 28.4754 6.05476 25.3509C5.8492 21.045 6.18242 16.6417 7.74033 12.6214C8.51496 10.6221 9.54925 8.64875 10.9211 6.96318C12.2929 5.2776 14.1775 3.48816 16.4365 3.1095V3.11167Z" fill="#EFEFEF" stroke="#929292" stroke-miterlimit="10"/>
<path d="M25.7992 6.13879C25.7992 6.13879 38.1846 23.4749 25.7451 36.5809L25.7992 6.13879Z" fill="#EFEFEF"/>
<path d="M25.7992 6.13879C25.7992 6.13879 38.1846 23.4749 25.7451 36.5809" stroke="#929292" stroke-miterlimit="10"/>
<path d="M18.0983 34.6854C22.6298 34.6854 26.3033 31.4062 26.3033 27.361C26.3033 23.3159 22.6298 20.0367 18.0983 20.0367C13.5668 20.0367 9.89331 23.3159 9.89331 27.361C9.89331 31.4062 13.5668 34.6854 18.0983 34.6854Z" fill="#BFBFBF" stroke="#929292" stroke-miterlimit="10"/>
</svg>
