<svg width="40" height="40" viewBox="0 0 40 40" fill="none" xmlns="http://www.w3.org/2000/svg">
<path d="M11.4969 3.04472C10.534 3.26326 9.93031 4.21964 10.1489 5.18252L10.8218 8.15554L9.96926 7.52155C9.17515 6.93301 8.05649 7.09962 7.46794 7.89372C6.8794 8.68783 7.04601 9.80649 7.84011 10.395L12.0357 13.5065L12.3645 14.9628C12.5831 15.9256 13.5395 16.5293 14.5024 16.3108C15.4652 16.0922 16.0689 15.1359 15.8504 14.173L13.6368 4.39274C13.4183 3.42987 12.4619 2.82618 11.499 3.04472H11.4969Z" fill="#EFEFEF" stroke="#929292" stroke-miterlimit="10"/>
<path d="M27.8765 3.04472C28.8394 3.26326 29.4431 4.21964 29.2245 5.18252L28.5516 8.15554L29.4041 7.52155C30.1982 6.93301 31.3169 7.09962 31.9054 7.89372C32.494 8.68783 32.3274 9.80649 31.5333 10.395L27.3377 13.5065L27.0088 14.9628C26.7903 15.9256 25.8339 16.5293 24.871 16.3108C23.9081 16.0922 23.3044 15.1359 23.523 14.173L25.7365 4.39274C25.9551 3.42987 26.9114 2.82618 27.8743 3.04472H27.8765Z" fill="#EFEFEF" stroke="#929292" stroke-miterlimit="10"/>
<path d="M36.326 23.8969C36.1464 23.2175 35.9863 22.629 35.9257 22.3607C35.4389 20.2034 34.7075 18.2257 33.0544 16.5618C34.4089 14.926 34.8958 13.182 34.1255 12.178C33.1258 10.8754 30.3822 11.2952 27.8917 13.0868C25.4228 12.0049 22.5731 11.3839 19.5373 11.3774C19.5373 11.3774 19.5244 11.3774 19.5179 11.3774C19.5114 11.3774 19.5049 11.3774 19.4984 11.3774C16.4626 11.3839 13.6129 12.0049 11.1441 13.0868C8.65359 11.2952 5.90777 10.8754 4.91027 12.178C4.13997 13.182 4.62681 14.926 5.98133 16.5618C4.32821 18.2279 3.59686 20.2056 3.11002 22.3607C3.04943 22.629 2.88931 23.2175 2.70972 23.8969C5.41443 24.2864 11.3302 26.1884 7.57603 35.4601C10.7351 37.1219 14.9566 37.9398 19.5006 37.9441C19.5006 37.9441 19.5135 37.9441 19.52 37.9441C19.5265 37.9441 19.533 37.9441 19.5395 37.9441C24.0813 37.9398 28.3028 37.1219 31.464 35.4601C27.7099 26.1884 33.6278 24.2864 36.3304 23.8969H36.326Z" fill="#BFBFBF" stroke="#929292" stroke-miterlimit="10"/>
<path d="M2.70539 23.8969C2.38515 25.1065 2 26.6017 2 27.1036C2 29.0792 2.59071 30.7756 3.63365 32.2015C3.7678 32.3811 3.90628 32.5563 4.04909 32.7294C4.96869 33.8092 6.16525 34.7179 7.5717 35.458C11.3258 26.1862 5.40793 24.2843 2.70539 23.8948V23.8969Z" fill="#EFEFEF" stroke="#929292" stroke-linecap="round" stroke-linejoin="round"/>
<path d="M36.3478 23.8969C36.6681 25.1065 37.0532 26.6017 37.0532 27.1036C37.0532 29.0792 36.4625 30.7756 35.4196 32.2015C35.2854 32.3811 35.1469 32.5563 35.0041 32.7294C34.0845 33.8092 32.888 34.7179 31.4815 35.458C27.7274 26.1862 33.6453 24.2843 36.3478 23.8948V23.8969Z" fill="#EFEFEF" stroke="#929292" stroke-linecap="round" stroke-linejoin="round"/>
<path d="M14.9653 23.3842V26.2555" stroke="#929292" stroke-linecap="round" stroke-linejoin="round"/>
<path d="M24.5315 23.3842V26.2555" stroke="#929292" stroke-linecap="round" stroke-linejoin="round"/>
<path d="M14.5154 28.2592C14.5154 28.2592 17.3218 30.265 19.6522 28.2592" stroke="#929292" stroke-linecap="round" stroke-linejoin="round"/>
<path d="M24.752 28.2592C24.752 28.2592 21.9456 30.265 19.6152 28.2592" stroke="#929292" stroke-linecap="round" stroke-linejoin="round"/>
</svg>
