<svg width="40" height="40" viewBox="0 0 40 40" fill="none" xmlns="http://www.w3.org/2000/svg">
<path d="M16.7406 10.4337C16.7406 10.4337 1.67432 17.388 2.00538 23.5137C2.12006 25.6428 2.6848 28.0381 3.84241 29.8405C4.56944 30.9722 5.59291 31.8766 6.85006 32.3786C8.09206 32.8741 9.43359 32.9499 10.7362 33.1749C12.0128 33.3934 13.1207 33.8305 14.2566 34.4429C15.3688 35.0422 16.2581 35.6221 17.5326 35.7346C20.5965 36.0073 22.2431 36.4054 24.9219 34.7739C25.8025 34.2373 27.2501 33.3783 28.2324 33.2831C31.4716 32.9693 35.3923 30.9202 36.1799 27.8196C36.5391 26.4066 37.3397 24.1779 37.0087 22.5227C36.63 20.625 35.3166 18.9979 33.8625 17.7213C29.5545 13.9347 22.44 10.4359 22.44 10.4359L22.3794 4.92257C22.3729 4.39677 21.938 3.97917 21.4122 4.0008C19.8456 4.06139 16.9051 4.28859 16.9051 5.13678C16.9051 5.98498 16.7385 10.4337 16.7385 10.4337H16.7406Z" fill="#BFBFBF" stroke="#929292" stroke-miterlimit="10" stroke-linecap="round" stroke-linejoin="round"/>
<path d="M16.8097 5.25146C16.8097 9.68719 17.4199 13.8243 15.2604 17.8857C13.5727 21.0578 12.0689 24.2667 11.8546 27.9148C11.7421 29.8081 11.9412 31.71 12.3415 33.5622" stroke="#929292" stroke-miterlimit="10" stroke-linecap="round" stroke-linejoin="round"/>
<path d="M23.1021 13.9109C24.171 15.8886 25.1403 17.929 25.9885 20.0127C26.88 22.196 27.5226 24.5047 27.7974 26.8524C28.0528 29.0421 28.2215 31.8117 26.8064 33.6423" stroke="#929292" stroke-miterlimit="10" stroke-linecap="round" stroke-linejoin="round"/>
<path d="M14.6308 12.9783C14.6308 12.9783 11.3852 14.7093 10.0869 15.7912L14.6308 12.9783Z" fill="#EFEFEF"/>
<path d="M14.6308 12.9783C14.6308 12.9783 11.3852 14.7093 10.0869 15.7912" stroke="#929292" stroke-miterlimit="10" stroke-linecap="round" stroke-linejoin="round"/>
<path d="M13.9429 14.8175C13.9429 14.8175 12.4369 15.5207 12.0344 16.224L13.9429 14.8175Z" fill="#EFEFEF"/>
<path d="M13.9429 14.8175C13.9429 14.8175 12.4369 15.5207 12.0344 16.224" stroke="#929292" stroke-miterlimit="10" stroke-linecap="round" stroke-linejoin="round"/>
<path d="M32.4907 30.7277C32.4907 30.7277 34.6458 29.0378 35.0526 27.666L32.4907 30.7277Z" fill="#EFEFEF"/>
<path d="M32.4907 30.7277C32.4907 30.7277 34.6458 29.0378 35.0526 27.666" stroke="#929292" stroke-miterlimit="10" stroke-linecap="round" stroke-linejoin="round"/>
<path d="M32.5166 29.4424C32.5166 29.4424 33.8322 28.4254 34.0702 27.6508L32.5166 29.4424Z" fill="#EFEFEF"/>
<path d="M32.5166 29.4424C32.5166 29.4424 33.8322 28.4254 34.0702 27.6508" stroke="#929292" stroke-miterlimit="10" stroke-linecap="round" stroke-linejoin="round"/>
<path d="M35.7145 25.6602L35.3943 26.6988" stroke="#929292" stroke-miterlimit="10" stroke-linecap="round" stroke-linejoin="round"/>
</svg>
