<svg width="40" height="40" viewBox="0 0 40 40" fill="none" xmlns="http://www.w3.org/2000/svg">
<path d="M24.1067 22.3617C24.0223 22.2211 23.8103 22.2708 23.793 22.4331L23.5917 24.5536C23.4468 26.0856 22.1831 27.293 20.6447 27.3103C20.6295 27.3103 20.6144 27.3103 20.5992 27.3103C19.0846 27.3103 18.5869 24.3026 18.5869 24.3026C18.5869 24.3026 18.2191 23.1991 18.0027 24.281C17.332 27.1437 14.4953 28.2926 12.1303 28.7492C11.9225 30.8567 11.6975 33.0248 11.5785 34.1716C11.492 35.0003 11.7235 35.8333 12.2514 36.4781C12.6864 37.0083 13.3463 37.5146 14.3287 37.6661C16.2544 37.9625 23.0097 37.8132 25.1821 37.7548C25.7945 37.7396 26.396 37.5687 26.9066 37.2333C27.5406 36.8157 28.2071 35.8918 28.0989 34.8229C27.9669 33.5008 27.7159 29.0391 27.5341 25.603C26.1212 25.4754 24.6845 23.3224 24.1089 22.3596L24.1067 22.3617Z" fill="#EFEFEF" stroke="#929292" stroke-miterlimit="10"/>
<path d="M28.2307 20.3884L33.8024 14.6674C34.3001 14.1567 34.9557 13.7413 34.8799 13.0316C34.6701 11.0582 33.467 6.77178 30.481 4.67509C29.8102 4.20339 28.9079 4.23585 28.2718 4.75082C26.3828 6.27844 22.7758 9.1476 22.4859 9.29257C22.2176 9.42673 20.4325 5.11001 19.5756 2.98952C19.2986 2.3036 18.5868 1.9033 17.8554 2.02015C15.2632 2.43126 9.27175 3.65596 5.59551 6.59435C4.98532 7.0812 4.82087 7.94022 5.21035 8.61748C7.12745 11.9389 12.7013 21.8121 12.5542 24.017C12.4871 25.0318 12.3162 26.8689 12.1301 28.7557C14.4951 28.2991 17.3318 27.1502 18.0025 24.2875C18.2189 23.2056 18.5868 24.3091 18.5868 24.3091C18.5868 24.3091 19.0844 27.3168 20.5991 27.3168C22.1137 27.3168 23.412 26.4513 23.412 26.4513L23.795 22.4396C23.8101 22.2773 24.0243 22.2276 24.1087 22.3682C24.6843 23.3311 26.121 25.4862 27.534 25.6117C27.4734 24.4541 27.4193 23.4133 27.3803 22.6495C27.337 21.8121 27.6465 20.9942 28.2307 20.3949V20.3884Z" fill="#BFBFBF" stroke="#929292" stroke-miterlimit="10"/>
<path d="M5.32959 6.93404C5.45725 7.29323 8.53846 6.52509 12.2125 5.22034C15.8866 3.91559 18.7601 2.56756 18.6324 2.20837" stroke="#929292" stroke-miterlimit="10"/>
<path d="M29.7693 4.24445C29.4729 4.41538 30.7517 7.9142 32.0218 10.1148C33.292 12.3153 34.5859 13.2003 34.8802 13.0293" stroke="#929292" stroke-miterlimit="10"/>
<path d="M7.18384 8.48547L9.34761 12.5966" stroke="#929292" stroke-linecap="round" stroke-linejoin="round"/>
<path d="M8.48218 7.8363L9.67225 10.1083" stroke="#929292" stroke-linecap="round" stroke-linejoin="round"/>
<path d="M26.3093 29.5844L26.4153 33.0464" stroke="#929292" stroke-miterlimit="10" stroke-linecap="round"/>
<path d="M26.1211 27.4185L26.199 28.5025" stroke="#929292" stroke-miterlimit="10" stroke-linecap="round"/>
<path d="M25.249 30.1578L25.3096 31.9753" stroke="#929292" stroke-miterlimit="10" stroke-linecap="round"/>
</svg>
