<svg width="40" height="40" viewBox="0 0 40 40" fill="none" xmlns="http://www.w3.org/2000/svg">
<g clip-path="url(#clip0_1179_9269)">
<path d="M33.6984 30.3696C38.2449 25.067 39.1587 18.3918 35.7394 15.4601C32.3202 12.5284 25.8626 14.4504 21.3161 19.753C16.7696 25.0556 15.8558 31.7309 19.2751 34.6626C22.6944 37.5943 29.1519 35.6722 33.6984 30.3696Z" fill="#EFEFEF" stroke="#929292" stroke-miterlimit="10"/>
<path d="M17.2146 29.9173C18.277 33.1391 21.553 34.8377 24.8202 34.3682C27.7781 33.9419 30.3249 32.0767 32.3112 29.9368C34.2954 27.8011 35.8944 25.2674 37.0347 22.5864C37.329 21.894 37.5908 21.1843 37.8072 20.4616" fill="#EFEFEF"/>
<path d="M17.2146 29.9173C18.277 33.1391 21.553 34.8377 24.8202 34.3682C27.7781 33.9419 30.3249 32.0767 32.3112 29.9368C34.2954 27.8011 35.8944 25.2674 37.0347 22.5864C37.329 21.894 37.5908 21.1843 37.8072 20.4616" stroke="#929292" stroke-miterlimit="10"/>
<path d="M23.5401 21.9268C26.6536 13.8327 24.9461 5.64347 19.7263 3.63559C14.5065 1.62771 7.751 6.56153 4.63749 14.6556C1.52399 22.7496 3.23149 30.9389 8.45131 32.9468C13.6711 34.9546 20.4266 30.0208 23.5401 21.9268Z" fill="#EFEFEF" stroke="#929292" stroke-miterlimit="10"/>
<path d="M4.06738 28.2512C6.64876 31.5769 11.1905 32.2044 14.817 30.2959C18.1016 28.5671 20.3021 25.3279 21.7389 21.9957C23.1713 18.6722 23.987 15.0414 24.2077 11.4322C24.264 10.4975 24.2748 9.56055 24.2272 8.6258" fill="#EFEFEF"/>
<path d="M4.06738 28.2512C6.64876 31.5769 11.1905 32.2044 14.817 30.2959C18.1016 28.5671 20.3021 25.3279 21.7389 21.9957C23.1713 18.6722 23.987 15.0414 24.2077 11.4322C24.264 10.4975 24.2748 9.56055 24.2272 8.6258" stroke="#929292" stroke-miterlimit="10"/>
</g>
<defs>
<clipPath id="clip0_1179_9269">
<rect width="40" height="40" fill="white"/>
</clipPath>
</defs>
</svg>
