<svg width="40" height="40" viewBox="0 0 40 40" fill="none" xmlns="http://www.w3.org/2000/svg">
<path d="M14.4579 29.3193L16.7147 30.663L18.1039 32.1128C18.3224 32.3421 18.5734 32.539 18.846 32.7013L20.6355 33.7572L21.62 34.8348C21.8948 35.1356 22.2215 35.3865 22.5829 35.5748L23.6561 36.133L25.0387 37.4356C25.439 37.7515 25.8913 37.5763 26.2072 37.176L27.8084 35.6289C27.9447 35.4969 28.0637 35.3519 28.1654 35.194L29.9938 32.3638L31.7659 30.6003C31.9109 30.4575 32.0364 30.2952 32.1402 30.1221L33.3822 28.0579L34.5593 27.0084C34.7389 26.8483 34.8947 26.6622 35.0202 26.4567L36.3574 24.2756L38.6337 21.9322C38.9496 21.5319 38.8501 20.7075 38.4498 20.3916L37.5583 19.5218C37.3895 19.3574 37.1948 19.221 36.9806 19.1215L35.9355 18.6282L35.0375 17.5939C34.8493 17.3775 34.6221 17.1979 34.3689 17.0638L33.0858 16.3865L31.7529 14.9714C31.5928 14.8026 31.411 14.6576 31.2076 14.543L29.5459 13.6017L28.0334 11.9789C27.6331 11.663 26.9407 11.8664 26.6269 12.2667L25.6294 13.8095L24.1862 15.1986C23.9655 15.4106 23.7773 15.653 23.6258 15.9191L22.7386 17.4835L21.3798 18.7731C21.1504 18.9917 20.9557 19.2405 20.7999 19.5175L19.9474 21.0321L18.6967 22.1897C18.4717 22.3974 18.277 22.6398 18.1212 22.9038L17.0566 24.7062L15.6869 25.9915C15.503 26.1646 15.3386 26.3593 15.2001 26.5714L14.3605 27.8588C14.0446 28.2591 14.01 28.9796 14.4536 29.3193H14.4579Z" fill="#BFBFBF" stroke="#929292" stroke-miterlimit="10" stroke-linejoin="round"/>
<path d="M29.1046 15.495L29.269 15.8434C29.3426 16.0013 29.2409 16.1853 29.0678 16.2047L28.5247 16.2697C28.3949 16.2848 28.3126 16.1377 28.3927 16.0338L28.8406 15.4626C28.912 15.3717 29.0548 15.3868 29.1024 15.4929L29.1046 15.495Z" fill="#EFEFEF" stroke="#929292" stroke-miterlimit="10" stroke-linejoin="round"/>
<path d="M27.8301 16.2631L27.6938 16.8928C27.6873 16.9188 27.6743 16.9447 27.6548 16.9642L26.9581 17.6393C26.8845 17.7085 26.7655 17.6826 26.7309 17.5874L26.3652 16.5855C26.3306 16.4903 26.4063 16.3908 26.508 16.3995L26.9494 16.4341C27.023 16.4406 27.0879 16.3886 27.0987 16.3151C27.1333 16.0576 27.2675 15.5599 27.7976 16.142C27.8279 16.1744 27.8409 16.222 27.8301 16.2653V16.2631Z" fill="#EFEFEF" stroke="#929292" stroke-linecap="round" stroke-linejoin="round"/>
<path d="M28.8277 30.5051L28.3473 30.9854L27.0015 31.1759L27.5792 30.4077C27.5792 30.4077 28.0595 30.8881 28.8277 30.5051Z" fill="#EFEFEF" stroke="#929292" stroke-linecap="round" stroke-linejoin="round"/>
<path d="M26.9342 34.3912L26.2678 34.0969C26.1985 34.0666 26.1206 34.0904 26.0795 34.1532C25.8935 34.4475 25.4066 35.2632 25.5105 35.5964C25.6381 36.0054 26.958 34.4669 26.958 34.4669L26.9342 34.3912Z" fill="#EFEFEF" stroke="#929292" stroke-linecap="round" stroke-linejoin="round"/>
<path d="M27.6699 33.4824L27.3821 33.8654L26.4214 33.3851L27.0943 32.8095L27.6699 33.4824Z" fill="#EFEFEF" stroke="#929292" stroke-linecap="round" stroke-linejoin="round"/>
<path d="M17.0913 27.6056L16.4249 28.7308C16.3513 28.8541 16.4638 29.0034 16.6023 28.9688L17.2947 28.7914C17.4202 28.7589 17.4959 28.6313 17.4656 28.5036L17.4224 27.7917L17.299 27.6013C17.2493 27.5256 17.1389 27.5277 17.0935 27.6056H17.0913Z" fill="#EFEFEF" stroke="#929292" stroke-linecap="round" stroke-linejoin="round"/>
<path d="M16.5958 34.6205L13.824 32.7424L11.4006 31.9223C11.0176 31.7925 10.6541 31.6107 10.3209 31.3836L8.13547 29.8905L6.35902 29.3388C5.86135 29.1852 5.39615 28.9428 4.98287 28.6269L3.75817 27.69L1.50786 26.8007C0.927966 26.5086 0.884684 25.8919 1.17679 25.312L2.09639 22.6289C2.17429 22.4017 2.27816 22.1832 2.40582 21.9798L4.6821 18.3382L5.75749 15.3392C5.84404 15.0947 5.96306 14.8632 6.10586 14.649L7.8174 12.1L8.39296 10.1743C8.48168 9.88002 8.6115 9.60089 8.78028 9.3434L10.5719 6.62138L12.0454 2.72876C12.3375 2.14887 13.3415 1.81565 13.9236 2.10776L15.4079 2.66601C15.6892 2.77204 15.951 2.9235 16.1825 3.11608L17.3163 4.05515L18.9954 4.53118C19.3481 4.63072 19.677 4.79516 19.9691 5.01587L21.4426 6.13021L23.7947 6.90267C24.076 6.99572 24.3399 7.12771 24.5823 7.29864L26.5665 8.70509L29.256 9.57276C29.8359 9.86487 29.9766 10.7715 29.6844 11.3535L28.4424 13.3399L27.6202 15.7568C27.4947 16.1247 27.3173 16.4752 27.0923 16.7911L25.7659 18.6606L25.0129 20.9261C24.8852 21.309 24.7013 21.6704 24.4676 21.9971L23.1823 23.7974L22.5224 25.8681C22.4034 26.2403 22.2303 26.5951 22.0096 26.9175L20.5057 29.1181L19.7636 31.3944C19.664 31.7016 19.5277 31.9937 19.3568 32.2685L18.3247 33.9346C18.0325 34.5145 17.2211 34.9451 16.5893 34.6184L16.5958 34.6205Z" fill="#BFBFBF" stroke="#929292" stroke-miterlimit="10" stroke-linejoin="round"/>
<path d="M24.6257 10.2501H24.1345C23.9138 10.2501 23.7558 10.4664 23.8251 10.6763L24.0436 11.3384C24.0955 11.4964 24.3119 11.5115 24.3855 11.3644L24.8009 10.5378C24.868 10.4059 24.7706 10.2522 24.6235 10.2501H24.6257Z" fill="#EFEFEF" stroke="#929292" stroke-miterlimit="10" stroke-linejoin="round"/>
<path d="M7.45809 18.6844L7.16382 19.498L7.67231 21.1532L8.2457 20.0714C8.2457 20.0714 7.43213 19.7771 7.45809 18.6844Z" fill="#EFEFEF" stroke="#929292" stroke-linecap="round" stroke-linejoin="round"/>
<path d="M3.9963 22.9708L4.69519 23.581C4.76659 23.6438 4.78391 23.7476 4.73198 23.8277C4.49396 24.202 3.8167 25.2038 3.37529 25.2644C2.83218 25.338 3.8946 22.9838 3.8946 22.9838L3.9963 22.9708Z" fill="#EFEFEF" stroke="#929292" stroke-linecap="round" stroke-linejoin="round"/>
<path d="M4.6496 21.6293L4.36182 22.1702L5.43721 23.0162L5.73798 21.93L4.6496 21.6293Z" fill="#EFEFEF" stroke="#929292" stroke-linecap="round" stroke-linejoin="round"/>
<path d="M17.1498 30.6587L16.2129 32.037C16.1112 32.1885 15.8775 32.1387 15.8429 31.9613L15.6719 31.0655C15.6416 30.9032 15.7476 30.7452 15.9099 30.7149L16.756 30.3817L17.0416 30.4207C17.1563 30.4358 17.2125 30.5656 17.1498 30.6608V30.6587Z" fill="#EFEFEF" stroke="#929292" stroke-linecap="round" stroke-linejoin="round"/>
</svg>
