<svg width="40" height="40" viewBox="0 0 40 40" fill="none" xmlns="http://www.w3.org/2000/svg">
<path d="M2.09525 15.5064L2.00005 28.5518C1.99356 29.4325 2.58426 30.2049 3.43463 30.4321L23.2829 35.1361C23.8866 35.2963 24.8538 35.1643 25.3341 34.7661L36.7761 25.2867C37.2024 24.9318 37.4577 24.4125 37.4729 23.8586L37.3495 10.8435C37.3755 9.9369 36.7675 9.13414 35.8868 8.91344L15.3375 5.0576C14.7338 4.90614 14.0934 5.0576 13.6195 5.46223L2.77035 14.0546C2.34409 14.4181 2.09526 14.9482 2.09093 15.5108L2.09525 15.5064Z" fill="#EEEEEE" stroke="#929292" stroke-miterlimit="10" stroke-linecap="round"/>
<path d="M2.24878 14.7686L24.3322 19.6522L36.8344 9.94122" fill="#EEEEEE"/>
<path d="M2.24878 14.7686L24.3322 19.6522L36.8344 9.94122" stroke="#929292" stroke-miterlimit="10" stroke-linecap="round"/>
<path d="M24.2976 19.6522L24.5876 34.857" stroke="#929292" stroke-miterlimit="10" stroke-linecap="round"/>
<path d="M17.0945 13.8814L19.5915 10.9582C19.5915 10.9582 22.6921 9.52359 21.1364 8.51527C19.5807 7.50695 19.5417 11.0209 19.5417 11.0209" fill="#BFBFBF"/>
<path d="M17.0945 13.8814L19.5915 10.9582C19.5915 10.9582 22.6921 9.52359 21.1364 8.51527C19.5807 7.50695 19.5417 11.0209 19.5417 11.0209" stroke="#929292" stroke-miterlimit="10" stroke-linecap="round"/>
<path d="M18.0184 12.4122C18.0184 12.4122 18.4966 9.66424 17.4753 10.1922C16.454 10.7202 18.079 12.5074 18.079 12.5074" fill="#BFBFBF"/>
<path d="M18.0184 12.4122C18.0184 12.4122 18.4966 9.66424 17.4753 10.1922C16.454 10.7202 18.079 12.5074 18.079 12.5074" stroke="#929292" stroke-miterlimit="10" stroke-linecap="round"/>
<path d="M18.8774 11.8929C18.8774 11.8929 22.2096 10.7591 21.5562 11.7545C20.9027 12.7498 18.8774 11.8929 18.8774 11.8929Z" fill="#BFBFBF" stroke="#929292" stroke-miterlimit="10" stroke-linecap="round"/>
<path d="M3.73327 26.2625C3.59478 26.2625 3.46712 26.1954 3.38706 26.0829C3.307 25.9703 3.28537 25.8254 3.33081 25.6955L3.56233 25.0226C3.59046 24.9426 3.64022 24.8733 3.7073 24.8214L4.0838 24.5358C4.15736 24.4795 4.25041 24.4492 4.34345 24.4492C4.38673 24.4492 4.42783 24.4557 4.46895 24.4687C4.80217 24.5704 4.98609 24.7392 5.01638 24.9664C5.03369 25.0919 5.00773 25.265 4.81948 25.4402L4.88439 25.5571C4.9558 25.6826 4.96012 25.8362 4.89088 25.966C4.82381 26.0958 4.69614 26.1802 4.55117 26.1932L3.77005 26.2625C3.77005 26.2625 3.74193 26.2625 3.73111 26.2625H3.73327Z" fill="#EEEEEE"/>
<path d="M4.34342 24.7717C4.34342 24.7717 4.36289 24.7717 4.37371 24.776C4.92764 24.947 4.63769 25.1915 4.47757 25.2953C4.43213 25.3256 4.41698 25.384 4.44511 25.4316L4.60523 25.7151C4.64201 25.78 4.59874 25.8601 4.52517 25.8687L3.74405 25.938C3.74405 25.938 3.73756 25.938 3.7354 25.938C3.66616 25.938 3.61639 25.8687 3.63803 25.8016L3.86955 25.1287C3.87604 25.1092 3.88902 25.0919 3.90417 25.0811L4.28066 24.7933C4.29797 24.7803 4.32178 24.7717 4.34342 24.7717ZM4.34342 24.1226C4.17897 24.1226 4.01669 24.1767 3.88686 24.2762L3.51036 24.564C3.39136 24.6548 3.30264 24.776 3.25504 24.9188L3.02352 25.5918C2.94562 25.8211 2.9824 26.0743 3.12305 26.2712C3.26369 26.4681 3.49305 26.5849 3.73323 26.5849C3.75271 26.5849 3.78083 26.5849 3.80031 26.5828L4.58143 26.5135C4.83676 26.4897 5.06179 26.3404 5.18079 26.1132C5.28465 25.9142 5.29547 25.6805 5.20892 25.4771C5.34957 25.2585 5.35606 25.0508 5.33875 24.921C5.30413 24.67 5.14184 24.3346 4.56412 24.1572C4.49271 24.1355 4.41915 24.1247 4.34342 24.1247V24.1226Z" fill="#929292"/>
<path d="M32.4313 9.95633C32.3209 9.90224 32.1889 9.91954 32.098 10.0018C31.6913 10.3739 30.6397 11.3801 31.1676 11.3801C31.5787 11.3801 32.4248 11.0317 32.9895 10.7786C33.2189 10.6747 33.2232 10.3523 33.0003 10.2398L32.4334 9.95633H32.4313Z" fill="#EEEEEE" stroke="#929292" stroke-linejoin="round"/>
<path d="M25.9017 20.3216C26.041 20.1353 26.2654 20.0382 26.4877 20.0509L26.4922 20.0512L26.4922 20.0512L27.4075 20.1118L27.4077 20.1118C27.5349 20.1203 27.6511 20.1637 27.7493 20.2316L27.7491 20.2314L27.4654 20.6432L27.75 20.2321L25.9017 20.3216ZM25.9017 20.3216C25.8701 20.357 25.8432 20.3976 25.8222 20.4425L25.6864 20.7334C25.5256 21.0745 25.6723 21.4833 26.0163 21.6437L26.0159 21.6435L26.2277 21.1906M25.9017 20.3216L26.2277 21.1906M26.2277 21.1906L26.0168 21.6439M26.2277 21.1906L26.0168 21.6439M26.0168 21.6439L26.845 22.0311M26.0168 21.6439L26.845 22.0311M26.845 22.0311C27.0129 22.1124 27.205 22.1185 27.3739 22.0559L26.845 22.0311ZM28.2627 20.5854L27.9803 20.998L28.264 20.5863L28.2635 20.5859C28.2632 20.5857 28.263 20.5856 28.2627 20.5854ZM28.1078 21.7911L28.1089 21.7908L27.9392 21.3204L28.106 21.7918C28.1066 21.7916 28.1072 21.7914 28.1078 21.7911ZM27.767 20.851C27.7679 20.8507 27.7687 20.8504 27.7696 20.8501L27.767 20.851L27.767 20.851ZM26.1319 21.0854C26.1331 21.0888 26.1344 21.0921 26.1358 21.0954C26.1429 21.1122 26.1525 21.128 26.1644 21.1422C26.1509 21.1389 26.1375 21.1351 26.1241 21.1306L26.1176 21.1285L26.1319 21.0854ZM27.6949 21.4085L27.6949 21.4085C27.6955 21.4089 27.6961 21.4093 27.6966 21.4097C27.6971 21.41 27.6975 21.4104 27.698 21.4107L27.6966 21.4097L27.6966 21.4097L27.6949 21.4085Z" fill="#EEEEEE" stroke="#929292" stroke-linejoin="round"/>
<path d="M4.81508 29.3524C4.7242 29.3524 4.63116 29.3307 4.54028 29.2875L3.60553 28.8504C3.33289 28.7227 3.20307 28.4566 3.30693 28.2359L3.38699 28.0649C3.45406 27.9221 3.59904 27.8356 3.77647 27.8356C3.82191 27.8356 3.87168 27.8421 3.91928 27.8529L4.87134 28.0844C4.93408 28.0995 4.99899 28.1255 5.05742 28.1601L5.66111 28.5085C5.871 28.6297 5.97702 28.8331 5.92941 29.0256C5.88614 29.1987 5.73251 29.3178 5.53777 29.3242C5.53777 29.3242 4.82157 29.3524 4.81724 29.3524H4.81508Z" fill="#EEEEEE"/>
<path d="M3.7786 28.1579C3.79807 28.1579 3.82187 28.1601 3.84351 28.1666L4.79556 28.3981C4.83018 28.4068 4.8648 28.4197 4.89726 28.4392L5.50095 28.7876C5.64376 28.8698 5.65891 28.9931 5.52475 28.9996L4.82369 29.0278C4.82369 29.0278 4.8172 29.0278 4.81504 29.0278C4.77393 29.0278 4.72416 29.0148 4.67872 28.9931L3.74398 28.5561C3.64011 28.5084 3.57736 28.4262 3.60333 28.3721L3.68339 28.2012C3.69637 28.1731 3.73099 28.1579 3.7786 28.1579ZM3.7786 27.5088C3.47783 27.5088 3.21602 27.6689 3.09484 27.9264L3.01478 28.0973C2.83302 28.4868 3.02776 28.9369 3.46917 29.1446L4.40392 29.5817C4.53591 29.6444 4.67872 29.6769 4.81504 29.6769C4.82369 29.6769 4.841 29.6769 4.84966 29.6769L5.55072 29.6488C5.88826 29.6358 6.1674 29.4151 6.24529 29.1035C6.32751 28.7659 6.16307 28.4241 5.82552 28.2272L5.22183 27.8788C5.13528 27.829 5.0444 27.7922 4.94919 27.7684L3.99713 27.5369C3.92356 27.5196 3.85 27.511 3.7786 27.511V27.5088Z" fill="#929292"/>
<path d="M26.8248 23.9646C26.7708 23.9646 26.7145 23.9516 26.6647 23.93L26.4072 23.8088C26.3142 23.7655 26.245 23.6898 26.2103 23.5946C26.1757 23.4994 26.18 23.3955 26.2233 23.3025L26.2644 23.2138C26.3272 23.0796 26.4635 22.9952 26.6085 22.9952C26.615 22.9952 26.6258 22.9952 26.6323 22.9952L26.9136 23.0147C26.9828 23.019 27.0477 23.0428 27.104 23.0796L27.2619 23.19C27.3809 23.2722 27.4415 23.4107 27.4242 23.5513C27.4069 23.692 27.3117 23.811 27.1775 23.8607L26.9503 23.943C26.9157 23.9559 26.8595 23.9646 26.8205 23.9646H26.8248Z" fill="#EEEEEE"/>
<path d="M26.6106 23.3198C26.6106 23.3198 26.6128 23.3198 26.615 23.3198L26.8962 23.3393C26.8962 23.3393 26.9157 23.3436 26.9244 23.3501L27.0823 23.4583C27.1191 23.4842 27.1126 23.5426 27.0693 23.5578L26.8443 23.64C26.8443 23.64 26.8313 23.6444 26.8248 23.6444C26.8162 23.6444 26.8075 23.6443 26.801 23.64L26.5457 23.521C26.5176 23.508 26.5046 23.4734 26.5176 23.4453L26.5587 23.3566C26.5674 23.3371 26.5868 23.3241 26.6106 23.3241M26.6106 22.6707C26.338 22.6707 26.087 22.8308 25.9723 23.0774L25.9312 23.1683C25.8511 23.3393 25.8425 23.5297 25.9074 23.7071C25.9723 23.8845 26.1 24.0252 26.2709 24.1052L26.5262 24.2242C26.6193 24.2675 26.7231 24.2913 26.8248 24.2913C26.9071 24.2913 26.9871 24.2762 27.065 24.248L27.29 24.1658C27.5389 24.0749 27.7163 23.8564 27.7488 23.5924C27.7812 23.3284 27.6687 23.0709 27.448 22.9216L27.29 22.8135C27.1862 22.7421 27.0629 22.6988 26.9374 22.6901L26.6561 22.6707C26.6409 22.6707 26.6236 22.6707 26.6085 22.6707H26.6106Z" fill="#929292"/>
<path d="M28.4262 9.21632L28.3007 9.51275C28.2617 9.6058 28.305 9.71399 28.3981 9.75293L29.2441 10.1121C29.2895 10.1316 29.3393 10.1316 29.3847 10.1121L30.1118 9.81785C30.2502 9.76159 30.2675 9.57334 30.142 9.49328L29.6141 9.1579C29.586 9.14059 29.5535 9.12977 29.521 9.12977L28.6036 9.10164C28.5279 9.09948 28.4586 9.14275 28.4305 9.21415L28.4262 9.21632Z" fill="#EEEEEE" stroke="#929292" stroke-linejoin="round"/>
<path d="M34.6497 23.6375C34.6411 23.6539 34.6334 23.6709 34.6266 23.6884L34.4687 24.0952C34.4687 24.0952 34.4687 24.0952 34.4686 24.0952C34.1919 24.8078 34.9926 25.463 35.6357 25.0402L35.6359 25.0401C35.8941 24.8701 36.1933 24.6567 36.4075 24.4461C36.5095 24.3458 36.6309 24.2094 36.7025 24.0482C36.7401 23.9635 36.7762 23.8449 36.7661 23.706C36.7552 23.5558 36.6924 23.4179 36.5887 23.3104C36.278 22.9875 35.8592 23.0082 35.6174 23.0542C35.3566 23.1038 35.1214 23.2136 34.9962 23.2787L34.9962 23.2786L34.9907 23.2815C34.8445 23.3599 34.7238 23.483 34.6497 23.6375Z" fill="#EEEEEE" stroke="#929292" stroke-linejoin="round"/>
</svg>
