<svg width="80" height="80" viewBox="0 0 80 80" fill="none" xmlns="http://www.w3.org/2000/svg">
<path d="M39.9556 7.13814C37.636 8.14213 35.6756 9.81256 34.0268 12.2014C31.8847 15.3085 31.0192 19.0475 31.6467 22.7779C31.8155 23.7732 32.0751 24.7469 32.4083 25.6989C33.7196 29.425 30.0888 32.6576 27.4793 34.6916C23.8311 37.5304 19.746 39.6466 15.6348 41.7281C14.7823 42.1609 13.9341 42.5893 13.0859 43.0351C13.0037 43.0783 12.9258 43.1216 12.8435 43.1606C9.69741 44.8267 7.43844 48.4445 6.50802 51.8113C5.72041 54.6588 5.88052 57.6621 6.76767 60.4664C8.49003 65.9104 12.1771 70.212 17.4913 72.3541C29.6647 77.2659 43.4911 75.154 55.1019 69.723C59.4684 67.6804 63.8479 65.3695 67.2883 61.9248C75.3288 53.8842 76.2203 41.2348 74.5196 30.5891C73.7406 25.7076 71.9447 21.1767 68.6341 17.442C62.9391 11.0156 54.7254 6.00433 45.9362 6C43.7162 6 41.7298 6.37217 39.9556 7.13814Z" fill="#FAF4E5" stroke="#B7AE9A" stroke-width="2" stroke-miterlimit="10"/>
<path d="M6.65088 51.6512C6.65088 51.6512 6.76772 54.5074 8.32131 57.1732C11.7314 63.0326 20.3345 71.982 40.4749 69.2773C44.7116 68.3252 61.563 62.5956 68.9761 52.4864C70.997 49.4528 74.1128 47.354 74.7057 32.2682" fill="#FAF4E5"/>
<path d="M6.65088 51.6512C6.65088 51.6512 6.76772 54.5074 8.32131 57.1732C11.7314 63.0326 20.3345 71.982 40.4749 69.2773C44.7116 68.3252 61.563 62.5956 68.9761 52.4864C70.997 49.4528 74.1128 47.354 74.7057 32.2682" stroke="#B7AE9A" stroke-width="2" stroke-miterlimit="10"/>
<path d="M13.0942 50.7986C12.9341 54.3299 16.4221 57.978 19.4167 59.3801C22.9956 61.0549 26.3754 63.7077 30.2182 64.6164C33.36 65.3608 36.861 64.9324 39.9898 64.2789C45.1396 63.2057 50.3759 60.3019 54.9631 57.6751C55.1189 57.5842 55.279 57.489 55.3872 57.3462C56.0839 56.4244 54.6472 54.6242 53.9331 54.1698C53.2191 53.7154 52.4315 53.5552 51.6309 53.4903C50.4452 53.3951 49.2031 53.9317 48.078 53.8322C40.6649 53.1571 33.7625 51.0799 31.9017 44.3982C30.0149 37.6083 21.2126 42.0786 17.6987 44.7314C16.2533 45.8219 14.756 47.0207 13.7866 48.5743C13.3409 49.2926 13.1245 50.0413 13.0899 50.7943L13.0942 50.7986Z" fill="#C08471" stroke="#AD7464" stroke-width="2" stroke-miterlimit="10"/>
<path d="M39.3104 13.742C38.1073 14.8498 37.588 16.4727 37.904 18.0392C38.5574 21.2892 39.3883 27.7329 37.0644 32.4066C34.2039 38.1493 38.0814 43.6236 45.4685 46.0038C47.1692 46.5534 49.056 46.1812 50.3975 45.0474C54.1712 41.8623 55.8762 41.7109 52.3233 17.7363C52.1935 16.8578 51.8127 16.0269 51.2155 15.3432C48.9565 12.764 43.863 9.55292 39.3104 13.742Z" fill="#C08471" stroke="#AD7464" stroke-width="2" stroke-miterlimit="10"/>
<path d="M59.1868 24.4137C61.5626 40.0188 58.8536 40.6073 57.5163 44.9868C57.2653 45.8134 57.763 46.6745 58.6026 46.8779C61.1774 47.4924 64.263 47.9728 66.5263 46.2375C68.8588 44.4459 69.5858 41.4166 69.733 38.6167C69.9234 34.9512 69.7589 30.2342 67.5649 27.1271C66.0416 24.9676 63.5879 23.7689 61.1255 23.0072C60.1691 22.713 59.0353 23.4227 59.1824 24.4094L59.1868 24.4137Z" fill="#C08471" stroke="#AD7464" stroke-width="2" stroke-miterlimit="10"/>
</svg>
