<svg width="80" height="80" viewBox="0 0 80 80" fill="none" xmlns="http://www.w3.org/2000/svg">
<path d="M67.162 67.097C66.8158 65.5954 66.5432 63.9769 65.5392 62.7522C65.1757 62.3108 64.7516 61.9646 64.2928 61.679C64.8121 61.8348 65.3531 61.917 65.9243 61.8953C67.5082 61.8261 68.8973 60.952 70.2475 60.212C70.5288 60.0562 70.8101 59.9004 71.0957 59.7489C74.9862 57.6154 74.9948 52.0286 71.113 49.8821C70.8491 49.735 70.5894 49.5922 70.3254 49.445C68.3867 48.3718 66.6124 47.2466 64.2928 47.965C62.9513 48.3805 61.8088 48.7137 60.5236 49.484C61.0905 49.0469 61.454 48.9906 61.9473 48.4886C62.4277 47.9953 62.8301 47.437 63.0984 46.7663C63.6827 45.2949 63.449 43.6678 63.3235 42.1315C63.2975 41.8113 63.2715 41.491 63.2456 41.1708C62.8777 36.748 57.7842 34.4674 54.24 37.1375C54.002 37.3193 53.7596 37.4967 53.5216 37.6784C51.7516 39.0113 50.0033 40.1711 49.709 42.5816C49.6138 43.3692 49.7999 43.7846 49.8518 44.6198C49.5749 43.1744 49.0686 42.1358 48.493 40.8808C47.4847 38.6738 45.4637 38.0982 43.3735 37.3669C43.0922 37.2673 42.8066 37.1678 42.5253 37.0683C38.3363 35.6012 34.1775 39.3272 35.1728 43.6505C35.2464 43.962 35.3157 44.2779 35.3892 44.5895C35.7354 46.0912 36.0081 47.7097 37.012 48.9344C37.3756 49.3758 37.7997 49.722 38.2584 50.0076C37.7391 49.8518 37.1981 49.7696 36.6269 49.7912C35.043 49.8605 33.6539 50.7346 32.3037 51.4746C32.0224 51.6304 31.7411 51.7862 31.4555 51.9377C27.565 54.0755 27.5564 59.658 31.4382 61.8045C31.7022 61.9516 31.9618 62.0944 32.2258 62.2415C34.1645 63.3148 35.9388 64.4399 38.2584 63.7216C39.5999 63.3061 40.7424 62.9729 42.0277 62.2026C41.4608 62.6397 41.0972 62.6959 40.6039 63.1979C40.1235 63.6913 39.7211 64.2495 39.4528 64.9203C38.8686 66.3916 39.1022 68.0188 39.2277 69.5551C39.2537 69.8753 39.2797 70.1956 39.3056 70.5158C39.6735 74.9386 44.767 77.2235 48.3112 74.5491C48.5493 74.3673 48.7916 74.1899 49.0296 74.0081C50.7996 72.6752 52.5479 71.5155 52.8422 69.105C52.9374 68.3174 52.7513 67.902 52.6994 67.0668C52.9763 68.5121 53.4827 69.5508 54.0582 70.8058C55.0665 73.0128 57.0875 73.5884 59.1777 74.3197C59.459 74.4192 59.7446 74.5188 60.0259 74.6183C64.2149 76.0853 68.3737 72.3593 67.3784 68.0361C67.3048 67.7245 67.2356 67.4086 67.162 67.097Z" fill="#F3BB9A" stroke="#EAA292" stroke-width="2" stroke-linecap="round" stroke-linejoin="round"/>
<path d="M55.5467 38.2326C54.3479 36.6487 53.1709 34.8831 51.3403 33.97C50.6782 33.6411 49.9988 33.455 49.302 33.3641C49.9944 33.2689 50.6782 33.0871 51.3403 32.7582C53.1709 31.8451 54.3479 30.0795 55.5467 28.4956C55.7977 28.1624 56.0487 27.8335 56.2997 27.5003C59.753 22.9304 56.819 16.3482 51.111 15.8679C50.7258 15.8332 50.3406 15.8029 49.9555 15.7683C47.108 15.526 44.4249 15.1365 42.0664 17.2051C40.7032 18.4038 39.5348 19.3991 38.4269 20.9873C38.864 20.1738 39.2622 19.9184 39.5781 19.0659C39.8853 18.235 40.0671 17.3609 40.0238 16.4304C39.9329 14.3878 38.8034 12.5919 37.8427 10.8522C37.6437 10.4887 37.4403 10.1252 37.2412 9.76171C34.4759 4.7461 27.2662 4.7461 24.5009 9.76171C24.3148 10.0993 24.1288 10.4411 23.9427 10.7787C22.5622 13.2843 21.1125 15.5736 22.0429 18.5682C22.3458 19.5463 22.7829 19.9401 23.2849 20.8965C22.1943 19.3429 21.0519 18.3822 19.7147 17.2094C17.3605 15.1408 14.6774 15.5303 11.8256 15.7727C11.4404 15.8073 11.0553 15.8376 10.6701 15.8722C4.9621 16.3525 2.02803 22.9391 5.4814 27.5046C5.7324 27.8378 5.9834 28.1667 6.23439 28.4999C7.43312 30.0838 8.61021 31.8495 10.4408 32.7626C11.1029 33.0915 11.7823 33.2775 12.479 33.3684C11.7866 33.4636 11.1029 33.6454 10.4408 33.9743C8.61021 34.8874 7.43312 36.653 6.23439 38.2369C5.9834 38.5701 5.7324 38.899 5.4814 39.2322C2.02803 43.8021 4.9621 50.3843 10.6701 50.8646C11.0553 50.8993 11.4404 50.9296 11.8256 50.9642C14.6731 51.2065 17.3562 51.596 19.7147 49.5274C21.0778 48.3287 22.2463 47.3334 23.3541 45.7452C22.917 46.5588 22.5189 46.8141 22.203 47.6666C21.8957 48.4975 21.714 49.3717 21.7573 50.3021C21.8481 52.3447 22.9776 54.1406 23.9383 55.8803C24.1374 56.2438 24.3408 56.6073 24.5399 56.9708C27.3052 61.9864 34.5148 61.9864 37.2801 56.9708C37.4662 56.6332 37.6523 56.2914 37.8384 55.9538C39.2189 53.4482 40.6686 51.1589 39.7382 48.1643C39.4353 47.1862 38.9982 46.7924 38.4962 45.8361C39.5867 47.3896 40.7292 48.3503 42.0664 49.5231C44.4206 51.5917 47.1037 51.2022 49.9555 50.9599C50.3406 50.9252 50.7258 50.8949 51.111 50.8603C56.819 50.38 59.753 43.7935 56.2997 39.2279C56.0487 38.8947 55.7977 38.5658 55.5467 38.2326Z" fill="#FFE68B" stroke="#EFCA70" stroke-width="2" stroke-linecap="round" stroke-linejoin="round"/>
<path d="M49.5747 30.0231C49.5747 30.0231 53.8849 26.6433 54.6985 23.8997L49.5747 30.0231Z" fill="#FFE68B"/>
<path d="M49.5747 30.0231C49.5747 30.0231 53.8849 26.6433 54.6985 23.8997" stroke="#EFCA70" stroke-width="2" stroke-linecap="round" stroke-linejoin="round"/>
<path d="M49.1938 27.4526C49.1938 27.4526 51.825 25.4186 52.301 23.8694L49.1938 27.4526Z" fill="#FFE68B"/>
<path d="M49.1938 27.4526C49.1938 27.4526 51.825 25.4186 52.301 23.8694" stroke="#EFCA70" stroke-width="2" stroke-linecap="round" stroke-linejoin="round"/>
<path d="M65.4219 59.1129C65.4219 59.1129 69.3253 58.0959 70.6798 56.4861L65.4219 59.1129Z" fill="#F3BB9A"/>
<path d="M65.4219 59.1129C65.4219 59.1129 69.3253 58.0959 70.6798 56.4861" stroke="#EAA292" stroke-width="2" stroke-linecap="round" stroke-linejoin="round"/>
<path d="M65.9199 56.8321C65.9199 56.8321 68.2957 56.235 69.0704 55.3262L65.9199 56.8321Z" fill="#F3BB9A"/>
<path d="M65.9199 56.8321C65.9199 56.8321 68.2957 56.235 69.0704 55.3262" stroke="#EAA292" stroke-width="2" stroke-linecap="round" stroke-linejoin="round"/>
</svg>
