<svg width="80" height="80" viewBox="0 0 80 80" fill="none" xmlns="http://www.w3.org/2000/svg">
<path d="M58.8133 22.6057C59.3758 22.0301 59.8951 21.3853 60.3495 20.6626C63.0932 16.3264 62.5652 11.0641 59.1638 8.91334C55.8056 6.78852 50.9069 8.4979 48.1416 12.7259C46.7178 9.90435 44.0174 8.00024 40.9146 8.00024C37.8117 8.00024 35.1157 9.90435 33.6876 12.7259C30.9223 8.4979 26.0235 6.79285 22.6653 8.91334C19.2682 11.0641 18.7359 16.3221 21.4796 20.6626C21.7782 21.1343 22.1028 21.5757 22.449 21.9825C12.5908 26.8683 6 35.7311 6 45.8619C6 61.2636 21.2329 73.7442 40.0274 73.7442C58.8219 73.7442 74.0505 61.2592 74.0505 45.8619C74.0505 36.1509 67.992 27.5997 58.8003 22.6057H58.8133Z" fill="#F9F4E8" stroke="#B7AE9A" stroke-width="2" stroke-linecap="round" stroke-linejoin="round"/>
<path d="M31.4931 26.6089L24.5215 33.9094" stroke="#B7AE9A" stroke-width="2" stroke-linecap="round" stroke-linejoin="round"/>
<path d="M41.9823 26.2063L41.9141 36.3024" stroke="#B7AE9A" stroke-width="2" stroke-linecap="round" stroke-linejoin="round"/>
<path d="M51.3828 26.6089L58.4064 33.8618" stroke="#B7AE9A" stroke-width="2" stroke-linecap="round" stroke-linejoin="round"/>
</svg>
