<svg width="80" height="80" viewBox="0 0 80 80" fill="none" xmlns="http://www.w3.org/2000/svg">
<path d="M32.873 6.22334C39.3167 5.14145 45.9898 8.14909 51.1136 11.8188C60.5217 18.5611 65.6412 30.0637 66.6625 41.3716C67.2077 47.4258 66.6625 53.6575 64.4035 59.3006C62.1445 64.9437 58.068 69.968 52.6629 72.7549C47.4568 75.4423 41.3723 75.9313 35.5258 75.5245C28.9133 75.0658 21.9244 73.2655 17.5536 68.2802C13.4294 63.5762 12.4081 56.9507 12.1095 50.7018C11.6984 42.09 12.3648 33.2834 15.4807 25.2429C17.0299 21.2442 19.0985 17.2975 21.8422 13.9264C24.5858 10.5552 28.3551 6.97633 32.873 6.21901V6.22334Z" fill="#F9F4E8" stroke="#B7AE9A" stroke-width="2" stroke-miterlimit="10"/>
<path d="M51.5984 12.2776C51.5984 12.2776 76.3692 46.9498 51.4902 73.1617L51.5984 12.2776Z" fill="#F9F4E8"/>
<path d="M51.5984 12.2776C51.5984 12.2776 76.3692 46.9498 51.4902 73.1617" stroke="#B7AE9A" stroke-width="2" stroke-miterlimit="10"/>
<path d="M36.1966 69.3708C45.2596 69.3708 52.6067 62.8123 52.6067 54.7221C52.6067 46.6318 45.2596 40.0734 36.1966 40.0734C27.1336 40.0734 19.7866 46.6318 19.7866 54.7221C19.7866 62.8123 27.1336 69.3708 36.1966 69.3708Z" fill="#FFE68B" stroke="#F9D87A" stroke-width="2" stroke-miterlimit="10"/>
</svg>
