<svg width="80" height="80" viewBox="0 0 80 80" fill="none" xmlns="http://www.w3.org/2000/svg">
<path d="M22.9938 6.08943C21.068 6.52652 19.8606 8.43929 20.2977 10.365L21.6436 16.3111L19.9385 15.0431C18.3503 13.866 16.113 14.1992 14.9359 15.7874C13.7588 17.3757 14.092 19.613 15.6802 20.7901L24.0713 27.0131L24.7291 29.9255C25.1662 31.8513 27.0789 33.0587 29.0047 32.6216C30.9305 32.1845 32.1378 30.2717 31.7008 28.346L27.2737 8.78549C26.8366 6.85973 24.9238 5.65235 22.9981 6.08943H22.9938Z" fill="#FFE68B" stroke="#F9D87A" stroke-width="2" stroke-miterlimit="10"/>
<path d="M55.753 6.08943C57.6787 6.52652 58.8861 8.43929 58.449 10.365L57.1032 16.3111L58.8082 15.0431C60.3964 13.866 62.6338 14.1992 63.8109 15.7874C64.9879 17.3757 64.6547 19.613 63.0665 20.7901L54.6754 27.0131L54.0176 29.9255C53.5806 31.8513 51.6678 33.0587 49.742 32.6216C47.8163 32.1845 46.6089 30.2717 47.046 28.346L51.4731 8.78549C51.9101 6.85973 53.8229 5.65235 55.7486 6.08943H55.753Z" fill="#FFE68B" stroke="#F9D87A" stroke-width="2" stroke-miterlimit="10"/>
<path d="M72.652 47.7939C72.2929 46.435 71.9726 45.2579 71.8515 44.7213C70.8778 40.4068 69.415 36.4514 66.1088 33.1235C68.8178 29.8519 69.7915 26.3639 68.2509 24.3559C66.2516 21.7508 60.7643 22.5903 55.7833 26.1735C50.8456 24.0097 45.1462 22.7677 39.0747 22.7548C39.0747 22.7548 39.0487 22.7548 39.0357 22.7548C39.0228 22.7548 39.0098 22.7548 38.9968 22.7548C32.9253 22.7677 27.2259 24.0097 22.2882 26.1735C17.3072 22.5903 11.8155 21.7508 9.82054 24.3559C8.27993 26.3639 9.25363 29.8519 11.9627 33.1235C8.65643 36.4557 7.19373 40.4111 6.22003 44.7213C6.09886 45.2579 5.77862 46.435 5.41943 47.7939C10.8289 48.5728 22.6603 52.3768 15.1521 70.9202C21.4703 74.2438 29.9133 75.8796 39.0011 75.8883C39.0011 75.8883 39.0271 75.8883 39.0401 75.8883C39.0531 75.8883 39.066 75.8883 39.079 75.8883C48.1625 75.8796 56.6055 74.2438 62.9281 70.9202C55.4198 52.3768 67.2556 48.5728 72.6607 47.7939H72.652Z" fill="#ACDBD6" stroke="#8BC6BD" stroke-width="2" stroke-miterlimit="10"/>
<path d="M5.41077 47.7939C4.7703 50.213 4 53.2033 4 54.2073C4 58.1583 5.18142 61.5511 7.26729 64.403C7.5356 64.7622 7.81256 65.1127 8.09818 65.4589C9.93738 67.6183 12.3305 69.4359 15.1434 70.9159C22.6517 52.3724 10.8159 48.5685 5.41077 47.7896V47.7939Z" fill="#FFE68B" stroke="#F9D87A" stroke-width="2" stroke-linecap="round" stroke-linejoin="round"/>
<path d="M72.6956 47.7939C73.3361 50.213 74.1064 53.2033 74.1064 54.2073C74.1064 58.1583 72.925 61.5511 70.8391 64.403C70.5708 64.7622 70.2939 65.1127 70.0083 65.4589C68.169 67.6183 65.7759 69.4359 62.963 70.9159C55.4547 52.3724 67.2906 48.5685 72.6956 47.7896V47.7939Z" fill="#FFE68B" stroke="#F9D87A" stroke-width="2" stroke-linecap="round" stroke-linejoin="round"/>
<path d="M29.9307 46.7683V52.5109" stroke="#4C4C4C" stroke-width="2" stroke-linecap="round" stroke-linejoin="round"/>
<path d="M49.063 46.7683V52.5109" stroke="#4C4C4C" stroke-width="2" stroke-linecap="round" stroke-linejoin="round"/>
<path d="M29.0308 56.5183C29.0308 56.5183 34.6436 60.5299 39.3043 56.5183" stroke="#4C4C4C" stroke-width="2" stroke-linecap="round" stroke-linejoin="round"/>
<path d="M49.504 56.5183C49.504 56.5183 43.8912 60.5299 39.2305 56.5183" stroke="#4C4C4C" stroke-width="2" stroke-linecap="round" stroke-linejoin="round"/>
</svg>
