<svg width="80" height="80" viewBox="0 0 80 80" fill="none" xmlns="http://www.w3.org/2000/svg">
<path d="M33.4813 20.8674C33.4813 20.8674 3.34864 34.7761 4.01075 47.0273C4.24011 51.2856 5.3696 56.0762 7.68483 59.6811C9.13888 61.9444 11.1858 63.7533 13.7001 64.7573C16.1841 65.7483 18.8672 65.8997 21.4724 66.3498C24.0256 66.7869 26.2413 67.661 28.5133 68.8857C30.7376 70.0845 32.5162 71.2442 35.0652 71.4693C41.193 72.0145 44.4862 72.8108 49.8437 69.5478C51.605 68.4746 54.5001 66.7566 56.4648 66.5662C62.9432 65.9387 70.7847 61.8405 72.3599 55.6391C73.0782 52.8132 74.6794 48.3559 74.0173 45.0453C73.26 41.2501 70.6332 37.9958 67.7251 35.4425C59.109 27.8693 44.88 20.8717 44.88 20.8717L44.7589 9.84514C44.7459 8.79355 43.876 7.95833 42.8244 8.00161C39.6913 8.12278 33.8102 8.57717 33.8102 10.2736C33.8102 11.97 33.477 20.8674 33.477 20.8674H33.4813Z" fill="#E1D3AF" stroke="#A59B83" stroke-width="2" stroke-miterlimit="10" stroke-linecap="round" stroke-linejoin="round"/>
<path d="M33.6193 10.5029C33.6193 19.3744 34.8397 27.6486 30.5208 35.7714C27.1453 42.1156 24.1377 48.5333 23.7093 55.8295C23.4843 59.6161 23.8824 63.4201 24.683 67.1244" stroke="#A59B83" stroke-width="2" stroke-miterlimit="10" stroke-linecap="round" stroke-linejoin="round"/>
<path d="M46.2041 27.8218C48.3419 31.7771 50.2807 35.858 51.977 40.0254C53.76 44.3919 55.0453 49.0094 55.5949 53.7048C56.1055 58.0842 56.4431 63.6235 53.6128 67.2846" fill="#E1D3AF"/>
<path d="M46.2041 27.8218C48.3419 31.7771 50.2807 35.858 51.977 40.0254C53.76 44.3919 55.0453 49.0094 55.5949 53.7048C56.1055 58.0842 56.4431 63.6235 53.6128 67.2846" stroke="#A59B83" stroke-width="2" stroke-miterlimit="10" stroke-linecap="round" stroke-linejoin="round"/>
<path d="M29.2617 25.9567C29.2617 25.9567 22.7704 29.4187 20.1738 31.5825L29.2617 25.9567Z" fill="#E1D3AF"/>
<path d="M29.2617 25.9567C29.2617 25.9567 22.7704 29.4187 20.1738 31.5825" stroke="#A59B83" stroke-width="2" stroke-miterlimit="10" stroke-linecap="round" stroke-linejoin="round"/>
<path d="M27.8857 29.635C27.8857 29.635 24.8738 31.0415 24.0688 32.4479L27.8857 29.635Z" fill="#E1D3AF"/>
<path d="M27.8857 29.635C27.8857 29.635 24.8738 31.0415 24.0688 32.4479" stroke="#A59B83" stroke-width="2" stroke-miterlimit="10" stroke-linecap="round" stroke-linejoin="round"/>
<path d="M63.9814 61.4555C63.9814 61.4555 68.2917 58.0757 69.1052 55.332L63.9814 61.4555Z" fill="#E1D3AF"/>
<path d="M63.9814 61.4555C63.9814 61.4555 68.2917 58.0757 69.1052 55.332" stroke="#A59B83" stroke-width="2" stroke-miterlimit="10" stroke-linecap="round" stroke-linejoin="round"/>
<path d="M64.0332 57.885C64.0332 57.885 66.6643 55.851 67.1404 54.3018L64.0332 57.885Z" fill="#E1D3AF"/>
<path d="M64.0332 57.885C64.0332 57.885 66.6643 55.851 67.1404 54.3018" stroke="#A59B83" stroke-width="2" stroke-miterlimit="10" stroke-linecap="round" stroke-linejoin="round"/>
<path d="M70.429 51.3203L69.7886 53.3975" stroke="#A59B83" stroke-width="2" stroke-miterlimit="10" stroke-linecap="round" stroke-linejoin="round"/>
</svg>
