<svg width="80" height="80" viewBox="0 0 80 80" fill="none" xmlns="http://www.w3.org/2000/svg">
<path d="M48.2134 44.7234C48.0447 44.4422 47.6206 44.5417 47.5859 44.8663L47.1835 49.1072C46.8935 52.1711 44.3663 54.5859 41.2894 54.6205C41.2591 54.6205 41.2288 54.6205 41.1985 54.6205C38.1692 54.6205 37.1739 48.6052 37.1739 48.6052C37.1739 48.6052 36.4382 46.3982 36.0055 48.562C34.6639 54.2873 28.9905 56.5852 24.2605 57.4983C23.8451 61.7134 23.395 66.0495 23.157 68.3431C22.9839 70.0006 23.447 71.6667 24.5029 72.9563C25.3727 74.0165 26.6926 75.0292 28.6573 75.3321C32.5088 75.925 46.0194 75.6264 50.3642 75.5095C51.5889 75.4792 52.792 75.1374 53.8133 74.4666C55.0812 73.6314 56.4141 71.7835 56.1978 69.6457C55.9338 67.0016 55.4318 58.0782 55.0683 51.2061C52.2424 50.9508 49.3689 46.6449 48.2178 44.7191L48.2134 44.7234Z" fill="#FAF4E5" stroke="#B7AE9A" stroke-width="2" stroke-miterlimit="10"/>
<path d="M56.4614 40.7768L67.6048 29.3347C68.6001 28.3135 69.9113 27.4826 69.7599 26.0631C69.3401 22.1164 66.934 13.5436 60.962 9.35018C59.6205 8.40678 57.8159 8.47169 56.5436 9.50165C52.7657 12.5569 45.5517 18.2952 44.9718 18.5851C44.4351 18.8535 40.8649 10.22 39.1512 5.97903C38.5973 4.6072 37.1735 3.80661 35.7108 4.04029C30.5264 4.86253 18.5435 7.31191 11.191 13.1887C9.97065 14.1624 9.64174 15.8804 10.4207 17.235C14.2549 23.8777 25.4026 43.6243 25.1084 48.034C24.9742 50.0636 24.6323 53.7377 24.2602 57.5113C28.9902 56.5982 34.6636 54.3003 36.0051 48.575C36.4378 46.4112 37.1735 48.6183 37.1735 48.6183C37.1735 48.6183 38.1689 54.6335 41.1981 54.6335C44.2274 54.6335 46.8239 52.9025 46.8239 52.9025L47.5899 44.8793C47.6202 44.5547 48.0486 44.4552 48.2174 44.7365C49.3685 46.6622 52.242 50.9724 55.0679 51.2234C54.9467 48.9082 54.8385 46.8267 54.7606 45.299C54.6741 43.6243 55.2929 41.9885 56.4614 40.7897V40.7768Z" fill="#82AE83" stroke="#70A070" stroke-width="2" stroke-miterlimit="10"/>
<path d="M10.6592 13.8681C10.9145 14.5865 17.0769 13.0502 24.4251 10.4407C31.7732 7.83117 37.5202 5.13512 37.2649 4.41675" fill="#82AE83"/>
<path d="M10.6592 13.8681C10.9145 14.5865 17.0769 13.0502 24.4251 10.4407C31.7732 7.83117 37.5202 5.13512 37.2649 4.41675" stroke="#70A070" stroke-width="2" stroke-miterlimit="10"/>
<path d="M59.5387 8.48889C58.9458 8.83077 61.5034 15.8284 64.0437 20.2295C66.5839 24.6306 69.1718 26.4006 69.7603 26.0587" stroke="#70A070" stroke-width="2" stroke-miterlimit="10"/>
<path d="M14.3677 16.9709L18.6952 25.1933" stroke="#70A070" stroke-width="2" stroke-linecap="round" stroke-linejoin="round"/>
<path d="M16.9644 15.6726L19.3445 20.2165" stroke="#70A070" stroke-width="2" stroke-linecap="round" stroke-linejoin="round"/>
<path d="M52.6187 60.1687L52.8307 67.0928" stroke="#B7AE9A" stroke-width="2" stroke-miterlimit="10" stroke-linecap="round"/>
<path d="M52.2422 54.8369L52.398 57.005" stroke="#B7AE9A" stroke-width="2" stroke-miterlimit="10" stroke-linecap="round"/>
<path d="M49.498 61.3154L49.6192 64.9506" stroke="#B7AE9A" stroke-width="2" stroke-miterlimit="10" stroke-linecap="round"/>
</svg>
