<svg width="80" height="80" viewBox="0 0 80 80" fill="none" xmlns="http://www.w3.org/2000/svg">
<path d="M30.9004 46.5064C30.7922 46.5454 30.7836 48.6788 30.7793 48.8217C30.762 50.4575 30.5975 52.0933 30.3032 53.7031C29.8921 55.9578 29.2214 58.1691 28.2736 60.255C26.9407 63.1761 24.4438 65.0889 24.3572 68.4773C24.3312 69.438 24.5952 70.2689 25.2487 70.9873C28.7843 74.8864 35.2063 75.1374 40.0878 74.9124C45.2592 74.6744 50.9932 73.3112 54.3254 69.014C55.0351 68.0965 55.602 67.0752 56.0175 65.9933C57.4758 62.1505 56.1257 57.8402 55.5155 53.9671C55.1952 51.9332 54.849 49.8992 54.4898 47.8696C54.4422 47.6056 54.2778 45.3986 54.0225 45.2904C54.0225 45.2904 43.0435 41.9928 30.9004 46.5021V46.5064Z" fill="#F3EBD3" stroke="#B7AE9A" stroke-width="2" stroke-miterlimit="10"/>
<path d="M32.5366 6.09578C32.5366 6.09578 14.8023 15.915 7.17288 29.7977C6.52375 30.9791 6.14293 32.2904 6.06503 33.6362C5.80538 37.9551 5.83566 47.1165 16.0227 48.9644C16.5982 49.0682 17.1868 49.1072 17.7753 49.0985C22.276 49.0336 25.2663 48.458 26.6425 48.1292C27.1055 48.0166 27.5599 47.8652 28.0013 47.6791C30.7796 46.5063 44.9393 41.1099 58.7485 46.5756C59.1812 46.7443 59.6226 46.8958 60.0727 46.9997C61.9811 47.4497 63.9675 48.1421 65.9538 48.0383C69.7231 47.8435 72.4148 44.5762 73.7823 41.3392C75.4311 37.4315 75.3705 32.9265 74.1026 28.9192C72.8779 25.0504 69.9352 22.2505 67.0097 19.5847C64.7724 17.5464 62.4225 15.638 60.0467 13.7642C59.865 13.6214 59.6702 13.4829 59.4798 13.3531C49.2495 6.50257 43.0222 0.764254 32.5409 6.09145L32.5366 6.09578Z" fill="#9B8B75" stroke="#82705E" stroke-width="2" stroke-miterlimit="10"/>
<path d="M49.124 70.0136C49.124 70.0136 53.4342 66.6338 54.2478 63.8901L49.124 70.0136Z" fill="#F3EBD3"/>
<path d="M49.124 70.0136C49.124 70.0136 53.4342 66.6338 54.2478 63.8901" stroke="#B7AE9A" stroke-width="2" stroke-miterlimit="10" stroke-linecap="round"/>
<path d="M14.0537 26.0759C14.0537 26.0759 9.80836 30.0226 9.19385 32.987L14.0537 26.0759Z" fill="#9B8B75"/>
<path d="M14.0537 26.0759C14.0537 26.0759 9.80836 30.0226 9.19385 32.987" stroke="#82705E" stroke-width="2" stroke-miterlimit="10" stroke-linecap="round"/>
<path d="M15.3825 28.9841C15.3825 28.9841 12.9331 31.2301 12.5869 32.814L15.3825 28.9841Z" fill="#9B8B75"/>
<path d="M15.3825 28.9841C15.3825 28.9841 12.9331 31.2301 12.5869 32.814" stroke="#82705E" stroke-width="2" stroke-miterlimit="10" stroke-linecap="round"/>
<path d="M47.7432 67.4431C47.7432 67.4431 50.3743 65.4091 50.8503 63.8599L47.7432 67.4431Z" fill="#F3EBD3"/>
<path d="M47.7432 67.4431C47.7432 67.4431 50.3743 65.4091 50.8503 63.8599" stroke="#B7AE9A" stroke-width="2" stroke-miterlimit="10" stroke-linecap="round"/>
<path d="M18.9611 20.8914L16.291 23.7519" stroke="#82705E" stroke-width="2" stroke-miterlimit="10" stroke-linecap="round"/>
</svg>
