<svg width="80" height="80" viewBox="0 0 80 80" fill="none" xmlns="http://www.w3.org/2000/svg">
<g clip-path="url(#clip0_1177_2660)">
<path d="M67.3968 60.7392C76.4898 50.134 78.3174 36.7836 71.4789 30.9202C64.6403 25.0568 51.7253 28.9008 42.6323 39.506C33.5393 50.1113 31.7117 63.4617 38.5502 69.3251C45.3887 75.1885 58.3038 71.3445 67.3968 60.7392Z" fill="#F9F4E8" stroke="#B7AE9A" stroke-width="2" stroke-miterlimit="10"/>
<path d="M34.4292 59.8346C36.554 66.2783 43.1059 69.6754 49.6405 68.7363C55.5562 67.8838 60.6497 64.1535 64.6224 59.8735C68.5908 55.6022 71.7888 50.5347 74.0694 45.1729C74.658 43.7881 75.1816 42.3686 75.6144 40.9232" fill="#F9F4E8"/>
<path d="M34.4292 59.8346C36.554 66.2783 43.1059 69.6754 49.6405 68.7363C55.5562 67.8838 60.6497 64.1535 64.6224 59.8735C68.5908 55.6022 71.7888 50.5347 74.0694 45.1729C74.658 43.7881 75.1816 42.3686 75.6144 40.9232" stroke="#B7AE9A" stroke-width="2" stroke-miterlimit="10"/>
<path d="M47.0802 43.8535C53.3072 27.6654 49.8922 11.2869 39.4526 7.27118C29.013 3.25542 15.502 13.1231 9.27499 29.3112C3.04798 45.4993 6.46299 61.8778 16.9026 65.8935C27.3422 69.9093 40.8532 60.0416 47.0802 43.8535Z" fill="#F9F4E8" stroke="#B7AE9A" stroke-width="2" stroke-miterlimit="10"/>
<path d="M8.13477 56.5024C13.2975 63.1538 22.381 64.4088 29.634 60.5919C36.2032 57.1342 40.6043 50.6559 43.4778 43.9915C46.3426 37.3444 47.9741 30.0828 48.4155 22.8644C48.528 20.9949 48.5496 19.1211 48.4544 17.2516" fill="#F9F4E8"/>
<path d="M8.13477 56.5024C13.2975 63.1538 22.381 64.4088 29.634 60.5919C36.2032 57.1342 40.6043 50.6559 43.4778 43.9915C46.3426 37.3444 47.9741 30.0828 48.4155 22.8644C48.528 20.9949 48.5496 19.1211 48.4544 17.2516" stroke="#B7AE9A" stroke-width="2" stroke-miterlimit="10"/>
</g>
<defs>
<clipPath id="clip0_1177_2660">
<rect width="80" height="80" fill="white"/>
</clipPath>
</defs>
</svg>
