<svg width="80" height="80" viewBox="0 0 80 80" fill="none" xmlns="http://www.w3.org/2000/svg">
<path d="M28.9158 58.6387L33.4294 61.3261L36.2077 64.2255C36.6448 64.6842 37.1468 65.0781 37.692 65.4026L41.2709 67.5145L43.24 69.6696C43.7895 70.2711 44.443 70.7731 45.1657 71.1496L47.3122 72.2661L50.0775 74.8713C50.8781 75.5031 51.7825 75.1526 52.4143 74.352L55.6167 71.2578C55.8893 70.9938 56.1274 70.7039 56.3308 70.3879L59.9875 64.7275L63.5318 61.2006C63.8217 60.915 64.0727 60.5904 64.2804 60.2442L66.7645 56.1157L69.1186 54.0169C69.4778 53.6966 69.7894 53.3245 70.0404 52.9134L72.7148 48.5512L77.2674 43.8645C77.8992 43.0639 77.7001 41.4151 76.8995 40.7833L75.1166 39.0436C74.779 38.7147 74.3896 38.4421 73.9611 38.243L71.8709 37.2563L70.075 35.1878C69.6985 34.755 69.2441 34.3958 68.7378 34.1275L66.1716 32.773L63.5058 29.9428C63.1856 29.6052 62.8221 29.3153 62.4153 29.0859L59.0917 27.2035L56.0668 23.9578C55.2662 23.326 53.8814 23.7328 53.2539 24.5334L51.2589 27.6189L48.3724 30.3972C47.931 30.8213 47.5545 31.306 47.2516 31.8382L45.4773 34.9671L42.7596 37.5463C42.3009 37.9833 41.9114 38.481 41.5998 39.0349L39.8948 42.0642L37.3934 44.3794C36.9434 44.7949 36.5539 45.2796 36.2423 45.8075L34.1132 49.4124L31.3739 51.9829C31.006 52.3291 30.6771 52.7186 30.4002 53.1427L28.7211 55.7176C28.0892 56.5182 28.02 57.9593 28.9072 58.6387H28.9158Z" fill="#67757E" stroke="#526068" stroke-width="2" stroke-miterlimit="10" stroke-linejoin="round"/>
<path d="M58.2092 30.99L58.5381 31.6868C58.6852 32.0027 58.4818 32.3705 58.1356 32.4095L57.0494 32.5393C56.7897 32.5696 56.6253 32.2753 56.7854 32.0676L57.6812 30.9251C57.824 30.7434 58.1096 30.7737 58.2048 30.9857L58.2092 30.99Z" fill="#6F7B82" stroke="#526068" stroke-miterlimit="10" stroke-linejoin="round"/>
<path d="M55.6601 32.5263L55.3875 33.7856C55.3745 33.8375 55.3486 33.8895 55.3096 33.9284L53.9161 35.2786C53.769 35.4171 53.531 35.3652 53.4617 35.1747L52.7304 33.1711C52.6611 32.9807 52.8126 32.7816 53.016 32.7989L53.8988 32.8682C54.046 32.8811 54.1758 32.7773 54.1974 32.6302C54.2667 32.1152 54.535 31.1198 55.5952 32.284C55.6558 32.3489 55.6818 32.4441 55.6601 32.5306V32.5263Z" fill="#6F7B82" stroke="#526068" stroke-linecap="round" stroke-linejoin="round"/>
<path d="M57.6554 61.0102L56.6947 61.9709L54.0029 62.3517L55.1584 60.8154C55.1584 60.8154 56.1191 61.7761 57.6554 61.0102Z" fill="#6F7B82" stroke="#526068" stroke-linecap="round" stroke-linejoin="round"/>
<path d="M53.8684 68.7824L52.5356 68.1939C52.3971 68.1333 52.2413 68.1809 52.1591 68.3064C51.7869 68.8949 50.8132 70.5264 51.0209 71.1929C51.2763 72.0108 53.9161 68.9339 53.9161 68.9339L53.8684 68.7824Z" fill="#6F7B82" stroke="#526068" stroke-linecap="round" stroke-linejoin="round"/>
<path d="M55.3398 66.9649L54.7642 67.7309L52.8428 66.7701L54.1886 65.619L55.3398 66.9649Z" fill="#6F7B82" stroke="#526068" stroke-linecap="round" stroke-linejoin="round"/>
<path d="M34.1826 55.2113L32.8497 57.4616C32.7026 57.7083 32.9276 58.0069 33.2046 57.9376L34.5894 57.5828C34.8404 57.5178 34.9918 57.2625 34.9313 57.0072L34.8447 55.5834L34.598 55.2026C34.4985 55.0512 34.2778 55.0555 34.1869 55.2113H34.1826Z" fill="#6F7B82" stroke="#526068" stroke-width="2" stroke-linecap="round" stroke-linejoin="round"/>
<path d="M33.1916 69.2411L27.648 65.4848L22.8012 63.8447C22.0352 63.585 21.3082 63.2215 20.6418 62.7671L16.2709 59.7811L12.718 58.6776C11.7227 58.3703 10.7923 57.8856 9.96573 57.2538L7.51635 55.38L3.01571 53.6014C1.85593 53.0172 1.76937 51.7838 2.35359 50.624L4.19279 45.2579C4.34858 44.8035 4.55631 44.3664 4.81164 43.9596L9.3642 36.6764L11.515 30.6784C11.6881 30.1894 11.9261 29.7264 12.2117 29.2979L15.6348 24.2001L16.7859 20.3486C16.9634 19.76 17.223 19.2018 17.5606 18.6868L21.1438 13.2428L24.0908 5.45753C24.675 4.29775 26.683 3.63131 27.8471 4.21553L30.8158 5.33203C31.3784 5.54408 31.902 5.84701 32.3651 6.23216L34.6327 8.11031L37.9909 9.06237C38.6962 9.26143 39.354 9.59033 39.9382 10.0317L42.8853 12.2604L47.5893 13.8053C48.1519 13.9914 48.6799 14.2554 49.1646 14.5973L53.1329 17.4102L58.512 19.1455C59.6718 19.7297 59.9531 21.543 59.3689 22.7071L56.8849 26.6798L55.2404 31.5136C54.9894 32.2493 54.6346 32.9504 54.1845 33.5822L51.5317 37.3212L50.0257 41.8521C49.7704 42.6181 49.4026 43.3408 48.9352 43.9942L46.3646 47.5948L45.0447 51.7362C44.8067 52.4805 44.4605 53.1903 44.0191 53.8351L41.0115 58.2362L39.5271 62.7887C39.3281 63.4032 39.0554 63.9875 38.7136 64.5371L36.6493 67.8693C36.0651 69.029 34.4423 69.8902 33.1786 69.2368L33.1916 69.2411Z" fill="#67757E" stroke="#526068" stroke-width="2" stroke-miterlimit="10" stroke-linejoin="round"/>
<path d="M49.2513 20.5001H48.2689C47.8275 20.5001 47.5116 20.9329 47.6501 21.3526L48.0872 22.6769C48.1911 22.9928 48.6238 23.0231 48.7709 22.7288L49.6018 21.0757C49.736 20.8117 49.5412 20.5044 49.247 20.5001H49.2513Z" fill="#6F7B82" stroke="#526068" stroke-miterlimit="10" stroke-linejoin="round"/>
<path d="M14.9162 37.3688L14.3276 38.9959L15.3446 42.3065L16.4914 40.1427C16.4914 40.1427 14.8643 39.5542 14.9162 37.3688Z" fill="#6F7B82" stroke="#526068" stroke-linecap="round" stroke-linejoin="round"/>
<path d="M7.99259 45.9417L9.39038 47.162C9.53319 47.2875 9.56781 47.4952 9.46395 47.6554C8.98792 48.404 7.63339 50.4077 6.75058 50.5288C5.66436 50.676 7.7892 45.9676 7.7892 45.9676L7.99259 45.9417Z" fill="#6F7B82" stroke="#526068" stroke-linecap="round" stroke-linejoin="round"/>
<path d="M9.2992 43.2585L8.72363 44.3404L10.8744 46.0325L11.476 43.8601L9.2992 43.2585Z" fill="#6F7B82" stroke="#526068" stroke-linecap="round" stroke-linejoin="round"/>
<path d="M34.2995 61.3174L32.4257 64.074C32.2223 64.3769 31.7549 64.2774 31.6857 63.9225L31.3438 62.1309C31.2832 61.8064 31.4953 61.4905 31.8199 61.4299L33.5119 60.7634L34.0831 60.8413C34.3125 60.8716 34.425 61.1313 34.2995 61.3217V61.3174Z" fill="#6F7B82" stroke="#526068" stroke-linecap="round" stroke-linejoin="round"/>
</svg>
