<svg width="80" height="80" viewBox="0 0 80 80" fill="none" xmlns="http://www.w3.org/2000/svg">
<path d="M73.6801 42.9915C73.4031 42.2125 73.0526 41.4206 72.8102 40.6027C72.6588 40.0877 72.5506 39.5641 72.5333 39.0274C72.5506 38.4908 72.6588 37.9672 72.8102 37.4522C73.0526 36.6387 73.4031 35.8424 73.6801 35.0634C74.1085 33.8647 74.4893 32.6487 74.8052 31.4067C75.4067 29.0352 76.0948 26.1227 75.0303 23.7902C74.7966 23.2752 74.4633 22.8338 74.0392 22.5136C70.0752 19.5362 62.4761 25.8414 62.4761 25.8414C63.2118 29.3467 63.5493 34.2499 63.6791 39.0231C63.5493 43.7964 63.2118 48.6995 62.4761 52.2048C62.4761 52.2048 70.0752 58.51 74.0392 55.5327C74.4633 55.2168 74.7966 54.771 75.0303 54.2561C76.0948 51.9235 75.4067 49.0111 74.8052 46.6396C74.4893 45.3976 74.1042 44.1772 73.6801 42.9828V42.9915Z" fill="#CFB48B" stroke="#937A5F" stroke-width="2" stroke-linecap="round" stroke-linejoin="round"/>
<path d="M62.6019 24.8027C59.3433 16.8963 51.8221 12.4822 43.9027 12.1057C32.6554 11.5735 19.8545 12.4563 10.2388 29.1C7.38258 34.042 5.71215 36.2447 6.04104 42.0177C6.51274 50.3309 10.3902 57.6531 16.9854 62.184C26.0429 68.4027 37.3161 69.4326 47.6373 66.5418C53.1246 65.0056 59.4905 62.5691 62.6149 57.1424C63.2251 56.0822 63.6103 54.8965 63.6709 53.6501C64.7787 30.1126 62.6063 24.8201 62.5976 24.8027H62.6019Z" fill="#CFB48B" stroke="#937A5F" stroke-width="2" stroke-linecap="round" stroke-linejoin="round"/>
<path d="M65.3931 33.5359L69.66 29.6541" stroke="#937A5F" stroke-width="2" stroke-linecap="round" stroke-linejoin="round"/>
<path d="M65.9209 43.2122L70.599 46.5876" stroke="#937A5F" stroke-width="2" stroke-linecap="round" stroke-linejoin="round"/>
<path d="M32.5646 21.7864C32.5646 21.7864 42.5525 40.9704 31.8462 58.8431L32.5646 21.7864Z" fill="#CFB48B"/>
<path d="M32.5646 21.7864C32.5646 21.7864 42.5525 40.9704 31.8462 58.8431" stroke="#937A5F" stroke-width="2" stroke-linecap="round" stroke-linejoin="round"/>
<path d="M42.0459 29.1692C43.1754 27.1049 45.1098 25.7807 47.2433 25.8802C50.4889 26.0317 52.9643 29.4245 52.7739 33.4578C52.5835 37.491 49.8008 40.6328 46.5552 40.4814" fill="#CFB48B"/>
<path d="M42.0459 29.1692C43.1754 27.1049 45.1098 25.7807 47.2433 25.8802C50.4889 26.0317 52.9643 29.4245 52.7739 33.4578C52.5835 37.491 49.8008 40.6328 46.5552 40.4814" stroke="#937A5F" stroke-width="2" stroke-linecap="round" stroke-linejoin="round"/>
<path d="M41.8081 52.7326C42.8078 54.1088 44.2445 55.0003 45.8717 55.0782C49.1173 55.2296 51.8999 52.0878 52.0903 48.0546C52.2807 44.0213 49.8011 40.6328 46.5597 40.4771" fill="#CFB48B"/>
<path d="M41.8081 52.7326C42.8078 54.1088 44.2445 55.0003 45.8717 55.0782C49.1173 55.2296 51.8999 52.0878 52.0903 48.0546C52.2807 44.0213 49.8011 40.6328 46.5597 40.4771" stroke="#937A5F" stroke-width="2" stroke-linecap="round" stroke-linejoin="round"/>
<path d="M20.6897 38.5471L20.3608 45.5188" stroke="#937A5F" stroke-width="2" stroke-linecap="round" stroke-linejoin="round"/>
</svg>
