<svg width="80" height="80" viewBox="0 0 80 80" fill="none" xmlns="http://www.w3.org/2000/svg">
<path d="M4.19051 31.0129L4.00011 57.1036C3.98712 58.8649 5.16853 60.4098 6.86925 60.8642L46.5658 70.2723C47.7731 70.5925 49.7076 70.3286 50.6683 69.5323L73.5523 50.5734C74.4048 49.8636 74.9155 48.825 74.9457 47.7172L74.6991 21.687C74.751 19.8738 73.535 18.2683 71.7737 17.8269L30.675 10.1152C29.4677 9.81228 28.1867 10.1152 27.239 10.9245L5.54071 28.1091C4.68818 28.8361 4.19051 29.8964 4.18186 31.0215L4.19051 31.0129Z" fill="#F9F4E8" stroke="#B7AE9A" stroke-width="2" stroke-miterlimit="10" stroke-linecap="round"/>
<path d="M4.49756 29.5372L48.6644 39.3044L73.6689 19.8824" fill="#F9F4E8"/>
<path d="M4.49756 29.5372L48.6644 39.3044L73.6689 19.8824" stroke="#B7AE9A" stroke-width="2" stroke-miterlimit="10" stroke-linecap="round"/>
<path d="M48.5952 39.3044L49.1751 69.714" stroke="#B7AE9A" stroke-width="2" stroke-miterlimit="10" stroke-linecap="round"/>
<path d="M34.189 27.7628L39.1829 21.9163C39.1829 21.9163 45.3843 19.0472 42.2728 17.0305C39.1613 15.0139 39.0834 22.0418 39.0834 22.0418" fill="#82AE83"/>
<path d="M34.189 27.7628L39.1829 21.9163C39.1829 21.9163 45.3843 19.0472 42.2728 17.0305C39.1613 15.0139 39.0834 22.0418 39.0834 22.0418" stroke="#70A070" stroke-width="2" stroke-miterlimit="10" stroke-linecap="round"/>
<path d="M36.0368 24.8244C36.0368 24.8244 36.9932 19.3285 34.9506 20.3844C32.908 21.4403 36.158 25.0149 36.158 25.0149" fill="#82AE83"/>
<path d="M36.0368 24.8244C36.0368 24.8244 36.9932 19.3285 34.9506 20.3844C32.908 21.4403 36.158 25.0149 36.158 25.0149" stroke="#70A070" stroke-width="2" stroke-miterlimit="10" stroke-linecap="round"/>
<path d="M37.7549 23.7859C37.7549 23.7859 44.4193 21.5182 43.1124 23.5089C41.8054 25.4996 37.7549 23.7859 37.7549 23.7859Z" fill="#82AE83" stroke="#70A070" stroke-width="2" stroke-miterlimit="10" stroke-linecap="round"/>
<path d="M7.46653 52.5249C7.18957 52.5249 6.93424 52.3908 6.77412 52.1657C6.614 51.9407 6.57074 51.6507 6.66162 51.3911L7.12467 50.0452C7.18092 49.8851 7.28045 49.7466 7.4146 49.6428L8.16759 49.0715C8.31473 48.959 8.50082 48.8984 8.6869 48.8984C8.77345 48.8984 8.85567 48.9114 8.93789 48.9374C9.60433 49.1408 9.97217 49.4783 10.0328 49.9327C10.0674 50.1837 10.0155 50.5299 9.63896 50.8804L9.76878 51.1141C9.91159 51.3651 9.92025 51.6724 9.78177 51.932C9.64761 52.1917 9.39229 52.3605 9.10234 52.3864L7.54011 52.5249C7.54011 52.5249 7.48385 52.5249 7.46221 52.5249H7.46653Z" fill="#F9F4E8"/>
<path d="M8.68683 49.5434C8.68683 49.5434 8.72579 49.5434 8.74742 49.552C9.85527 49.8939 9.27537 50.3829 8.95514 50.5906C8.86426 50.6512 8.83397 50.7681 8.89023 50.8633L9.21046 51.4302C9.28403 51.56 9.19748 51.7201 9.05034 51.7374L7.48811 51.8759C7.48811 51.8759 7.47512 51.8759 7.4708 51.8759C7.33231 51.8759 7.23278 51.7374 7.27605 51.6033L7.7391 50.2574C7.75208 50.2185 7.77805 50.1839 7.80834 50.1622L8.56133 49.5867C8.59595 49.5607 8.64356 49.5434 8.68683 49.5434ZM8.68683 48.2451C8.35794 48.2451 8.03338 48.3533 7.77373 48.5524L7.02073 49.1279C6.78271 49.3097 6.60529 49.552 6.51008 49.8376L6.04703 51.1835C5.89124 51.6422 5.96481 52.1486 6.24609 52.5424C6.52738 52.9362 6.98611 53.1699 7.46646 53.1699C7.50541 53.1699 7.56167 53.1699 7.60062 53.1655L9.16286 53.027C9.67351 52.9794 10.1236 52.6808 10.3616 52.2264C10.5693 51.8283 10.5909 51.3609 10.4178 50.9542C10.6991 50.5171 10.7121 50.1016 10.6775 49.842C10.6083 49.34 10.2837 48.6692 9.12824 48.3144C8.98543 48.2711 8.8383 48.2494 8.68683 48.2494V48.2451Z" fill="#B7AE9A"/>
<path d="M53.303 47.0545C53.303 47.0545 53.336 47.0545 53.3543 47.0615C54.2923 47.3392 53.8013 47.7364 53.5302 47.9051C53.4532 47.9543 53.4276 48.0492 53.4752 48.1265L53.7463 48.587C53.8086 48.6924 53.7353 48.8225 53.6108 48.8366L52.2881 48.949C52.2881 48.949 52.2771 48.949 52.2734 48.949C52.1561 48.949 52.0719 48.8366 52.1085 48.7276L52.5006 47.6344C52.5116 47.6028 52.5335 47.5747 52.5592 47.5571L53.1967 47.0896C53.226 47.0685 53.2663 47.0545 53.303 47.0545ZM53.303 46C53.0245 46 52.7497 46.0879 52.5299 46.2496L51.8923 46.7171C51.6908 46.8647 51.5406 47.0615 51.46 47.2935L51.0679 48.3866C50.936 48.7592 50.9983 49.1705 51.2365 49.4903C51.4746 49.8102 51.863 50 52.2697 50C52.3027 50 52.3503 50 52.3833 49.9965L53.706 49.884C54.1384 49.8453 54.5194 49.6028 54.721 49.2337C54.8968 48.9104 54.9152 48.5308 54.7686 48.2004C55.0068 47.8453 55.0178 47.5079 54.9884 47.297C54.9298 46.8893 54.655 46.3445 53.6767 46.0562C53.5558 46.0211 53.4312 46.0035 53.303 46.0035V46Z" fill="#B7AE9A"/>
<path d="M64.8625 19.9127C64.6418 19.8045 64.3779 19.8391 64.1961 20.0035C63.3825 20.7479 61.2793 22.7602 62.3353 22.7602C63.1575 22.7602 64.8496 22.0634 65.9791 21.5571C66.4378 21.3494 66.4464 20.7046 66.0007 20.4796L64.8669 19.9127H64.8625Z" fill="#F9F4E8" stroke="#B7AE9A" stroke-linejoin="round"/>
<mask id="path-14-outside-1_1177_2666" maskUnits="userSpaceOnUse" x="51" y="42" width="6" height="3" fill="black">
<rect fill="white" x="51" y="42" width="6" height="3"/>
<path d="M52.2382 43.9006L52.0273 43.622C51.9603 43.5353 52.0206 43.43 52.1645 43.3887L53.4535 43.0172C53.5204 42.9966 53.6008 42.9945 53.6711 43.011L54.8127 43.2649C55.0303 43.3124 55.0672 43.4919 54.8763 43.5724L54.0795 43.9109C54.036 43.9295 53.9891 43.9398 53.9389 43.9419L52.5228 43.9997C52.4056 44.0038 52.2951 43.9646 52.2482 43.8986L52.2382 43.9006Z"/>
</mask>
<path d="M52.2382 43.9006L52.0273 43.622C51.9603 43.5353 52.0206 43.43 52.1645 43.3887L53.4535 43.0172C53.5204 42.9966 53.6008 42.9945 53.6711 43.011L54.8127 43.2649C55.0303 43.3124 55.0672 43.4919 54.8763 43.5724L54.0795 43.9109C54.036 43.9295 53.9891 43.9398 53.9389 43.9419L52.5228 43.9997C52.4056 44.0038 52.2951 43.9646 52.2482 43.8986L52.2382 43.9006Z" fill="#F9F4E8"/>
<path d="M52.2382 43.9006L52.4389 44.8803C52.0615 44.9576 51.6733 44.8113 51.4408 44.5041L52.2382 43.9006ZM52.0273 43.622L52.8187 43.0107L52.8246 43.0185L52.0273 43.622ZM52.1645 43.3887L52.4415 44.3496L52.4402 44.35L52.1645 43.3887ZM53.4535 43.0172L53.7481 43.9728C53.7422 43.9746 53.7363 43.9764 53.7305 43.9781L53.4535 43.0172ZM53.6711 43.011L53.454 43.9872L53.4425 43.9845L53.6711 43.011ZM54.8127 43.2649L54.5996 44.2419L54.5956 44.241L54.8127 43.2649ZM54.8763 43.5724L54.4853 42.6521L54.4877 42.6511L54.8763 43.5724ZM54.0795 43.9109L53.687 42.9912L53.6885 42.9906L54.0795 43.9109ZM53.9389 43.9419L53.98 44.9411L53.9797 44.9411L53.9389 43.9419ZM52.5228 43.9997L52.5635 44.9989L52.558 44.9991L52.5228 43.9997ZM52.2482 43.8986L52.0475 42.9189C52.4358 42.8394 52.8344 42.9966 53.0638 43.3199L52.2482 43.8986ZM51.4408 44.5041L51.2299 44.2255L52.8246 43.0185L53.0355 43.2971L51.4408 44.5041ZM51.2359 44.2332C50.9554 43.8701 50.9215 43.3812 51.1531 42.9843C51.3479 42.6506 51.6585 42.4935 51.8889 42.4275L52.4402 44.35C52.5266 44.3252 52.7351 44.2415 52.8805 43.9923C52.958 43.8596 53.0112 43.6853 52.998 43.4881C52.9848 43.2904 52.9088 43.1273 52.8187 43.0107L51.2359 44.2332ZM51.8876 42.4279L53.1765 42.0563L53.7305 43.9781L52.4415 44.3496L51.8876 42.4279ZM53.1589 42.0616C53.404 41.986 53.6653 41.9824 53.8997 42.0375L53.4425 43.9845C53.4964 43.9972 53.5452 44.001 53.5887 43.9998C53.6318 43.9986 53.6857 43.992 53.7481 43.9728L53.1589 42.0616ZM53.8882 42.0349L55.0298 42.2887L54.5956 44.241L53.454 43.9872L53.8882 42.0349ZM55.0259 42.2879C55.321 42.3523 55.8503 42.5895 55.9771 43.2043C56.1249 43.9214 55.5944 44.3549 55.265 44.4938L54.4877 42.6511C54.3491 42.7095 53.8956 43.013 54.0183 43.6082C54.12 44.1013 54.522 44.225 54.5996 44.2419L55.0259 42.2879ZM55.2673 44.4928L54.4705 44.8313L53.6885 42.9906L54.4853 42.6521L55.2673 44.4928ZM54.4721 44.8307C54.3104 44.8997 54.1436 44.9343 53.98 44.9411L53.8979 42.9428C53.8347 42.9454 53.7616 42.9594 53.687 42.9912L54.4721 44.8307ZM53.9797 44.9411L52.5635 44.9989L52.482 43.0005L53.8982 42.9427L53.9797 44.9411ZM52.558 44.9991C52.3827 45.0053 52.1963 44.9805 52.0166 44.915C51.8483 44.8536 51.6105 44.7278 51.4327 44.4773L53.0638 43.3199C52.9328 43.1353 52.7738 43.0622 52.7017 43.0359C52.6182 43.0055 52.5457 42.9983 52.4876 43.0003L52.558 44.9991ZM52.449 44.8782L52.4389 44.8803L52.0375 42.921L52.0475 42.9189L52.449 44.8782Z" fill="#B7AE9A" mask="url(#path-14-outside-1_1177_2666)"/>
<path d="M9.63015 58.7047C9.44839 58.7047 9.26232 58.6615 9.08056 58.5749L7.21106 57.7008C6.66579 57.4454 6.40614 56.9131 6.61386 56.4717L6.77397 56.1299C6.90813 55.8442 7.19808 55.6711 7.55294 55.6711C7.64382 55.6711 7.74335 55.6841 7.83856 55.7058L9.74267 56.1688C9.86817 56.1991 9.99799 56.251 10.1148 56.3203L11.3222 57.017C11.742 57.2593 11.954 57.6661 11.8588 58.0513C11.7723 58.3975 11.465 58.6355 11.0755 58.6485C11.0755 58.6485 9.64314 58.7047 9.63448 58.7047H9.63015Z" fill="#F9F4E8"/>
<path d="M7.55719 56.3158C7.59614 56.3158 7.64374 56.3202 7.68701 56.3332L9.59113 56.7962C9.66037 56.8135 9.72961 56.8395 9.79452 56.8784L11.0019 57.5752C11.2875 57.7396 11.3178 57.9863 11.0495 57.9993L9.64739 58.0555C9.64739 58.0555 9.6344 58.0555 9.63007 58.0555C9.54785 58.0555 9.44832 58.0296 9.35744 57.9863L7.48795 57.1121C7.28023 57.0169 7.15472 56.8524 7.20665 56.7443L7.36678 56.4024C7.39275 56.3461 7.46199 56.3158 7.55719 56.3158ZM7.55719 55.0176C6.95567 55.0176 6.43203 55.3378 6.18969 55.8528L6.02956 56.1947C5.66605 56.9736 6.05553 57.8738 6.93835 58.2892L8.80784 59.1634C9.07182 59.2889 9.35744 59.3538 9.63007 59.3538C9.64738 59.3538 9.68201 59.3538 9.69932 59.3538L11.1014 59.2975C11.7765 59.2716 12.3348 58.8301 12.4906 58.207C12.655 57.5319 12.3261 56.8481 11.651 56.4543L10.4437 55.7576C10.2706 55.658 10.0888 55.5845 9.89838 55.5369L7.99427 55.0738C7.84713 55.0392 7.7 55.0219 7.55719 55.0219V55.0176Z" fill="#B7AE9A"/>
<path d="M56.8523 18.4326L56.6014 19.0255C56.5235 19.2116 56.61 19.428 56.7961 19.5059L58.4882 20.2242C58.579 20.2632 58.6786 20.2632 58.7695 20.2242L60.2235 19.6357C60.5005 19.5232 60.5351 19.1467 60.2841 18.9866L59.2282 18.3158C59.1719 18.2812 59.107 18.2595 59.0421 18.2595L57.2072 18.2033C57.0557 18.199 56.9173 18.2855 56.861 18.4283L56.8523 18.4326Z" fill="#F9F4E8" stroke="#B7AE9A" stroke-linejoin="round"/>
<path d="M70.1854 47.7388L69.8695 48.5524C69.6661 49.076 70.2546 49.5521 70.722 49.2448C71.7346 48.5784 72.8425 47.7129 72.4573 47.3147C71.9337 46.7695 70.8865 47.2195 70.4537 47.4446C70.3325 47.5095 70.2373 47.6133 70.1854 47.7432V47.7388Z" fill="#F9F4E8" stroke="#B7AE9A" stroke-linejoin="round"/>
</svg>
