<svg width="32" height="32" viewBox="0 0 32 32" fill="none" xmlns="http://www.w3.org/2000/svg">
<path d="M26 11C26 14.4652 23.6774 17.9123 20 20H18.7801H16H13.2199H12C8.32259 17.9123 6 14.4652 6 11C6 7.09576 8.23742 4.21385 11.5 2.85996C12.5 2.5 14.0353 2 16 2C17.9647 2 19.5 2.5 20.5 2.85996C23.7626 4.21385 26 7.09576 26 11Z" fill="#F8D97E"/>
<path d="M16 2V20M16 2C14.0353 2 12.5 2.5 11.5 2.85996M16 2C17.9647 2 19.5 2.5 20.5 2.85996M16 20H13.2199M16 20H18.7801M13.2199 20H12C8.32259 17.9123 6 14.4652 6 11C6 7.09576 8.23742 4.21385 11.5 2.85996M13.2199 20C12.48 18.6667 11.3721 13.9768 11 11C10.5 7 11.5 2.85996 11.5 2.85996M18.7801 20H20C23.6774 17.9123 26 14.4652 26 11C26 7.09576 23.7626 4.21385 20.5 2.85996M18.7801 20C19.52 18.6667 20.6279 13.9768 21 11C21.5 7 20.5 2.85996 20.5 2.85996" stroke="#1B1B1B"/>
<path d="M12 20L14.6667 26H17.3333L20 20H12Z" stroke="#1B1B1B" stroke-linecap="round"/>
<path d="M19 29.5H13C12.1716 29.5 11.5 28.8284 11.5 28V25.5H20.5V28C20.5 28.8284 19.8284 29.5 19 29.5Z" fill="#F8D97E" stroke="#1B1B1B"/>
<rect x="11.5" y="23.5" width="9" height="2" fill="white" stroke="#1B1B1B"/>
</svg>
