<svg width="80" height="80" viewBox="0 0 80 80" fill="none" xmlns="http://www.w3.org/2000/svg">
<g clip-path="url(#clip0_343_1516)">
<path d="M43.4085 16.0735L46.7507 7.45306C48.0637 4.02086 45 0.508844 41.4191 1.42676L37.7984 2.34467C36.6446 2.62404 35.4111 2.4644 34.3767 1.86576L32.3077 0.628571C30.8753 -0.209524 29.1247 -0.209524 27.6923 0.628571L25.6233 1.86576C24.5889 2.4644 23.3554 2.66395 22.2016 2.34467L18.5809 1.42676C15.0398 0.508844 11.9363 4.02086 13.2493 7.45306L16.5915 16.0735C6.76392 21.0222 0 31.1991 0 42.9723C0 59.5746 13.4085 66 30 66C46.5915 66 60 59.5746 60 42.9723C60 31.1991 53.2361 21.0222 43.4085 16.0735Z" fill="white" stroke="#1B1B1B" stroke-width="2" stroke-miterlimit="10"/>
<path d="M30 22V24" stroke="#1B1B1B" stroke-width="2" stroke-linecap="round" stroke-linejoin="round"/>
<path d="M24 22L22 24" stroke="#1B1B1B" stroke-width="2" stroke-linecap="round" stroke-linejoin="round"/>
<path d="M36 22L38 24" stroke="#1B1B1B" stroke-width="2" stroke-linecap="round" stroke-linejoin="round"/>
</g>
<defs>
<clipPath id="clip0_343_1516">
<rect width="80" height="80" fill="white"/>
</clipPath>
</defs>
</svg>
