<svg width="62" height="68" viewBox="0 0 62 68" fill="none" xmlns="http://www.w3.org/2000/svg">
<path d="M44.4085 17.0735L47.7507 8.45306C49.0637 5.02086 46 1.50884 42.4191 2.42676L38.7984 3.34467C37.6446 3.62404 36.4111 3.4644 35.3767 2.86576L33.3077 1.62857C31.8753 0.790476 30.1247 0.790476 28.6923 1.62857L26.6233 2.86576C25.5889 3.4644 24.3554 3.66395 23.2016 3.34467L19.5809 2.42676C16.0398 1.50884 12.9363 5.02086 14.2493 8.45306L17.5915 17.0735C7.76392 22.0222 1 32.1991 1 43.9723C1 60.5746 14.4085 67 31 67C47.5915 67 61 60.5746 61 43.9723C61 32.1991 54.2361 22.0222 44.4085 17.0735Z" fill="white" stroke="#1B1B1B" stroke-width="2" stroke-miterlimit="10"/>
<path d="M31 23V25" stroke="#1B1B1B" stroke-width="2" stroke-linecap="round" stroke-linejoin="round"/>
<path d="M25 23L23 25" stroke="#1B1B1B" stroke-width="2" stroke-linecap="round" stroke-linejoin="round"/>
<path d="M37 23L39 25" stroke="#1B1B1B" stroke-width="2" stroke-linecap="round" stroke-linejoin="round"/>
</svg>
