<svg width="32" height="35" viewBox="0 0 32 35" fill="none" xmlns="http://www.w3.org/2000/svg">
<path d="M22.7042 9.03673L24.3753 4.72653C25.0318 3.01043 23.5 1.25442 21.7096 1.71338L19.8992 2.17234C19.3223 2.31202 18.7056 2.2322 18.1883 1.93288L17.1538 1.31429C16.4377 0.895238 15.5623 0.895238 14.8462 1.31429L13.8117 1.93288C13.2944 2.2322 12.6777 2.33197 12.1008 2.17234L10.2904 1.71338C8.51989 1.25442 6.96817 3.01043 7.62467 4.72653L9.29575 9.03673C4.38196 11.5111 1 16.5995 1 22.4862C1 30.7873 7.70425 34 16 34C24.2958 34 31 30.7873 31 22.4862C31 16.5995 27.618 11.5111 22.7042 9.03673Z" fill="white" stroke="#1B1B1B" stroke-width="2" stroke-miterlimit="10"/>
<path d="M16 12V13" stroke="#1B1B1B" stroke-width="2" stroke-linecap="round" stroke-linejoin="round"/>
<path d="M13 12L12 13" stroke="#1B1B1B" stroke-width="2" stroke-linecap="round" stroke-linejoin="round"/>
<path d="M19 12L20 13" stroke="#1B1B1B" stroke-width="2" stroke-linecap="round" stroke-linejoin="round"/>
</svg>
