<svg width="80" height="80" viewBox="0 0 80 80" fill="none" xmlns="http://www.w3.org/2000/svg">
<path d="M73.9396 43.1574C73.4652 41.7323 73.4652 40.2281 73.9396 38.803L75.6393 33.7361C77.4577 28.2337 72.0817 23.0877 66.6662 25.1857L60.5392 27.5608C59.8277 27.8379 58.6418 28.2337 57.2583 28.7088C52.8705 23.4439 45.8344 20 37.7704 20C28.0858 20 19.7847 25.0273 15.9504 32.1923C14.8831 31.1631 13.46 30.5297 11.8788 30.5297C8.63745 30.5297 6.02854 33.1423 6.02854 36.3883C6.02854 38.3676 7.09584 40.0697 8.59794 41.099C7.41207 41.8907 6.50289 43.0782 6.14713 44.5825C5.4356 47.7097 7.37252 50.8765 10.4953 51.5891C12.5904 52.0641 14.5668 51.312 15.9504 49.8869C19.7847 57.0123 28.0463 62 37.6914 62C45.7158 62 52.7915 58.5561 57.1792 53.2912C58.5627 53.7663 59.7486 54.1621 60.4601 54.4392L66.5871 56.8143C72.0026 58.9123 77.3786 53.7663 75.5602 48.2639L73.8605 43.197L73.9396 43.1574Z" fill="#E0B38A" stroke="#1B1B1B" stroke-width="2" stroke-miterlimit="10"/>
<path d="M36.1497 31.6378V49.3721" stroke="#1B1B1B" stroke-width="2" stroke-linecap="round" stroke-linejoin="round"/>
<path d="M36.1497 43.0793V38.9229L45.0437 34.9643V47.0378L36.1497 43.0793Z" stroke="#1B1B1B" stroke-width="2" stroke-linecap="round" stroke-linejoin="round"/>
<path d="M26.3859 36.6263C27.5648 36.6263 28.5205 35.6693 28.5205 34.4887C28.5205 33.3081 27.5648 32.3511 26.3859 32.3511C25.207 32.3511 24.2513 33.3081 24.2513 34.4887C24.2513 35.6693 25.207 36.6263 26.3859 36.6263Z" fill="#1B1B1B"/>
<path d="M60.974 38.0122L64.7688 35.7955" stroke="#1B1B1B" stroke-width="2" stroke-linecap="round" stroke-linejoin="round"/>
<path d="M60.8949 44.3055L64.8083 46.2056" stroke="#1B1B1B" stroke-width="2" stroke-linecap="round" stroke-linejoin="round"/>
</svg>
