<svg width="80" height="80" viewBox="0 0 80 80" fill="none" xmlns="http://www.w3.org/2000/svg">
<path d="M20.6914 19.4324C23.5217 22.743 34.7819 30.2209 38.72 27.8408C42.658 25.4607 36.21 15.0053 33.3798 11.6948C30.5496 8.38419 26.6332 6.74837 22.6951 9.12852C18.757 11.5087 17.8612 16.1218 20.6914 19.4367V19.4324Z" fill="#DB947D" stroke="#BC7261" stroke-width="2" stroke-miterlimit="10"/>
<path d="M58.1552 19.7525C55.3249 23.063 44.0647 30.541 40.1266 28.1609C36.1886 25.7807 42.6366 15.3254 45.4668 12.0148C48.297 8.70425 52.2134 7.06845 56.1515 9.44859C60.0896 11.8287 60.9854 16.4419 58.1552 19.7568V19.7525Z" fill="#DB947D" stroke="#BC7261" stroke-width="2" stroke-miterlimit="10"/>
<path d="M65.451 39.2742H13.8754C12.5824 39.2742 11.5342 40.3224 11.5342 41.6154V68.524C11.5342 69.817 12.5824 70.8652 13.8754 70.8652H65.451C66.744 70.8652 67.7922 69.817 67.7922 68.524V41.6154C67.7922 40.3224 66.744 39.2742 65.451 39.2742Z" fill="#FFE68B" stroke="#EFCA70" stroke-width="2" stroke-linecap="round" stroke-linejoin="round"/>
<path d="M69.7786 21.1331H9.19304C6.32501 21.1331 4 23.4581 4 26.3261V37.1449C4 40.013 6.32501 42.338 9.19304 42.338H69.7786C72.6466 42.338 74.9716 40.013 74.9716 37.1449V26.3261C74.9716 23.4581 72.6466 21.1331 69.7786 21.1331Z" fill="#FFE68B" stroke="#EFCA70" stroke-width="2" stroke-linecap="round" stroke-linejoin="round"/>
<path d="M48.3184 20.7607H31.0083V70.9602H48.3184V20.7607Z" fill="#DB947D" stroke="#BC7261" stroke-width="2" stroke-miterlimit="10"/>
<path d="M30.792 42.3379H48.5349" stroke="#BC7261" stroke-width="2" stroke-miterlimit="10"/>
</svg>
