<svg width="24" height="24" viewBox="0 0 24 24" fill="none" xmlns="http://www.w3.org/2000/svg">
<g clip-path="url(#clip0_680_2406)">
<circle cx="12" cy="12" r="11" stroke="#1B1B1B" stroke-width="2"/>
<path fill-rule="evenodd" clip-rule="evenodd" d="M10.659 15.2707C10.659 15.2651 10.6591 15.2595 10.6591 15.254C10.659 15.2495 10.659 15.245 10.659 15.2404C10.659 15.2318 10.6592 15.2232 10.6596 15.2147C10.6667 14.6311 10.6876 14.1397 10.7817 13.7404C10.8787 13.3218 11.0404 12.9426 11.2668 12.6025C11.4997 12.2624 11.8069 11.9027 12.1886 11.5234C12.4861 11.2357 12.7546 10.9642 12.9939 10.7092C13.2332 10.4477 13.424 10.1729 13.5664 9.8852C13.7086 9.59094 13.7798 9.25413 13.7798 8.87484C13.7798 8.46283 13.7119 8.11293 13.5761 7.82518C13.4402 7.53744 13.2397 7.31837 12.9745 7.16792C12.7158 7.01753 12.3923 6.94234 12.0042 6.94234C11.6808 6.94234 11.3768 7.0077 11.0922 7.13853C10.8075 7.26273 10.5779 7.45893 10.4033 7.72706C10.2337 7.9811 10.1403 8.31531 10.1232 8.72975C10.1232 9.23595 9.6122 9.66194 8.98167 9.66194C8.36011 9.66194 7.85434 9.2554 7.84008 8.75914L7.83997 8.74538C7.83997 8.73058 7.84041 8.71577 7.84129 8.70113C7.86045 7.90596 8.00057 7.23467 8.36572 6.68724C8.74089 6.12485 9.24545 5.70301 9.87935 5.42184C10.5132 5.14061 11.2215 5 12.0042 5C12.871 5 13.6116 5.15039 14.2261 5.45123C14.8406 5.74555 15.3096 6.17717 15.633 6.74614C15.9629 7.30854 16.1279 7.98867 16.1279 8.78655C16.1279 9.36204 16.0147 9.8852 15.7883 10.356C15.5619 10.8204 15.2675 11.2553 14.9053 11.6607C14.5431 12.0597 14.1517 12.4586 13.7313 12.8575C13.369 13.1911 13.1232 13.554 12.9939 13.9464C12.8645 14.3323 12.7966 14.7737 12.7901 15.2707C12.7671 15.6628 12.2949 15.9759 11.7223 15.9759C11.1498 15.9759 10.682 15.6628 10.659 15.2707Z" fill="#1B1B1B"/>
<path d="M10.5284 17.768C10.5284 17.4242 10.6386 17.1345 10.8588 16.8989C11.079 16.6569 11.3795 16.536 11.7604 16.536C12.1413 16.536 12.4419 16.6569 12.6621 16.8989C12.8823 17.1345 12.9924 17.4242 12.9924 17.768C12.9924 18.1118 12.8823 18.4047 12.6621 18.6466C12.4419 18.8822 12.1413 19 11.7604 19C11.3795 19 11.079 18.8822 10.8588 18.6466C10.6386 18.4047 10.5284 18.1118 10.5284 17.768Z" fill="#1B1B1B"/>
</g>
<defs>
<clipPath id="clip0_680_2406">
<rect width="24" height="24" fill="white"/>
</clipPath>
</defs>
</svg>
