<svg width="24" height="24" viewBox="0 0 24 24" fill="none" xmlns="http://www.w3.org/2000/svg">
<g clip-path="url(#clip0_912_2136)">
<circle cx="12" cy="12" r="11" stroke="#1B1B1B" stroke-width="2"/>
<path fill-rule="evenodd" clip-rule="evenodd" d="M10.6589 15.2707C10.6589 15.2651 10.659 15.2595 10.659 15.254C10.6589 15.2495 10.6589 15.245 10.6589 15.2404C10.6589 15.2318 10.6591 15.2232 10.6595 15.2147C10.6666 14.6311 10.6875 14.1397 10.7816 13.7404C10.8786 13.3218 11.0403 12.9426 11.2667 12.6025C11.4996 12.2624 11.8068 11.9027 12.1884 11.5234C12.486 11.2357 12.7545 10.9642 12.9937 10.7092C13.2331 10.4477 13.4239 10.1729 13.5662 9.8852C13.7085 9.59094 13.7797 9.25413 13.7797 8.87484C13.7797 8.46283 13.7118 8.11293 13.5759 7.82518C13.4401 7.53744 13.2396 7.31837 12.9744 7.16792C12.7156 7.01753 12.3922 6.94234 12.0041 6.94234C11.6807 6.94234 11.3767 7.0077 11.0921 7.13853C10.8074 7.26273 10.5778 7.45893 10.4032 7.72706C10.2336 7.9811 10.1402 8.31531 10.1231 8.72975C10.1231 9.23595 9.61208 9.66194 8.98154 9.66194C8.35998 9.66194 7.85421 9.2554 7.83995 8.75914L7.83984 8.74538C7.83984 8.73058 7.84028 8.71577 7.84117 8.70113C7.86033 7.90596 8.00045 7.23467 8.3656 6.68724C8.74077 6.12485 9.24533 5.70301 9.87922 5.42184C10.5131 5.14061 11.2214 5 12.0041 5C12.8708 5 13.6115 5.15039 14.226 5.45123C14.8405 5.74555 15.3095 6.17717 15.6329 6.74614C15.9628 7.30854 16.1277 7.98867 16.1277 8.78655C16.1277 9.36204 16.0145 9.8852 15.7881 10.356C15.5617 10.8204 15.2674 11.2553 14.9052 11.6607C14.5429 12.0597 14.1516 12.4586 13.7311 12.8575C13.3689 13.1911 13.1231 13.554 12.9937 13.9464C12.8644 14.3323 12.7965 14.7737 12.79 15.2707C12.767 15.6628 12.2948 15.9759 11.7222 15.9759C11.1497 15.9759 10.6819 15.6628 10.6589 15.2707Z" fill="#1B1B1B"/>
<path d="M10.5283 17.768C10.5283 17.4242 10.6385 17.1345 10.8587 16.8989C11.0789 16.6569 11.3794 16.536 11.7603 16.536C12.1412 16.536 12.4418 16.6569 12.662 16.8989C12.8822 17.1345 12.9923 17.4242 12.9923 17.768C12.9923 18.1118 12.8822 18.4047 12.662 18.6466C12.4418 18.8822 12.1412 19 11.7603 19C11.3794 19 11.0789 18.8822 10.8587 18.6466C10.6385 18.4047 10.5283 18.1118 10.5283 17.768Z" fill="#1B1B1B"/>
</g>
<defs>
<clipPath id="clip0_912_2136">
<rect width="24" height="24" fill="white"/>
</clipPath>
</defs>
</svg>
