<svg width="24" height="24" viewBox="0 0 24 24" fill="none" xmlns="http://www.w3.org/2000/svg">
<path fill-rule="evenodd" clip-rule="evenodd" d="M11.4118 3.46894L2.18767 10.1774C1.40443 10.747 1.80736 11.9861 2.77584 11.9861H4.17314V19.9311C4.17314 20.4834 4.62086 20.9311 5.17314 20.9311H18.8268C19.3791 20.9311 19.8268 20.4834 19.8268 19.9311V11.9861H21.2241C22.1926 11.9861 22.5956 10.747 21.8123 10.1774L12.5882 3.46894C12.2375 3.21392 11.7625 3.21392 11.4118 3.46894Z" stroke="#1B1B1B" stroke-width="2" stroke-linejoin="round"/>
<path d="M9.66663 19.9V20.9H10.6666H13.3333H14.3333V19.9V16.5667V16.5667C14.3333 15.3137 13.4853 13.9 12 13.9C10.5146 13.9 9.66663 15.3137 9.66663 16.5667V16.5667V16.5667V16.5667V19.9Z" stroke="#1B1B1B" stroke-width="2"/>
</svg>
