<svg width="24" height="24" viewBox="0 0 24 24" fill="none" xmlns="http://www.w3.org/2000/svg">
<path d="M2.18767 10.1774L2.77584 10.9861H2.77584L2.18767 10.1774ZM11.4118 3.46894L10.8236 2.6602L10.8236 2.6602L11.4118 3.46894ZM4.17314 11.9861H5.17314C5.17314 11.4339 4.72543 10.9861 4.17314 10.9861V11.9861ZM19.8268 11.9861V10.9861C19.2745 10.9861 18.8268 11.4339 18.8268 11.9861H19.8268ZM21.8123 10.1774L21.2241 10.9861L21.8123 10.1774ZM12.5882 3.46894L12 4.27767V4.27767L12.5882 3.46894ZM2.77584 10.9861L12 4.27767L10.8236 2.6602L1.5995 9.36867L2.77584 10.9861ZM2.77584 10.9861L2.77584 10.9861L1.5995 9.36867C0.0330045 10.5079 0.838891 12.9861 2.77584 12.9861V10.9861ZM4.17314 10.9861H2.77584V12.9861H4.17314V10.9861ZM3.17314 11.9861V19.9311H5.17314V11.9861H3.17314ZM3.17314 19.9311C3.17314 21.0357 4.06857 21.9311 5.17314 21.9311V19.9311H3.17314ZM5.17314 21.9311H18.8268V19.9311H5.17314V21.9311ZM18.8268 21.9311C19.9314 21.9311 20.8268 21.0357 20.8268 19.9311H18.8268V21.9311ZM20.8268 19.9311V11.9861H18.8268V19.9311H20.8268ZM21.2241 10.9861H19.8268V12.9861H21.2241V10.9861ZM21.2241 10.9861H21.2241V12.9861C23.1611 12.9861 23.967 10.5079 22.4005 9.36867L21.2241 10.9861ZM12 4.27767L21.2241 10.9861L22.4005 9.36867L13.1763 2.6602L12 4.27767ZM12 4.27767V4.27767L13.1763 2.6602C12.475 2.15016 11.5249 2.15016 10.8236 2.6602L12 4.27767Z" fill="black"/>
<mask id="path-2-outside-1_1735_6542" maskUnits="userSpaceOnUse" x="8.66663" y="12.9" width="7" height="9" fill="black">
<rect fill="white" x="8.66663" y="12.9" width="7" height="9"/>
<path fill-rule="evenodd" clip-rule="evenodd" d="M13.3333 16.5667C13.3333 16.5667 13.3333 16.5667 13.3333 16.5667C13.3333 15.6462 12.7363 14.9 12 14.9C11.2636 14.9 10.6666 15.6462 10.6666 16.5667C10.6666 16.5667 10.6666 16.5667 10.6666 16.5667V19.9H13.3333V16.5667Z"/>
</mask>
<path d="M10.6666 19.9H8.66663V21.9H10.6666V19.9ZM13.3333 19.9V21.9H15.3333V19.9H13.3333ZM11.3333 16.5667V16.5667V16.5667C11.3333 16.5667 11.3333 16.5667 11.3333 16.5667C11.3333 16.5667 11.3333 16.5667 11.3333 16.5667C11.3333 16.5667 11.3333 16.5667 11.3333 16.5667V16.5667C11.3333 16.5667 11.3333 16.5667 11.3333 16.5667C11.3333 16.5667 11.3333 16.5667 11.3333 16.5667C11.3333 16.5667 11.3333 16.5667 11.3333 16.5667C11.3333 16.5667 11.3333 16.5667 11.3333 16.5667C11.3333 16.5667 11.3333 16.5667 11.3333 16.5667C11.3333 16.5667 11.3333 16.5667 11.3333 16.5667C11.3333 16.5667 11.3333 16.5667 11.3333 16.5667C11.3333 16.5667 11.3333 16.5667 11.3333 16.5667C11.3333 16.5667 11.3333 16.5667 11.3333 16.5667C11.3333 16.5667 11.3333 16.5667 11.3333 16.5667C11.3333 16.5667 11.3333 16.5667 11.3333 16.5667C11.3333 16.5667 11.3333 16.5667 11.3333 16.5667C11.3333 16.5667 11.3333 16.5667 11.3333 16.5667C11.3333 16.5667 11.3333 16.5667 11.3333 16.5667V16.5667C11.3333 16.5667 11.3333 16.5667 11.3333 16.5667C11.3333 16.5667 11.3333 16.5667 11.3333 16.5667C11.3333 16.5667 11.3333 16.5667 11.3333 16.5667V16.5667V16.5667H15.3333V16.5667V16.5667C15.3333 16.5667 15.3333 16.5667 15.3333 16.5667C15.3333 16.5667 15.3333 16.5667 15.3333 16.5667C15.3333 16.5667 15.3333 16.5667 15.3333 16.5667V16.5667C15.3333 16.5667 15.3333 16.5667 15.3333 16.5667C15.3333 16.5667 15.3333 16.5667 15.3333 16.5667C15.3333 16.5667 15.3333 16.5667 15.3333 16.5667C15.3333 16.5667 15.3333 16.5667 15.3333 16.5667C15.3333 16.5667 15.3333 16.5667 15.3333 16.5667C15.3333 16.5667 15.3333 16.5667 15.3333 16.5667C15.3333 16.5667 15.3333 16.5667 15.3333 16.5667C15.3333 16.5667 15.3333 16.5667 15.3333 16.5667C15.3333 16.5667 15.3333 16.5667 15.3333 16.5667C15.3333 16.5667 15.3333 16.5667 15.3333 16.5667C15.3333 16.5667 15.3333 16.5667 15.3333 16.5667C15.3333 16.5667 15.3333 16.5667 15.3333 16.5667C15.3333 16.5667 15.3333 16.5667 15.3333 16.5667C15.3333 16.5667 15.3333 16.5667 15.3333 16.5667V16.5667C15.3333 16.5667 15.3333 16.5667 15.3333 16.5667C15.3333 16.5667 15.3333 16.5667 15.3333 16.5667C15.3333 16.5667 15.3333 16.5667 15.3333 16.5667V16.5667V16.5667H11.3333ZM12 16.9C11.6518 16.9 11.4457 16.7183 11.381 16.6375C11.3193 16.5604 11.3333 16.5287 11.3333 16.5667H15.3333C15.3333 14.9812 14.2343 12.9 12 12.9V16.9ZM12.6666 16.5667C12.6666 16.5287 12.6806 16.5604 12.6189 16.6375C12.5543 16.7183 12.3482 16.9 12 16.9V12.9C9.76561 12.9 8.66663 14.9812 8.66663 16.5667H12.6666ZM12.6666 16.5667V16.5667V16.5667C12.6666 16.5667 12.6666 16.5667 12.6666 16.5667C12.6666 16.5667 12.6666 16.5667 12.6666 16.5667C12.6666 16.5667 12.6666 16.5667 12.6666 16.5667V16.5667C12.6666 16.5667 12.6666 16.5667 12.6666 16.5667C12.6666 16.5667 12.6666 16.5667 12.6666 16.5667C12.6666 16.5667 12.6666 16.5667 12.6666 16.5667C12.6666 16.5667 12.6666 16.5667 12.6666 16.5667C12.6666 16.5667 12.6666 16.5667 12.6666 16.5667C12.6666 16.5667 12.6666 16.5667 12.6666 16.5667C12.6666 16.5667 12.6666 16.5667 12.6666 16.5667C12.6666 16.5667 12.6666 16.5667 12.6666 16.5667C12.6666 16.5667 12.6666 16.5667 12.6666 16.5667C12.6666 16.5667 12.6666 16.5667 12.6666 16.5667C12.6666 16.5667 12.6666 16.5667 12.6666 16.5667C12.6666 16.5667 12.6666 16.5667 12.6666 16.5667C12.6666 16.5667 12.6666 16.5667 12.6666 16.5667C12.6666 16.5667 12.6666 16.5667 12.6666 16.5667V16.5667C12.6666 16.5667 12.6666 16.5667 12.6666 16.5667C12.6666 16.5667 12.6666 16.5667 12.6666 16.5667C12.6666 16.5667 12.6666 16.5667 12.6666 16.5667V16.5667V16.5667H8.66663V16.5667V16.5667C8.66663 16.5667 8.66663 16.5667 8.66663 16.5667C8.66663 16.5667 8.66663 16.5667 8.66663 16.5667C8.66663 16.5667 8.66663 16.5667 8.66663 16.5667V16.5667C8.66663 16.5667 8.66663 16.5667 8.66663 16.5667C8.66663 16.5667 8.66663 16.5667 8.66663 16.5667C8.66663 16.5667 8.66663 16.5667 8.66663 16.5667C8.66663 16.5667 8.66663 16.5667 8.66663 16.5667C8.66663 16.5667 8.66663 16.5667 8.66663 16.5667C8.66663 16.5667 8.66663 16.5667 8.66663 16.5667C8.66663 16.5667 8.66663 16.5667 8.66663 16.5667C8.66663 16.5667 8.66663 16.5667 8.66663 16.5667C8.66663 16.5667 8.66663 16.5667 8.66663 16.5667C8.66663 16.5667 8.66663 16.5667 8.66663 16.5667C8.66663 16.5667 8.66663 16.5667 8.66663 16.5667C8.66663 16.5667 8.66663 16.5667 8.66663 16.5667C8.66663 16.5667 8.66663 16.5667 8.66663 16.5667C8.66663 16.5667 8.66663 16.5667 8.66663 16.5667V16.5667C8.66663 16.5667 8.66663 16.5667 8.66663 16.5667C8.66663 16.5667 8.66663 16.5667 8.66663 16.5667C8.66663 16.5667 8.66663 16.5667 8.66663 16.5667V16.5667V16.5667H12.6666ZM12.6666 19.9V16.5667H8.66663V19.9H12.6666ZM13.3333 17.9H10.6666V21.9H13.3333V17.9ZM11.3333 16.5667V19.9H15.3333V16.5667H11.3333Z" fill="black" mask="url(#path-2-outside-1_1735_6542)"/>
</svg>
