<svg width="80" height="80" viewBox="0 0 80 80" fill="none" xmlns="http://www.w3.org/2000/svg">
<path d="M58.8133 22.6057C59.3758 22.0301 59.8951 21.3853 60.3495 20.6626C63.0932 16.3264 62.5652 11.0641 59.1638 8.91334C55.8056 6.78852 50.9069 8.4979 48.1416 12.7259C46.7178 9.90435 44.0174 8.00024 40.9146 8.00024C37.8117 8.00024 35.1157 9.90435 33.6876 12.7259C30.9223 8.4979 26.0235 6.79285 22.6653 8.91334C19.2682 11.0641 18.736 16.3221 21.4796 20.6626C21.7782 21.1343 22.1028 21.5757 22.449 21.9825C12.5908 26.8683 6 35.7311 6 45.8619C6 61.2636 21.2329 73.7442 40.0231 73.7442C58.8133 73.7442 74.0462 61.2592 74.0462 45.8619C74.0462 36.1509 67.9876 27.5996 58.796 22.6057H58.8133Z" fill="#DB947D" stroke="#BC7261" stroke-width="2" stroke-miterlimit="10" stroke-linejoin="round"/>
<path d="M32.7707 26.8414C36.2246 26.667 38.9861 25.7633 38.9387 24.8228C38.8912 23.8823 36.0527 23.2613 32.5987 23.4356C29.1447 23.61 26.3832 24.5137 26.4307 25.4542C26.4782 26.3947 29.3167 27.0158 32.7707 26.8414Z" fill="#DB947D" stroke="#BC7261" stroke-width="2" stroke-miterlimit="10" stroke-linecap="round" stroke-linejoin="round"/>
<path d="M53.674 25.4911C53.7215 24.5506 50.96 23.6468 47.506 23.4725C44.052 23.2981 41.2135 23.9191 41.166 24.8596C41.1186 25.8001 43.8801 26.7039 47.3341 26.8782C50.788 27.0526 53.6265 26.4315 53.674 25.4911Z" fill="#DB947D" stroke="#BC7261" stroke-width="2" stroke-miterlimit="10" stroke-linecap="round" stroke-linejoin="round"/>
<path d="M40.3649 25.0593C40.3649 25.0593 31.277 28.9108 31.7098 33.8399L40.3649 25.0593Z" fill="#DB947D"/>
<path d="M40.3649 25.0593C40.3649 25.0593 31.277 28.9108 31.7098 33.8399" stroke="#BC7261" stroke-width="2" stroke-miterlimit="10" stroke-linecap="round" stroke-linejoin="round"/>
<path d="M40.3477 25.3666C40.3477 25.3666 49.4355 29.2181 49.0027 34.1471L40.3477 25.3666Z" fill="#DB947D"/>
<path d="M40.3477 25.3666C40.3477 25.3666 49.4355 29.2181 49.0027 34.1471" stroke="#BC7261" stroke-width="2" stroke-miterlimit="10" stroke-linecap="round" stroke-linejoin="round"/>
<path d="M40.8496 23.5447H39.0148C38.5654 23.5447 38.2012 23.9089 38.2012 24.3583V26.1931C38.2012 26.6425 38.5654 27.0067 39.0148 27.0067H40.8496C41.2989 27.0067 41.6632 26.6425 41.6632 26.1931V24.3583C41.6632 23.9089 41.2989 23.5447 40.8496 23.5447Z" fill="#DB947D" stroke="#BC7261" stroke-width="2" stroke-miterlimit="10" stroke-linecap="round" stroke-linejoin="round"/>
<path d="M25.7983 39.5522H38.1924" stroke="#F9D78C" stroke-width="2" stroke-linecap="round" stroke-linejoin="round"/>
<path d="M41.6113 39.5522H54.0054" stroke="#F9D78C" stroke-width="2" stroke-linecap="round" stroke-linejoin="round"/>
<path d="M25.7983 44.4036H38.1924" stroke="#F9D78C" stroke-width="2" stroke-linecap="round" stroke-linejoin="round"/>
<path d="M31.9956 45.5632V60.9779" stroke="#F9D78C" stroke-width="2" stroke-linecap="round" stroke-linejoin="round"/>
<path d="M29.1957 51.2019L26.3525 55.3866" stroke="#F9D78C" stroke-width="2" stroke-linecap="round" stroke-linejoin="round"/>
<path d="M34.7349 51.3882L38.0584 55.2008" stroke="#F9D78C" stroke-width="2" stroke-linecap="round" stroke-linejoin="round"/>
<path d="M53.9575 44.542H41.5635V49.9298H53.9575V44.542Z" stroke="#F9D78C" stroke-width="2" stroke-linecap="round" stroke-linejoin="round"/>
<path d="M53.9575 53.0586H41.5635V61.1424H53.9575V53.0586Z" stroke="#F9D78C" stroke-width="2" stroke-linecap="round" stroke-linejoin="round"/>
<path d="M47.9771 53.0586V60.7616" stroke="#F9D78C" stroke-width="2" stroke-linecap="round" stroke-linejoin="round"/>
<path d="M53.2396 56.9099H42.2822" stroke="#F9D78C" stroke-width="2" stroke-linecap="round" stroke-linejoin="round"/>
</svg>
