<svg width="24" height="24" viewBox="0 0 24 24" fill="none" xmlns="http://www.w3.org/2000/svg">
<path d="M16.07 16.4384C16.07 15.2884 14.35 14.3484 12.22 14.3484C10.09 14.3484 8.38 15.2784 8.37 16.4384V18.1884C8.37 19.3384 10.09 20.2784 12.22 20.2784C14.35 20.2784 16.07 19.3384 16.07 18.1884V16.4384Z" fill="white" stroke="#1B1B1B" stroke-linecap="round" stroke-linejoin="round"/>
<path d="M20.22 11.5484C20.36 11.2184 20.44 10.8784 20.44 10.5284C20.44 8.05841 16.76 6.05841 12.22 6.05841C7.68 6.05841 4 8.05841 4 10.5184C4 10.8684 4.08 11.2084 4.22 11.5384C4.76 13.5684 6.48 17.9584 11.31 18.4584C11.6 18.4984 11.9 18.5184 12.21 18.5184C12.52 18.5184 12.82 18.4884 13.11 18.4584C17.94 17.9584 19.66 13.5684 20.2 11.5384L20.22 11.5484Z" fill="white" stroke="#1B1B1B" stroke-miterlimit="10"/>
<path d="M10.8301 6.46841C8.24006 6.81841 6.31006 8.10841 6.31006 9.64841C6.31006 11.4484 8.95006 12.9184 12.2101 12.9184C15.4701 12.9184 17.8901 11.3684 18.1001 9.64841C18.5701 5.72841 13.8801 4.39841 11.8801 4.00841C11.5201 3.93841 11.2701 4.31841 11.4201 4.65841C11.4201 4.65841 12.2901 6.11841 10.8401 6.46841H10.8301Z" fill="#F8D97E" stroke="#1B1B1B" stroke-miterlimit="10"/>
<path d="M11.6501 5.37841C11.6501 5.37841 12.8601 7.62841 10.8101 7.77841" stroke="#1B1B1B" stroke-linecap="round" stroke-linejoin="round"/>
</svg>
