<svg width="80" height="80" viewBox="0 0 80 80" fill="none" xmlns="http://www.w3.org/2000/svg">
<path d="M40.5348 70.4488C49.5524 70.4488 56.8626 67.7556 56.8626 64.4335C56.8626 61.1113 49.5524 58.4182 40.5348 58.4182C31.5172 58.4182 24.207 61.1113 24.207 64.4335C24.207 67.7556 31.5172 70.4488 40.5348 70.4488Z" fill="#E2D9CC" stroke="#B5AA9C" stroke-width="2" stroke-miterlimit="10" stroke-linecap="round"/>
<path d="M44.482 12.053C46.2087 12.1309 47.9397 12.2997 49.6577 12.5204C50.2939 12.6026 50.9257 12.6891 51.5575 12.7844C53.6953 13.1003 55.8158 13.507 57.9103 14.0393C60.0049 14.5716 62.0474 15.2294 64.0338 16.056C65.4835 16.6618 66.9116 17.3456 68.2618 18.1548C70.9405 19.7257 73.4332 21.8159 75.0777 24.5206C76.3024 26.5329 76.8476 28.7443 77.0121 31.0163C77.1809 33.3228 76.9558 35.6943 76.6572 37.9836C76.0557 42.5535 74.7012 47.0541 72.4509 51.0614C69.4778 56.3497 64.9599 60.4998 59.5678 63.0833C53.7213 65.8832 47.1564 67.2378 40.6305 67.1902C40.6002 67.1902 40.5656 67.1902 40.5353 67.1902C40.505 67.1902 40.4704 67.1902 40.4401 67.1902C33.9141 67.2421 27.3493 65.8876 21.5028 63.0876C16.1107 60.5041 11.5927 56.3583 8.61968 51.0657C6.36936 47.0584 5.01485 42.5578 4.41332 37.9879C4.1104 35.703 3.88969 33.3315 4.05846 31.0206C4.22291 28.7486 4.76817 26.5329 5.99286 24.525C7.63732 21.8202 10.1343 19.73 12.8087 18.1592C14.6306 17.0903 16.5564 16.2031 18.5384 15.4718C20.5204 14.7404 22.5803 14.1562 24.6489 13.6888C26.9468 13.1695 29.2923 12.8017 31.6249 12.4858C33.9747 12.1785 36.3462 11.9838 38.7134 12.0011C38.761 12.0011 38.8042 12.0011 38.8518 12.0011C40.0938 12.014 41.3359 12.0184 42.5822 12.0184C43.214 12.0184 43.8458 12.0314 44.482 12.0617V12.053Z" fill="#EDE7DD" stroke="#B5AA9C" stroke-width="2" stroke-miterlimit="10" stroke-linecap="round"/>
<path d="M33.2949 49.9926H39.6564" stroke="#A0978B" stroke-linecap="round" stroke-linejoin="round"/>
<path d="M41.4136 49.9926H47.7751" stroke="#A0978B" stroke-linecap="round" stroke-linejoin="round"/>
<path d="M33.2949 52.4851H39.6564" stroke="#A0978B" stroke-linecap="round" stroke-linejoin="round"/>
<path d="M36.4756 53.078V61.5773" stroke="#A0978B" stroke-linecap="round" stroke-linejoin="round"/>
<path d="M35.0389 55.9775L33.5806 58.124" stroke="#A0978B" stroke-linecap="round" stroke-linejoin="round"/>
<path d="M37.8823 56.0726L39.5874 58.0287" stroke="#A0978B" stroke-linecap="round" stroke-linejoin="round"/>
<path d="M47.7492 52.5587H41.3877V55.324H47.7492V52.5587Z" stroke="#A0978B" stroke-linecap="round" stroke-linejoin="round"/>
<path d="M47.7492 57.1416H41.3877V61.2917H47.7492V57.1416Z" stroke="#A0978B" stroke-linecap="round" stroke-linejoin="round"/>
<path d="M44.6807 57.1416V61.097" stroke="#A0978B" stroke-linecap="round" stroke-linejoin="round"/>
<path d="M47.3856 59.1193H41.7598" stroke="#A0978B" stroke-linecap="round" stroke-linejoin="round"/>
<path d="M40.626 46.0415C60.468 46.0415 76.5532 38.4233 76.5532 29.0256C76.5532 19.628 60.468 12.0098 40.626 12.0098C20.7839 12.0098 4.69873 19.628 4.69873 29.0256C4.69873 38.4233 20.7839 46.0415 40.626 46.0415Z" stroke="#B5AA9C" stroke-miterlimit="10" stroke-linecap="round"/>
<path d="M40.5352 43.2935C58.4771 43.2935 73.022 36.828 73.022 28.8525C73.022 20.877 58.4771 14.4115 40.5352 14.4115C22.5932 14.4115 8.04834 20.877 8.04834 28.8525C8.04834 36.828 22.5932 43.2935 40.5352 43.2935Z" fill="#E2D9CC"/>
<path d="M70.5335 32.8036C70.5335 39.3555 57.6374 43.4623 40.4528 43.4623C23.2681 43.4623 11.0602 38.9919 9.68402 32.8036C8.26459 26.4075 23.4413 19.0507 40.6259 19.0507C57.8106 19.0507 70.5335 26.2517 70.5335 32.8036Z" fill="#F4ECDF"/>
<path d="M40.626 43.6354C58.568 43.6354 73.1128 37.17 73.1128 29.1944C73.1128 21.2189 58.568 14.7534 40.626 14.7534C22.684 14.7534 8.13916 21.2189 8.13916 29.1944C8.13916 37.17 22.684 43.6354 40.626 43.6354Z" stroke="#B5AA9C" stroke-width="2" stroke-miterlimit="10" stroke-linecap="round"/>
<path d="M37.3295 33.3295C40.5439 30.1151 41.4686 25.8283 39.395 23.7547C37.3214 21.681 33.0346 22.6058 29.8202 25.8202C26.6058 29.0346 25.681 33.3214 27.7547 35.395C29.8283 37.4686 34.1151 36.5439 37.3295 33.3295Z" fill="white"/>
<path d="M53.7162 34.1352C56.9306 30.9208 57.8554 26.634 55.7817 24.5604C53.7081 22.4867 49.4213 23.4115 46.2069 26.6259C42.9925 29.8403 42.0677 34.1271 44.1414 36.2007C46.215 38.2743 50.5018 37.3496 53.7162 34.1352Z" fill="white"/>
<path d="M25.4596 33.9482C29.3964 31.6753 31.3992 27.7739 29.9329 25.2342C28.4666 22.6945 24.0865 22.4783 20.1497 24.7512C16.2129 27.0241 14.2101 30.9255 15.6764 33.4652C17.1427 36.0049 21.5228 36.2211 25.4596 33.9482Z" fill="white"/>
<path d="M26.9078 24.209H25.1205C23.8108 24.209 22.749 25.2707 22.749 26.5805V28.3677C22.749 29.6775 23.8108 30.7392 25.1205 30.7392H26.9078C28.2175 30.7392 29.2793 29.6775 29.2793 28.3677V26.5805C29.2793 25.2707 28.2175 24.209 26.9078 24.209Z" fill="#FFE68B"/>
<path d="M43.7545 26.9613H41.9672C40.6574 26.9613 39.5957 28.0231 39.5957 29.3328V31.1201C39.5957 32.4298 40.6574 33.4916 41.9672 33.4916H43.7545C45.0642 33.4916 46.126 32.4298 46.126 31.1201V29.3328C46.126 28.0231 45.0642 26.9613 43.7545 26.9613Z" fill="#FFE68B"/>
<path d="M60.2554 27.6494H58.4682C57.1584 27.6494 56.0967 28.7112 56.0967 30.0209V31.8082C56.0967 33.1179 57.1584 34.1797 58.4682 34.1797H60.2554C61.5652 34.1797 62.6269 33.1179 62.6269 31.8082V30.0209C62.6269 28.7112 61.5652 27.6494 60.2554 27.6494Z" fill="#FFE68B"/>
<path d="M29.6957 36.0073C31.7368 36.0073 33.3914 35.1102 33.3914 34.0037C33.3914 32.8971 31.7368 32 29.6957 32C27.6546 32 26 32.8971 26 34.0037C26 35.1102 27.6546 36.0073 29.6957 36.0073Z" stroke="#70A070" stroke-width="2" stroke-miterlimit="10"/>
<path d="M43.6957 26.0073C45.7368 26.0073 47.3914 25.1102 47.3914 24.0036C47.3914 22.8971 45.7368 22 43.6957 22C41.6546 22 40 22.8971 40 24.0036C40 25.1102 41.6546 26.0073 43.6957 26.0073Z" stroke="#70A070" stroke-width="2" stroke-miterlimit="10"/>
<path d="M55.6957 36.0073C57.7368 36.0073 59.3914 35.1102 59.3914 34.0037C59.3914 32.8971 57.7368 32 55.6957 32C53.6546 32 52 32.8971 52 34.0037C52 35.1102 53.6546 36.0073 55.6957 36.0073Z" stroke="#70A070" stroke-width="2" stroke-miterlimit="10"/>
<path d="M50.6796 33.8392L41.7553 36.9645C41.5083 37.051 41.3782 37.3213 41.4647 37.5683C41.5512 37.8153 41.8216 37.9454 42.0686 37.8589L50.9928 34.7337C51.2398 34.6472 51.37 34.3769 51.2835 34.1299C51.197 33.8829 50.9266 33.7527 50.6796 33.8392Z" fill="#2B3050"/>
<path d="M49.9921 31.4308L41.0678 34.556C40.8208 34.6425 40.6907 34.9129 40.7772 35.1599C40.8637 35.4069 41.1341 35.537 41.3811 35.4505L50.3053 32.3253C50.5523 32.2388 50.6825 31.9684 50.596 31.7214C50.5095 31.4744 50.2391 31.3443 49.9921 31.4308Z" fill="#2B3050"/>
<path d="M54.1181 31.4309L45.1938 34.5561C44.9468 34.6426 44.8167 34.913 44.9032 35.16C44.9897 35.407 45.2601 35.5371 45.5071 35.4506L54.4313 32.3254C54.6783 32.2389 54.8084 31.9685 54.7219 31.7215C54.6354 31.4745 54.3651 31.3444 54.1181 31.4309Z" fill="#2B3050"/>
<path d="M37.3715 22.1566L28.4472 25.2819C28.2002 25.3684 28.0701 25.6387 28.1566 25.8857C28.2431 26.1327 28.5135 26.2628 28.7605 26.1763L37.6848 23.0511C37.9318 22.9646 38.0619 22.6942 37.9754 22.4472C37.8889 22.2002 37.6185 22.0701 37.3715 22.1566Z" fill="#2B3050"/>
<path d="M39.3715 24.1566L30.4472 27.2819C30.2002 27.3684 30.0701 27.6387 30.1566 27.8857C30.2431 28.1327 30.5135 28.2628 30.7605 28.1763L39.6848 25.0511C39.9318 24.9646 40.0619 24.6942 39.9754 24.4472C39.8889 24.2002 39.6185 24.0701 39.3715 24.1566Z" fill="#2B3050"/>
<path d="M33.3715 22.1566L24.4472 25.2819C24.2002 25.3684 24.0701 25.6387 24.1566 25.8857C24.2431 26.1327 24.5135 26.2628 24.7605 26.1763L33.6848 23.0511C33.9318 22.9646 34.0619 22.6942 33.9754 22.4472C33.8889 22.2002 33.6185 22.0701 33.3715 22.1566Z" fill="#2B3050"/>
<path d="M35.3715 24.1566L26.4472 27.2819C26.2002 27.3684 26.0701 27.6387 26.1566 27.8857C26.2431 28.1327 26.5135 28.2628 26.7605 28.1763L35.6848 25.0511C35.9318 24.9646 36.0619 24.6942 35.9754 24.4472C35.8889 24.2002 35.6185 24.0701 35.3715 24.1566Z" fill="#2B3050"/>
</svg>
