<svg width="24" height="24" viewBox="0 0 24 24" fill="none" xmlns="http://www.w3.org/2000/svg">
<path d="M19 8.75C19 11.3489 17.2581 13.9343 14.5 15.5H13.585H11.5H9.41496H8.5C5.74194 13.9343 4 11.3489 4 8.75C4 5.82182 5.67807 3.66039 8.125 2.64497C8.875 2.375 10.0265 2 11.5 2C12.9735 2 14.125 2.375 14.875 2.64497C17.3219 3.66039 19 5.82182 19 8.75Z" fill="#F8D97E"/>
<path d="M11.5 2V15.5M11.5 2C10.0265 2 8.875 2.375 8.125 2.64497M11.5 2C12.9735 2 14.125 2.375 14.875 2.64497M11.5 15.5H9.41496M11.5 15.5H13.585M9.41496 15.5H8.5C5.74194 13.9343 4 11.3489 4 8.75C4 5.82182 5.67807 3.66039 8.125 2.64497M9.41496 15.5C8.85997 14.5 8.02908 10.9826 7.75 8.75C7.375 5.75 8.125 2.64497 8.125 2.64497M13.585 15.5H14.5C17.2581 13.9343 19 11.3489 19 8.75C19 5.82182 17.3219 3.66039 14.875 2.64497M13.585 15.5C14.14 14.5 14.9709 10.9826 15.25 8.75C15.625 5.75 14.875 2.64497 14.875 2.64497" stroke="#1B1B1B"/>
<path d="M8.5 15.5L10.5 20H12.5L14.5 15.5H8.5Z" stroke="#1B1B1B" stroke-linecap="round"/>
<path d="M13.75 22.5H9.25C8.69772 22.5 8.25 22.0523 8.25 21.5V19.75H14.75V21.5C14.75 22.0523 14.3023 22.5 13.75 22.5Z" fill="#F8D97E" stroke="#1B1B1B"/>
<rect x="8.25" y="18.25" width="6.5" height="1.25" fill="white" stroke="#1B1B1B"/>
</svg>
