<svg width="28" height="28" viewBox="0 0 28 28" fill="none" xmlns="http://www.w3.org/2000/svg">
<path d="M13.9844 2.49835C13.1726 2.84974 12.4864 3.43439 11.9094 4.27047C11.1596 5.35798 10.8567 6.66663 11.0763 7.97225C11.1354 8.32062 11.2263 8.66141 11.3429 8.99463C11.8018 10.2987 10.531 11.4302 9.61772 12.142C8.34088 13.1356 6.91106 13.8763 5.47215 14.6048C5.17377 14.7563 4.8769 14.9063 4.58003 15.0623C4.55125 15.0774 4.52399 15.0926 4.49521 15.1062C3.39407 15.6893 2.60343 16.9556 2.27778 18.134C2.00212 19.1306 2.05816 20.1817 2.36866 21.1632C2.97149 23.0686 4.26196 24.5742 6.12193 25.3239C10.3826 27.0431 15.2219 26.3039 19.2857 24.403C20.8139 23.6881 22.3467 22.8793 23.5509 21.6737C26.3651 18.8595 26.6771 14.4322 26.0818 10.7062C25.8092 8.99766 25.1806 7.41183 24.0219 6.1047C22.0287 3.85546 19.1539 2.10151 16.0776 2.1C15.3006 2.1 14.6054 2.23026 13.9844 2.49835Z" fill="#FAF4E5" stroke="#B7AE9A" stroke-miterlimit="10"/>
<path d="M2.32776 18.0779C2.32776 18.0779 2.36865 19.0776 2.91241 20.0106C4.10594 22.0614 7.11704 25.1937 14.1662 24.2471C15.649 23.9138 21.547 21.9085 24.1416 18.3703C24.8489 17.3085 25.9394 16.5739 26.147 11.2939" fill="#FAF4E5"/>
<path d="M2.32776 18.0779C2.32776 18.0779 2.36865 19.0776 2.91241 20.0106C4.10594 22.0614 7.11704 25.1937 14.1662 24.2471C15.649 23.9138 21.547 21.9085 24.1416 18.3703C24.8489 17.3085 25.9394 16.5739 26.147 11.2939" stroke="#B7AE9A" stroke-miterlimit="10"/>
<path d="M4.58292 17.7795C4.52687 19.0155 5.74767 20.2923 6.7958 20.783C8.04841 21.3692 9.23134 22.2977 10.5763 22.6158C11.676 22.8763 12.9013 22.7263 13.9964 22.4976C15.7988 22.122 17.6315 21.1057 19.237 20.1863C19.2916 20.1545 19.3476 20.1211 19.3855 20.0712C19.6293 19.7485 19.1265 19.1185 18.8766 18.9594C18.6266 18.8004 18.351 18.7443 18.0708 18.7216C17.6558 18.6883 17.2211 18.8761 16.8272 18.8413C14.2327 18.605 11.8168 17.878 11.1655 15.5394C10.5051 13.1629 7.42438 14.7275 6.19449 15.656C5.6886 16.0377 5.16454 16.4572 4.82526 17.001C4.66925 17.2524 4.59352 17.5145 4.5814 17.778L4.58292 17.7795Z" fill="#C08471" stroke="#AD7464" stroke-miterlimit="10"/>
<path d="M13.7586 4.80969C13.3375 5.19744 13.1557 5.76543 13.2663 6.31373C13.495 7.45122 13.7858 9.70651 12.9725 11.3423C11.9713 13.3522 13.3284 15.2683 15.9139 16.1013C16.5091 16.2937 17.1695 16.1634 17.6391 15.7666C18.9598 14.6518 19.5566 14.5988 18.3131 6.2077C18.2676 5.90023 18.1344 5.60942 17.9253 5.37011C17.1347 4.46738 15.352 3.34352 13.7586 4.80969Z" fill="#C08471" stroke="#AD7464" stroke-miterlimit="10"/>
<path d="M20.7154 8.54479C21.5469 14.0066 20.5987 14.2126 20.1307 15.7454C20.0429 16.0347 20.2171 16.3361 20.5109 16.4073C21.4121 16.6224 22.492 16.7905 23.2842 16.1831C24.1006 15.5561 24.355 14.4958 24.4065 13.5158C24.4732 12.2329 24.4156 10.582 23.6477 9.49447C23.1146 8.73867 22.2558 8.31911 21.3939 8.05254C21.0592 7.94954 20.6624 8.19794 20.7139 8.54328L20.7154 8.54479Z" fill="#C08471" stroke="#AD7464" stroke-miterlimit="10"/>
</svg>
