<svg width="28" height="28" viewBox="0 0 28 28" fill="none" xmlns="http://www.w3.org/2000/svg">
<path d="M23.5067 23.484C23.3856 22.9584 23.2902 22.3919 22.9388 21.9633C22.8115 21.8088 22.6631 21.6876 22.5025 21.5876C22.6843 21.6422 22.8736 21.6709 23.0736 21.6634C23.6279 21.6391 24.1141 21.3332 24.5867 21.0742C24.6851 21.0197 24.7836 20.9651 24.8836 20.9121C26.2452 20.1654 26.2482 18.21 24.8896 17.4587C24.7972 17.4072 24.7063 17.3573 24.6139 17.3058C23.9354 16.9301 23.3144 16.5363 22.5025 16.7878C22.033 16.9332 21.6331 17.0498 21.1833 17.3194C21.3817 17.1664 21.5089 17.1467 21.6816 16.971C21.8497 16.7984 21.9906 16.603 22.0845 16.3682C22.289 15.8532 22.2072 15.2837 22.1633 14.746C22.1542 14.6339 22.1451 14.5219 22.136 14.4098C22.0073 12.8618 20.2245 12.0636 18.984 12.9981C18.9007 13.0617 18.8159 13.1238 18.7326 13.1875C18.1131 13.654 17.5012 14.0599 17.3982 14.9035C17.3649 15.1792 17.43 15.3246 17.4482 15.6169C17.3513 15.111 17.174 14.7475 16.9726 14.3083C16.6197 13.5358 15.9124 13.3344 15.1808 13.0784C15.0823 13.0436 14.9824 13.0087 14.8839 12.9739C13.4177 12.4604 11.9622 13.7645 12.3105 15.2777C12.3363 15.3867 12.3605 15.4973 12.3863 15.6063C12.5074 16.1319 12.6029 16.6984 12.9543 17.127C13.0815 17.2815 13.2299 17.4027 13.3905 17.5027C13.2087 17.4481 13.0194 17.4194 12.8195 17.4269C12.2651 17.4512 11.7789 17.7571 11.3063 18.0161C11.2079 18.0707 11.1094 18.1252 11.0095 18.1782C9.64781 18.9264 9.64478 20.8803 11.0034 21.6316C11.0958 21.6831 11.1867 21.733 11.2791 21.7845C11.9576 22.1602 12.5786 22.554 13.3905 22.3026C13.86 22.1571 14.2599 22.0405 14.7097 21.7709C14.5113 21.9239 14.3841 21.9436 14.2114 22.1193C14.0433 22.2919 13.9024 22.4873 13.8085 22.7221C13.604 23.2371 13.6858 23.8066 13.7298 24.3443C13.7388 24.4564 13.7479 24.5685 13.757 24.6805C13.8858 26.2285 15.6685 27.0282 16.909 26.0922C16.9923 26.0286 17.0771 25.9665 17.1604 25.9028C17.7799 25.4363 18.3918 25.0304 18.4948 24.1868C18.5281 23.9111 18.463 23.7657 18.4448 23.4734C18.5418 23.9793 18.719 24.3428 18.9204 24.782C19.2733 25.5545 19.9807 25.7559 20.7122 26.0119C20.8107 26.0467 20.9107 26.0816 21.0091 26.1164C22.4753 26.6299 23.9308 25.3258 23.5825 23.8126C23.5567 23.7036 23.5325 23.593 23.5067 23.484Z" fill="#F3BB9A" stroke="#EAA292" stroke-linecap="round" stroke-linejoin="round"/>
<path d="M19.4414 13.3814C19.0218 12.827 18.6098 12.2091 17.9691 11.8895C17.7374 11.7744 17.4996 11.7092 17.2557 11.6774C17.4981 11.6441 17.7374 11.5805 17.9691 11.4654C18.6098 11.1458 19.0218 10.5278 19.4414 9.97346C19.5292 9.85683 19.6171 9.74172 19.7049 9.6251C20.9136 8.02564 19.8867 5.72187 17.8889 5.55375C17.7541 5.54163 17.6193 5.53103 17.4844 5.51891C16.4878 5.43409 15.5487 5.29778 14.7233 6.02177C14.2462 6.44133 13.8372 6.7897 13.4495 7.34557C13.6024 7.06082 13.7418 6.97145 13.8523 6.67307C13.9599 6.38226 14.0235 6.0763 14.0084 5.75065C13.9765 5.03574 13.5812 4.40717 13.245 3.79828C13.1753 3.67105 13.1041 3.54383 13.0344 3.4166C12.0666 1.66113 9.5432 1.66113 8.57535 3.4166C8.51022 3.53474 8.44509 3.65439 8.37996 3.77253C7.89679 4.64951 7.38939 5.45075 7.71503 6.49888C7.82106 6.84119 7.97404 6.97902 8.14973 7.31376C7.76805 6.77 7.36818 6.43375 6.90016 6.02329C6.0762 5.29929 5.13712 5.43561 4.13897 5.52043C4.00417 5.53254 3.86937 5.54315 3.73457 5.55527C1.73676 5.72339 0.709834 8.02867 1.91851 9.62661C2.00636 9.74324 2.09421 9.85835 2.18206 9.97498C2.60162 10.5293 3.0136 11.1473 3.65429 11.4669C3.88603 11.582 4.12383 11.6471 4.36768 11.6789C4.12534 11.7123 3.88603 11.7759 3.65429 11.891C3.0136 12.2106 2.60162 12.8286 2.18206 13.3829C2.09421 13.4995 2.00636 13.6147 1.91851 13.7313C0.709834 15.3307 1.73676 17.6345 3.73457 17.8026C3.86937 17.8147 4.00417 17.8253 4.13897 17.8375C5.13561 17.9223 6.07468 18.0586 6.90016 17.3346C7.37727 16.915 7.78622 16.5667 8.17397 16.0108C8.02099 16.2956 7.88164 16.3849 7.77108 16.6833C7.66354 16.9741 7.59992 17.2801 7.61507 17.6057C7.64688 18.3206 8.0422 18.9492 8.37845 19.5581C8.44812 19.6853 8.51931 19.8125 8.58898 19.9398C9.55683 21.6952 12.0802 21.6952 13.0481 19.9398C13.1132 19.8216 13.1783 19.702 13.2435 19.5838C13.7266 18.7069 14.234 17.9056 13.9084 16.8575C13.8024 16.5152 13.6494 16.3774 13.4737 16.0426C13.8554 16.5864 14.2552 16.9226 14.7233 17.3331C15.5472 18.0571 16.4863 17.9208 17.4844 17.8359C17.6193 17.8238 17.7541 17.8132 17.8889 17.8011C19.8867 17.633 20.9136 15.3277 19.7049 13.7298C19.6171 13.6131 19.5292 13.498 19.4414 13.3814Z" fill="#FFE68B" stroke="#EFCA70" stroke-linecap="round" stroke-linejoin="round"/>
<path d="M17.3512 10.5081C17.3512 10.5081 18.8598 9.32516 19.1445 8.36488Z" fill="#FFE68B"/>
<path d="M17.3512 10.5081C17.3512 10.5081 18.8598 9.32516 19.1445 8.36488" stroke="#EFCA70" stroke-width="0.5" stroke-linecap="round" stroke-linejoin="round"/>
<path d="M17.2179 9.6084C17.2179 9.6084 18.1388 8.89652 18.3054 8.35428Z" fill="#FFE68B"/>
<path d="M17.2179 9.6084C17.2179 9.6084 18.1388 8.89652 18.3054 8.35428" stroke="#EFCA70" stroke-width="0.5" stroke-linecap="round" stroke-linejoin="round"/>
<path d="M22.8977 20.6895C22.8977 20.6895 24.2639 20.3336 24.738 19.7701Z" fill="#F3BB9A"/>
<path d="M22.8977 20.6895C22.8977 20.6895 24.2639 20.3336 24.738 19.7701" stroke="#EAA292" stroke-width="0.5" stroke-linecap="round" stroke-linejoin="round"/>
<path d="M23.072 19.8912C23.072 19.8912 23.9036 19.6822 24.1747 19.3642Z" fill="#F3BB9A"/>
<path d="M23.072 19.8912C23.072 19.8912 23.9036 19.6822 24.1747 19.3642" stroke="#EAA292" stroke-width="0.5" stroke-linecap="round" stroke-linejoin="round"/>
</svg>
