<svg width="28" height="28" viewBox="0 0 28 28" fill="none" xmlns="http://www.w3.org/2000/svg">
<path d="M20.5846 7.91199C20.7815 7.71054 20.9633 7.48485 21.1223 7.23191C22.0826 5.71424 21.8978 3.87244 20.7073 3.11967C19.5319 2.37598 17.8174 2.97426 16.8495 4.45406C16.3512 3.46652 15.4061 2.80008 14.3201 2.80008C13.2341 2.80008 12.2905 3.46652 11.7906 4.45406C10.8228 2.97426 9.1082 2.3775 7.93285 3.11967C6.74385 3.87244 6.55756 5.71273 7.51784 7.23191C7.62235 7.39701 7.73594 7.5515 7.85711 7.69388C4.40677 9.4039 2.09998 12.5059 2.09998 16.0516C2.09998 21.4422 7.4315 25.8105 14.0096 25.8105C20.5876 25.8105 25.9177 21.4407 25.9177 16.0516C25.9177 12.6528 23.7972 9.65988 20.5801 7.91199H20.5846Z" fill="#F9F4E8" stroke="#B7AE9A" stroke-linecap="round" stroke-linejoin="round"/>
<path d="M11.0226 9.31311L8.58252 11.8683" stroke="#B7AE9A" stroke-linecap="round" stroke-linejoin="round"/>
<path d="M14.6942 9.1722L14.6699 12.7059" stroke="#B7AE9A" stroke-linecap="round" stroke-linejoin="round"/>
<path d="M17.984 9.31311L20.4423 11.8516" stroke="#B7AE9A" stroke-linecap="round" stroke-linejoin="round"/>
</svg>
