<svg width="28" height="28" viewBox="0 0 28 28" fill="none" xmlns="http://www.w3.org/2000/svg">
<path d="M11.5055 2.17817C13.7608 1.79951 16.0964 2.85218 17.8897 4.13659C21.1825 6.4964 22.9744 10.5223 23.3318 14.4801C23.5227 16.599 23.3318 18.7801 22.5412 20.7552C21.7505 22.7303 20.3237 24.4888 18.432 25.4642C16.6098 26.4048 14.4803 26.576 12.434 26.4336C10.1196 26.273 7.67348 25.6429 6.1437 23.8981C4.70025 22.2517 4.34279 19.9328 4.23828 17.7456C4.09439 14.7315 4.32765 11.6492 5.41819 8.835C5.96043 7.43547 6.68442 6.05412 7.6447 4.87422C8.60499 3.69432 9.92423 2.44171 11.5055 2.17665V2.17817Z" fill="#F9F4E8" stroke="#B7AE9A" stroke-miterlimit="10"/>
<path d="M18.0594 4.29716C18.0594 4.29716 26.7291 16.4324 18.0215 25.6066L18.0594 4.29716Z" fill="#F9F4E8"/>
<path d="M18.0594 4.29716C18.0594 4.29716 26.7291 16.4324 18.0215 25.6066" stroke="#B7AE9A" stroke-miterlimit="10"/>
<path d="M12.6688 24.2798C15.8409 24.2798 18.4123 21.9843 18.4123 19.1527C18.4123 16.3211 15.8409 14.0257 12.6688 14.0257C9.49675 14.0257 6.92529 16.3211 6.92529 19.1527C6.92529 21.9843 9.49675 24.2798 12.6688 24.2798Z" fill="#FFE68B" stroke="#F9D87A" stroke-miterlimit="10"/>
</svg>
