<svg width="28" height="28" viewBox="0 0 28 28" fill="none" xmlns="http://www.w3.org/2000/svg">
<path d="M8.04784 2.1313C7.37382 2.28428 6.95124 2.95375 7.10422 3.62776L7.57527 5.70888L6.9785 5.26509C6.42263 4.85311 5.63957 4.96973 5.22758 5.5256C4.8156 6.08148 4.93223 6.86454 5.4881 7.27653L8.42498 9.45458L8.65521 10.4739C8.80819 11.1479 9.47766 11.5705 10.1517 11.4175C10.8257 11.2646 11.2483 10.5951 11.0953 9.92109L9.54581 3.07492C9.39284 2.40091 8.72337 1.97832 8.04935 2.1313H8.04784Z" fill="#FFE68B" stroke="#F9D87A" stroke-miterlimit="10"/>
<path d="M19.5136 2.1313C20.1876 2.28428 20.6102 2.95375 20.4572 3.62776L19.9861 5.70888L20.5829 5.26509C21.1388 4.85311 21.9218 4.96973 22.3338 5.5256C22.7458 6.08148 22.6292 6.86454 22.0733 7.27653L19.1364 9.45458L18.9062 10.4739C18.7532 11.1479 18.0838 11.5705 17.4097 11.4175C16.7357 11.2646 16.3131 10.5951 16.4661 9.92109L18.0156 3.07492C18.1686 2.40091 18.838 1.97832 19.5121 2.1313H19.5136Z" fill="#FFE68B" stroke="#F9D87A" stroke-miterlimit="10"/>
<path d="M25.4283 16.7279C25.3026 16.2523 25.1905 15.8403 25.1481 15.6525C24.8073 14.1424 24.2953 12.758 23.1381 11.5932C24.0863 10.4482 24.4271 9.22737 23.8879 8.52458C23.1881 7.61277 21.2676 7.90661 19.5242 9.16073C17.796 8.40341 15.8012 7.96871 13.6762 7.96416C13.6762 7.96416 13.6671 7.96416 13.6626 7.96416C13.658 7.96416 13.6535 7.96416 13.6489 7.96416C11.5239 7.96871 9.52911 8.40341 7.80091 9.16073C6.05756 7.90661 4.13549 7.61277 3.43724 8.52458C2.89803 9.22737 3.23882 10.4482 4.18698 11.5932C3.0298 12.7595 2.51785 14.1439 2.17706 15.6525C2.13465 15.8403 2.02257 16.2523 1.89685 16.7279C3.79015 17.0005 7.93117 18.3319 5.30327 24.8221C7.51464 25.9853 10.4697 26.5579 13.6504 26.5609C13.6504 26.5609 13.6595 26.5609 13.6641 26.5609C13.6686 26.5609 13.6732 26.5609 13.6777 26.5609C16.8569 26.5579 19.812 25.9853 22.0249 24.8221C19.397 18.3319 23.5395 17.0005 25.4313 16.7279H25.4283Z" fill="#ACDBD6" stroke="#8BC6BD" stroke-miterlimit="10"/>
<path d="M1.8938 16.7279C1.66963 17.5745 1.40002 18.6212 1.40002 18.9726C1.40002 20.3554 1.81352 21.5429 2.54358 22.541C2.63748 22.6668 2.73442 22.7894 2.83439 22.9106C3.47811 23.6664 4.3157 24.3026 5.30022 24.8206C7.92811 18.3303 3.78558 16.999 1.8938 16.7263V16.7279Z" fill="#FFE68B" stroke="#F9D87A" stroke-linecap="round" stroke-linejoin="round"/>
<path d="M25.4435 16.7279C25.6676 17.5745 25.9372 18.6212 25.9372 18.9726C25.9372 20.3554 25.5237 21.5429 24.7937 22.541C24.6998 22.6668 24.6028 22.7894 24.5029 22.9106C23.8591 23.6664 23.0215 24.3026 22.037 24.8206C19.4091 18.3303 23.5517 16.999 25.4435 16.7263V16.7279Z" fill="#FFE68B" stroke="#F9D87A" stroke-linecap="round" stroke-linejoin="round"/>
<path d="M10.4757 16.3689V18.3788" stroke="#4C4C4C" stroke-linecap="round" stroke-linejoin="round"/>
<path d="M17.1721 16.3689V18.3788" stroke="#4C4C4C" stroke-linecap="round" stroke-linejoin="round"/>
<path d="M10.1608 19.7814C10.1608 19.7814 12.1253 21.1855 13.7565 19.7814" stroke="#4C4C4C" stroke-linecap="round" stroke-linejoin="round"/>
<path d="M17.3265 19.7814C17.3265 19.7814 15.362 21.1855 13.7307 19.7814" stroke="#4C4C4C" stroke-linecap="round" stroke-linejoin="round"/>
</svg>
