<svg width="28" height="28" viewBox="0 0 28 28" fill="none" xmlns="http://www.w3.org/2000/svg">
<path d="M11.7185 7.30358C11.7185 7.30358 1.17205 12.1716 1.40379 16.4596C1.48406 17.95 1.87938 19.6267 2.68971 20.8884C3.19863 21.6805 3.91506 22.3136 4.79507 22.665C5.66447 23.0119 6.60354 23.0649 7.51535 23.2224C8.40899 23.3754 9.18448 23.6814 9.97967 24.11C10.7582 24.5296 11.3807 24.9355 12.2728 25.0142C14.4176 25.2051 15.5702 25.4838 17.4453 24.3417C18.0618 23.9661 19.0751 23.3648 19.7627 23.2982C22.0301 23.0785 24.7747 21.6442 25.326 19.4737C25.5774 18.4846 26.1378 16.9246 25.9061 15.7659C25.641 14.4375 24.7216 13.2985 23.7038 12.4049C20.6882 9.75427 15.708 7.3051 15.708 7.3051L15.6656 3.4458C15.6611 3.07774 15.3566 2.78542 14.9886 2.80056C13.892 2.84297 11.8336 3.00201 11.8336 3.59575C11.8336 4.18949 11.717 7.30358 11.717 7.30358H11.7185Z" fill="#E1D3AF" stroke="#A59B83" stroke-miterlimit="10" stroke-linecap="round" stroke-linejoin="round"/>
<path d="M11.7668 3.67603C11.7668 6.78103 12.1939 9.67702 10.6823 12.52C9.50092 14.7405 8.44825 16.9867 8.2983 19.5403C8.21954 20.8657 8.35888 22.197 8.63909 23.4935" stroke="#A59B83" stroke-miterlimit="10" stroke-linecap="round" stroke-linejoin="round"/>
<path d="M16.1715 9.73762C16.9197 11.122 17.5983 12.5503 18.192 14.0089C18.8161 15.5372 19.2659 17.1533 19.4583 18.7967C19.637 20.3295 19.7551 22.2682 18.7646 23.5496" fill="#E1D3AF"/>
<path d="M16.1715 9.73762C16.9197 11.122 17.5983 12.5503 18.192 14.0089C18.8161 15.5372 19.2659 17.1533 19.4583 18.7967C19.637 20.3295 19.7551 22.2682 18.7646 23.5496" stroke="#A59B83" stroke-miterlimit="10" stroke-linecap="round" stroke-linejoin="round"/>
<path d="M10.2417 9.08483C10.2417 9.08483 7.9697 10.2965 7.06091 11.0539Z" fill="#E1D3AF"/>
<path d="M10.2417 9.08483C10.2417 9.08483 7.9697 10.2965 7.06091 11.0539" stroke="#A59B83" stroke-width="0.7" stroke-miterlimit="10" stroke-linecap="round" stroke-linejoin="round"/>
<path d="M9.75998 10.3723C9.75998 10.3723 8.70579 10.8645 8.42407 11.3568Z" fill="#E1D3AF"/>
<path d="M9.75998 10.3723C9.75998 10.3723 8.70579 10.8645 8.42407 11.3568" stroke="#A59B83" stroke-width="0.7" stroke-miterlimit="10" stroke-linecap="round" stroke-linejoin="round"/>
<path d="M22.7435 21.5094C22.7435 21.5094 24.2521 20.3264 24.5369 19.3662Z" fill="#E1D3AF"/>
<path d="M22.7435 21.5094C22.7435 21.5094 24.2521 20.3264 24.5369 19.3662" stroke="#A59B83" stroke-width="0.7" stroke-miterlimit="10" stroke-linecap="round" stroke-linejoin="round"/>
<path d="M22.7616 20.6097C22.7616 20.6097 23.6825 19.8978 23.8491 19.3556Z" fill="#E1D3AF"/>
<path d="M22.7616 20.6097C22.7616 20.6097 23.6825 19.8978 23.8491 19.3556" stroke="#A59B83" stroke-width="0.7" stroke-miterlimit="10" stroke-linecap="round" stroke-linejoin="round"/>
<path d="M25.0002 17.9622L24.776 18.6892" stroke="#A59B83" stroke-width="0.7" stroke-miterlimit="10" stroke-linecap="round" stroke-linejoin="round"/>
</svg>
