<svg width="28" height="28" viewBox="0 0 28 28" fill="none" xmlns="http://www.w3.org/2000/svg">
<path d="M16.8747 15.6532C16.8156 15.5548 16.6672 15.5896 16.6551 15.7032L16.5142 17.1875C16.4127 18.2599 15.5282 19.1051 14.4513 19.1172C14.4407 19.1172 14.4301 19.1172 14.4194 19.1172C13.3592 19.1172 13.0108 17.0118 13.0108 17.0118C13.0108 17.0118 12.7533 16.2394 12.6019 16.9967C12.1323 19.0006 10.1467 19.8048 8.49116 20.1244C8.34576 21.5997 8.18824 23.1173 8.10493 23.9201C8.04435 24.5002 8.20641 25.0833 8.57598 25.5347C8.88042 25.9058 9.34239 26.2602 10.03 26.3662C11.3781 26.5737 16.1068 26.4692 17.6275 26.4283C18.0561 26.4177 18.4772 26.2981 18.8346 26.0633C19.2784 25.771 19.7449 25.1242 19.6692 24.376C19.5768 23.4506 19.4011 20.3274 19.2739 17.9221C18.2848 17.8328 17.2791 16.3257 16.8762 15.6517L16.8747 15.6532Z" fill="#FAF4E5" stroke="#B7AE9A" stroke-miterlimit="10"/>
<path d="M19.7615 14.2719L23.6617 10.2672C24.01 9.90971 24.469 9.6189 24.416 9.1221C24.269 7.74075 23.4269 4.74025 21.3367 3.27257C20.8672 2.94237 20.2356 2.96509 19.7903 3.32558C18.468 4.39491 15.9431 6.40332 15.7401 6.5048C15.5523 6.59871 14.3027 3.57701 13.7029 2.09266C13.5091 1.61252 13.0107 1.33231 12.4988 1.4141C10.6843 1.70189 6.49022 2.55917 3.91685 4.61605C3.48973 4.95684 3.37461 5.55815 3.64724 6.03224C4.98921 8.3572 8.89092 15.2685 8.78793 16.8119C8.74097 17.5223 8.62132 18.8082 8.49106 20.129C10.1466 19.8094 12.1322 19.0051 12.6018 17.0012C12.7532 16.2439 13.0107 17.0164 13.0107 17.0164C13.0107 17.0164 13.3591 19.1217 14.4193 19.1217C15.4796 19.1217 16.3884 18.5159 16.3884 18.5159L16.6565 15.7077C16.6671 15.5941 16.817 15.5593 16.8761 15.6578C17.279 16.3318 18.2847 17.8404 19.2738 17.9282C19.2314 17.1179 19.1935 16.3893 19.1662 15.8547C19.1359 15.2685 19.3525 14.696 19.7615 14.2764V14.2719Z" fill="#82AE83" stroke="#70A070" stroke-miterlimit="10"/>
<path d="M3.73071 4.85383C3.82008 5.10526 5.97692 4.56756 8.54878 3.65424C11.1206 2.74091 13.1321 1.79729 13.0427 1.54586" fill="#82AE83"/>
<path d="M3.73071 4.85383C3.82008 5.10526 5.97692 4.56756 8.54878 3.65424C11.1206 2.74091 13.1321 1.79729 13.0427 1.54586" stroke="#70A070" stroke-miterlimit="10"/>
<path d="M20.8385 2.97112C20.631 3.09077 21.5262 5.53994 22.4153 7.08033C23.3043 8.62072 24.2101 9.2402 24.4161 9.12055" stroke="#70A070" stroke-miterlimit="10"/>
<path d="M5.02869 5.93983L6.54332 8.81765" stroke="#70A070" stroke-width="0.7" stroke-linecap="round" stroke-linejoin="round"/>
<path d="M5.9375 5.48541L6.77055 7.07578" stroke="#70A070" stroke-width="0.7" stroke-linecap="round" stroke-linejoin="round"/>
<path d="M18.4165 20.709L18.4907 23.1325" stroke="#B7AE9A" stroke-width="0.7" stroke-miterlimit="10" stroke-linecap="round"/>
<path d="M18.2848 19.1929L18.3393 19.9518" stroke="#B7AE9A" stroke-width="0.7" stroke-miterlimit="10" stroke-linecap="round"/>
<path d="M17.6743 21.1104L17.7167 22.3827" stroke="#B7AE9A" stroke-width="0.7" stroke-miterlimit="10" stroke-linecap="round"/>
</svg>
