<svg width="28" height="28" viewBox="0 0 28 28" fill="none" xmlns="http://www.w3.org/2000/svg">
<path d="M10.8152 16.2773C10.7773 16.2909 10.7743 17.0376 10.7727 17.0876C10.7667 17.6601 10.7091 18.2326 10.6061 18.7961C10.4622 19.5852 10.2275 20.3592 9.89577 21.0893C9.42926 22.1116 8.55531 22.7811 8.52502 23.9671C8.51593 24.3033 8.60833 24.5941 8.83704 24.8456C10.0745 26.2102 12.3222 26.2981 14.0307 26.2193C15.8407 26.136 17.8476 25.6589 19.0139 24.1549C19.2623 23.8338 19.4607 23.4763 19.6061 23.0977C20.1165 21.7527 19.644 20.2441 19.4304 18.8885C19.3183 18.1766 19.1972 17.4647 19.0714 16.7544C19.0548 16.662 18.9972 15.8895 18.9079 15.8516C18.9079 15.8516 15.0652 14.6975 10.8152 16.2757V16.2773Z" fill="#F3EBD3" stroke="#B7AE9A" stroke-miterlimit="10"/>
<path d="M11.3879 2.13353C11.3879 2.13353 5.18091 5.57024 2.51061 10.4292C2.28341 10.8427 2.15012 11.3016 2.12286 11.7727C2.03198 13.2843 2.04258 16.4908 5.60804 17.1375C5.80948 17.1739 6.01548 17.1875 6.22147 17.1845C7.79669 17.1618 8.84331 16.9603 9.32496 16.8452C9.48703 16.8058 9.64607 16.7528 9.80056 16.6877C10.773 16.2772 15.7289 14.3885 20.5621 16.3014C20.7135 16.3605 20.868 16.4135 21.0255 16.4499C21.6935 16.6074 22.3887 16.8497 23.0839 16.8134C24.4032 16.7452 25.3453 15.6017 25.8239 14.4687C26.401 13.101 26.3798 11.5243 25.936 10.1217C25.5073 8.76764 24.4774 7.78767 23.4535 6.85465C22.6704 6.14126 21.848 5.4733 21.0165 4.81746C20.9528 4.76748 20.8847 4.71901 20.818 4.67357C17.2374 2.2759 15.0579 0.26749 11.3894 2.13201L11.3879 2.13353Z" fill="#9B8B75" stroke="#82705E" stroke-miterlimit="10"/>
<path d="M17.1936 24.5048C17.1936 24.5048 18.7022 23.3218 18.9869 22.3615Z" fill="#F3EBD3"/>
<path d="M17.1936 24.5048C17.1936 24.5048 18.7022 23.3218 18.9869 22.3615" stroke="#B7AE9A" stroke-width="0.7" stroke-miterlimit="10" stroke-linecap="round"/>
<path d="M4.91896 9.12658C4.91896 9.12658 3.4331 10.5079 3.21802 11.5455Z" fill="#9B8B75"/>
<path d="M4.91896 9.12658C4.91896 9.12658 3.4331 10.5079 3.21802 11.5455" stroke="#82705E" stroke-width="0.7" stroke-miterlimit="10" stroke-linecap="round"/>
<path d="M5.03388 10.1444C5.03388 10.1444 4.17659 10.9305 4.05542 11.4849Z" fill="#9B8B75"/>
<path d="M5.03388 10.1444C5.03388 10.1444 4.17659 10.9305 4.05542 11.4849" stroke="#82705E" stroke-width="0.7" stroke-miterlimit="10" stroke-linecap="round"/>
<path d="M17.0603 23.6051C17.0603 23.6051 17.9812 22.8932 18.1478 22.351Z" fill="#F3EBD3"/>
<path d="M17.0603 23.6051C17.0603 23.6051 17.9812 22.8932 18.1478 22.351" stroke="#B7AE9A" stroke-width="0.7" stroke-miterlimit="10" stroke-linecap="round"/>
<path d="M6.28658 7.66198L5.35205 8.66315" stroke="#82705E" stroke-width="0.7" stroke-miterlimit="10" stroke-linecap="round"/>
</svg>
