<svg width="28" height="28" viewBox="0 0 28 28" fill="none" xmlns="http://www.w3.org/2000/svg">
<g clip-path="url(#clip0_1869_8765)">
<path d="M23.5889 21.2587C26.7714 17.5469 27.4111 12.8742 25.0176 10.8221C22.6241 8.76987 18.1039 10.1153 14.9213 13.8271C11.7388 17.5389 11.0991 22.2116 13.4926 24.2638C15.8861 26.316 20.4063 24.9706 23.5889 21.2587Z" fill="#F9F4E8" stroke="#B7AE9A" stroke-miterlimit="10"/>
<path d="M12.0502 20.9421C12.7939 23.1974 15.087 24.3864 17.3741 24.0577C19.4446 23.7593 21.2274 22.4537 22.6178 20.9557C24.0067 19.4608 25.126 17.6871 25.9243 15.8105C26.1302 15.3258 26.3135 14.829 26.465 14.3231" fill="#F9F4E8"/>
<path d="M12.0502 20.9421C12.7939 23.1974 15.087 24.3864 17.3741 24.0577C19.4446 23.7593 21.2274 22.4537 22.6178 20.9557C24.0067 19.4608 25.126 17.6871 25.9243 15.8105C26.1302 15.3258 26.3135 14.829 26.465 14.3231" stroke="#B7AE9A" stroke-miterlimit="10"/>
<path d="M16.4781 15.3487C18.6576 9.6829 17.4623 3.95043 13.8085 2.54491C10.1546 1.1394 5.42575 4.59307 3.24629 10.2589C1.06684 15.9247 2.26209 21.6572 5.91596 23.0627C9.56983 24.4682 14.2987 21.0146 16.4781 15.3487Z" fill="#F9F4E8" stroke="#B7AE9A" stroke-miterlimit="10"/>
<path d="M2.84717 19.7758C4.65413 22.1038 7.83336 22.5431 10.3719 21.2072C12.6711 19.997 14.2115 17.7296 15.2172 15.397C16.2199 13.0705 16.7909 10.529 16.9454 8.00255C16.9848 7.34822 16.9924 6.69239 16.959 6.03806" fill="#F9F4E8"/>
<path d="M2.84717 19.7758C4.65413 22.1038 7.83336 22.5431 10.3719 21.2072C12.6711 19.997 14.2115 17.7296 15.2172 15.397C16.2199 13.0705 16.7909 10.529 16.9454 8.00255C16.9848 7.34822 16.9924 6.69239 16.959 6.03806" stroke="#B7AE9A" stroke-miterlimit="10"/>
</g>
<defs>
<clipPath id="clip0_1869_8765">
<rect width="28" height="28" fill="white"/>
</clipPath>
</defs>
</svg>
