<svg width="28" height="28" viewBox="0 0 28 28" fill="none" xmlns="http://www.w3.org/2000/svg">
<path d="M10.1205 20.5235L11.7003 21.4641L12.6727 22.4789C12.8256 22.6395 13.0013 22.7773 13.1922 22.8909L14.4448 23.6301L15.134 24.3844C15.3263 24.5949 15.555 24.7706 15.808 24.9024L16.5592 25.2931L17.5271 26.205C17.8073 26.4261 18.1239 26.3034 18.345 26.0232L19.4658 24.9402C19.5612 24.8478 19.6446 24.7464 19.7157 24.6358L20.9956 22.6546L22.2361 21.4202C22.3376 21.3202 22.4254 21.2066 22.4981 21.0855L23.3675 19.6405L24.1915 18.9059C24.3172 18.7938 24.4263 18.6636 24.5141 18.5197L25.4502 16.9929L27.0436 15.3526C27.2647 15.0724 27.195 14.4953 26.9148 14.2741L26.2908 13.6653C26.1726 13.5501 26.0363 13.4547 25.8864 13.3851L25.1548 13.0397L24.5262 12.3157C24.3945 12.1643 24.2354 12.0385 24.0582 11.9446L23.16 11.4706L22.227 10.48C22.1149 10.3618 21.9877 10.2604 21.8453 10.1801L20.6821 9.52121L19.6233 8.38523C19.3431 8.1641 18.8585 8.30647 18.6388 8.58668L17.9406 9.66662L16.9303 10.639C16.7758 10.7875 16.6441 10.9571 16.538 11.1434L15.917 12.2385L14.9658 13.1412C14.8053 13.2942 14.669 13.4684 14.5599 13.6622L13.9631 14.7225L13.0877 15.5328C12.9302 15.6782 12.7938 15.8479 12.6848 16.0326L11.9396 17.2943L10.9808 18.194C10.8521 18.3152 10.737 18.4515 10.64 18.6L10.0523 19.5012C9.83121 19.7814 9.80698 20.2857 10.1175 20.5235H10.1205Z" fill="#67757E" stroke="#526068" stroke-miterlimit="10" stroke-linejoin="round"/>
<path d="M20.3731 10.8465L20.4882 11.0904C20.5397 11.2009 20.4685 11.3297 20.3474 11.3433L19.9672 11.3888C19.8763 11.3994 19.8188 11.2964 19.8748 11.2237L20.1883 10.8238C20.2383 10.7602 20.3383 10.7708 20.3716 10.845L20.3731 10.8465Z" fill="#6F7B82" stroke="#526068" stroke-miterlimit="10" stroke-linejoin="round"/>
<path d="M19.481 11.3842L19.3855 11.825C19.381 11.8431 19.3719 11.8613 19.3583 11.8749L18.8706 12.3475C18.8191 12.396 18.7357 12.3778 18.7115 12.3112L18.4555 11.6099C18.4313 11.5432 18.4843 11.4736 18.5555 11.4796L18.8645 11.5039C18.916 11.5084 18.9614 11.4721 18.969 11.4206C18.9932 11.2403 19.0871 10.8919 19.4582 11.2994C19.4794 11.3221 19.4885 11.3554 19.481 11.3857V11.3842Z" fill="#6F7B82" stroke="#526068" stroke-width="0.7" stroke-linecap="round" stroke-linejoin="round"/>
<path d="M20.1794 21.3536L19.8431 21.6898L18.901 21.8231L19.3054 21.2854C19.3054 21.2854 19.6417 21.6217 20.1794 21.3536Z" fill="#6F7B82" stroke="#526068" stroke-width="0.7" stroke-linecap="round" stroke-linejoin="round"/>
<path d="M18.8539 24.0738L18.3874 23.8679C18.3389 23.8467 18.2844 23.8633 18.2556 23.9072C18.1253 24.1132 17.7845 24.6842 17.8572 24.9175C17.9466 25.2038 18.8705 24.1269 18.8705 24.1269L18.8539 24.0738Z" fill="#6F7B82" stroke="#526068" stroke-width="0.7" stroke-linecap="round" stroke-linejoin="round"/>
<path d="M19.3688 23.4377L19.1674 23.7058L18.4949 23.3696L18.9659 22.9667L19.3688 23.4377Z" fill="#6F7B82" stroke="#526068" stroke-width="0.7" stroke-linecap="round" stroke-linejoin="round"/>
<path d="M11.9639 19.3239L11.4973 20.1116C11.4459 20.1979 11.5246 20.3024 11.6215 20.2782L12.1062 20.154C12.1941 20.1313 12.2471 20.0419 12.2259 19.9525L12.1956 19.4542L12.1093 19.3209C12.0744 19.2679 11.9972 19.2694 11.9654 19.3239H11.9639Z" fill="#6F7B82" stroke="#526068" stroke-linecap="round" stroke-linejoin="round"/>
<path d="M11.617 24.2344L9.67677 22.9197L7.98037 22.3456C7.71228 22.2548 7.45782 22.1275 7.22457 21.9685L5.69478 20.9234L4.45127 20.5372C4.1029 20.4296 3.77725 20.26 3.48796 20.0388L2.63067 19.383L1.05545 18.7605C0.649527 18.556 0.61923 18.1243 0.823706 17.7184L1.46743 15.8403C1.52195 15.6812 1.59466 15.5282 1.68402 15.3859L3.27742 12.8367L4.0302 10.7374C4.09078 10.5663 4.17409 10.4042 4.27406 10.2543L5.47213 8.47003L5.87502 7.12201C5.93712 6.91602 6.028 6.72063 6.14615 6.54039L7.40027 4.63497L8.43173 1.91014C8.63621 1.50421 9.339 1.27096 9.74644 1.47544L10.7855 1.86621C10.9824 1.94043 11.1657 2.04645 11.3277 2.18126L12.1214 2.83861L13.2967 3.17183C13.5436 3.2415 13.7739 3.35662 13.9783 3.51111L15.0098 4.29115L16.6562 4.83187C16.8531 4.897 17.0379 4.9894 17.2075 5.10905L18.5965 6.09357L20.4792 6.70094C20.8851 6.90541 20.9835 7.54005 20.7791 7.94748L19.9097 9.33792L19.3341 11.0298C19.2463 11.2873 19.122 11.5326 18.9645 11.7538L18.0361 13.0624L17.509 14.6482C17.4196 14.9163 17.2909 15.1693 17.1273 15.398L16.2276 16.6582L15.7656 18.1077C15.6823 18.3682 15.5611 18.6166 15.4066 18.8423L14.354 20.3827L13.8344 21.9761C13.7648 22.1911 13.6694 22.3956 13.5497 22.588L12.8272 23.7542C12.6227 24.1602 12.0547 24.4616 11.6125 24.2329L11.617 24.2344Z" fill="#67757E" stroke="#526068" stroke-miterlimit="10" stroke-linejoin="round"/>
<path d="M17.238 7.17504H16.8941C16.7396 7.17504 16.6291 7.32651 16.6775 7.47343L16.8305 7.9369C16.8669 8.04747 17.0183 8.05808 17.0698 7.95508L17.3606 7.37649C17.4076 7.2841 17.3394 7.17656 17.2364 7.17504H17.238Z" fill="#6F7B82" stroke="#526068" stroke-width="0.7" stroke-miterlimit="10" stroke-linejoin="round"/>
<path d="M5.22064 13.0791L5.01465 13.6486L5.37059 14.8073L5.77197 14.05C5.77197 14.05 5.20247 13.844 5.22064 13.0791Z" fill="#6F7B82" stroke="#526068" stroke-width="0.7" stroke-linecap="round" stroke-linejoin="round"/>
<path d="M2.79731 16.0796L3.28653 16.5067C3.33652 16.5506 3.34864 16.6233 3.31228 16.6794C3.14567 16.9414 2.67159 17.6427 2.3626 17.6851C1.98243 17.7366 2.72612 16.0887 2.72612 16.0887L2.79731 16.0796Z" fill="#6F7B82" stroke="#526068" stroke-width="0.7" stroke-linecap="round" stroke-linejoin="round"/>
<path d="M3.25467 15.1405L3.05322 15.5192L3.806 16.1114L4.01653 15.351L3.25467 15.1405Z" fill="#6F7B82" stroke="#526068" stroke-width="0.7" stroke-linecap="round" stroke-linejoin="round"/>
<path d="M12.0048 21.4611L11.3489 22.4259C11.2778 22.5319 11.1142 22.4971 11.0899 22.3729L10.9703 21.7458C10.9491 21.6322 11.0233 21.5217 11.1369 21.5005L11.7291 21.2672L11.9291 21.2945C12.0093 21.3051 12.0487 21.3959 12.0048 21.4626V21.4611Z" fill="#6F7B82" stroke="#526068" stroke-width="0.7" stroke-linecap="round" stroke-linejoin="round"/>
</svg>
