<svg width="28" height="28" viewBox="0 0 28 28" fill="none" xmlns="http://www.w3.org/2000/svg">
<path d="M25.788 15.047C25.691 14.7744 25.5684 14.4972 25.4835 14.2109C25.4305 14.0307 25.3927 13.8474 25.3866 13.6596C25.3927 13.4718 25.4305 13.2885 25.4835 13.1083C25.5684 12.8235 25.691 12.5448 25.788 12.2722C25.9379 11.8526 26.0712 11.427 26.1818 10.9923C26.3923 10.1623 26.6331 9.14296 26.2605 8.32657C26.1788 8.14633 26.0621 7.99183 25.9137 7.87975C24.5263 6.83768 21.8666 9.04451 21.8666 9.04451C22.1241 10.2714 22.2422 11.9875 22.2876 13.6581C22.2422 15.3287 22.1241 17.0448 21.8666 18.2717C21.8666 18.2717 24.5263 20.4785 25.9137 19.4364C26.0621 19.3259 26.1788 19.1699 26.2605 18.9896C26.6331 18.1732 26.3923 17.1539 26.1818 16.3239C26.0712 15.8892 25.9364 15.462 25.788 15.044V15.047Z" fill="#CFB48B" stroke="#937A5F" stroke-linecap="round" stroke-linejoin="round"/>
<path d="M21.9107 8.68096C20.7701 5.91372 18.1377 4.36879 15.3659 4.23701C11.4294 4.05071 6.94907 4.3597 3.58354 10.185C2.58388 11.9147 1.99923 12.6857 2.11434 14.7062C2.27944 17.6158 3.63656 20.1786 5.94486 21.7644C9.115 23.9409 13.0606 24.3014 16.673 23.2896C18.5936 22.7519 20.8216 21.8992 21.9152 19.9998C22.1288 19.6288 22.2636 19.2138 22.2848 18.7775C22.6725 10.5394 21.9122 8.68702 21.9091 8.68096H21.9107Z" fill="#CFB48B" stroke="#937A5F" stroke-linecap="round" stroke-linejoin="round"/>
<path d="M22.8876 11.7376L24.381 10.3789" stroke="#937A5F" stroke-linecap="round" stroke-linejoin="round"/>
<path d="M23.0723 15.1243L24.7096 16.3057" stroke="#937A5F" stroke-linecap="round" stroke-linejoin="round"/>
<path d="M11.3976 7.62523C11.3976 7.62523 14.8933 14.3396 11.1461 20.5951L11.3976 7.62523Z" fill="#CFB48B"/>
<path d="M11.3976 7.62523C11.3976 7.62523 14.8933 14.3396 11.1461 20.5951" stroke="#937A5F" stroke-linecap="round" stroke-linejoin="round"/>
<path d="M14.7161 10.2092C15.1114 9.48673 15.7884 9.02325 16.5351 9.05809C17.6711 9.1111 18.5375 10.2986 18.4709 11.7102C18.4042 13.1219 17.4303 14.2215 16.2943 14.1685" fill="#CFB48B"/>
<path d="M14.7161 10.2092C15.1114 9.48673 15.7884 9.02325 16.5351 9.05809C17.6711 9.1111 18.5375 10.2986 18.4709 11.7102C18.4042 13.1219 17.4303 14.2215 16.2943 14.1685" stroke="#937A5F" stroke-linecap="round" stroke-linejoin="round"/>
<path d="M14.6328 18.4564C14.9827 18.9381 15.4856 19.2501 16.0551 19.2774C17.191 19.3304 18.1649 18.2307 18.2316 16.8191C18.2982 15.4075 17.4303 14.2215 16.2959 14.167" fill="#CFB48B"/>
<path d="M14.6328 18.4564C14.9827 18.9381 15.4856 19.2501 16.0551 19.2774C17.191 19.3304 18.1649 18.2307 18.2316 16.8191C18.2982 15.4075 17.4303 14.2215 16.2959 14.167" stroke="#937A5F" stroke-linecap="round" stroke-linejoin="round"/>
<path d="M7.24133 13.4915L7.12622 15.9316" stroke="#937A5F" stroke-linecap="round" stroke-linejoin="round"/>
</svg>
