<svg width="28" height="28" viewBox="0 0 28 28" fill="none" xmlns="http://www.w3.org/2000/svg">
<path d="M1.46658 10.8545L1.39994 19.9863C1.3954 20.6027 1.80889 21.1434 2.40414 21.3025L16.2979 24.5953C16.7205 24.7074 17.3975 24.615 17.7338 24.3363L25.7432 17.7007C26.0416 17.4523 26.2203 17.0888 26.2309 16.701L26.1446 7.59046C26.1628 6.95583 25.7371 6.3939 25.1207 6.23941L10.7362 3.54032C10.3136 3.4343 9.86525 3.54032 9.53354 3.82356L1.93915 9.83819C1.64077 10.0926 1.46658 10.4637 1.46355 10.8575L1.46658 10.8545Z" fill="#F9F4E8" stroke="#B7AE9A" stroke-miterlimit="10" stroke-linecap="round"/>
<path d="M1.57397 10.338L17.0324 13.7566L25.7839 6.95885" fill="#F9F4E8"/>
<path d="M1.57397 10.338L17.0324 13.7566L25.7839 6.95885" stroke="#B7AE9A" stroke-miterlimit="10" stroke-linecap="round"/>
<path d="M17.0083 13.7566L17.2113 24.3999" stroke="#B7AE9A" stroke-miterlimit="10" stroke-linecap="round"/>
<path d="M11.9661 9.71699L13.714 7.67071C13.714 7.67071 15.8844 6.66651 14.7954 5.96069C13.7064 5.25487 13.6791 7.71464 13.6791 7.71464" fill="#82AE83"/>
<path d="M11.9661 9.71699L13.714 7.67071C13.714 7.67071 15.8844 6.66651 14.7954 5.96069C13.7064 5.25487 13.6791 7.71464 13.6791 7.71464" stroke="#70A070" stroke-miterlimit="10" stroke-linecap="round"/>
<path d="M12.6127 8.68856C12.6127 8.68856 12.9475 6.76497 12.2326 7.13454C11.5176 7.50411 12.6551 8.7552 12.6551 8.7552" fill="#82AE83"/>
<path d="M12.6127 8.68856C12.6127 8.68856 12.9475 6.76497 12.2326 7.13454C11.5176 7.50411 12.6551 8.7552 12.6551 8.7552" stroke="#70A070" stroke-miterlimit="10" stroke-linecap="round"/>
<path d="M13.2141 8.32505C13.2141 8.32505 15.5467 7.53138 15.0892 8.22812C14.6318 8.92485 13.2141 8.32505 13.2141 8.32505Z" fill="#82AE83" stroke="#70A070" stroke-miterlimit="10" stroke-linecap="round"/>
<path d="M2.61307 18.3837C2.51613 18.3837 2.42677 18.3368 2.37072 18.258C2.31468 18.1792 2.29954 18.0778 2.33135 17.9869L2.49341 17.5158C2.5131 17.4598 2.54794 17.4113 2.59489 17.375L2.85844 17.175C2.90993 17.1357 2.97507 17.1145 3.0402 17.1145C3.07049 17.1145 3.09926 17.119 3.12804 17.1281C3.3613 17.1993 3.49004 17.3174 3.51125 17.4764C3.52336 17.5643 3.50519 17.6855 3.37342 17.8082L3.41885 17.8899C3.46884 17.9778 3.47187 18.0853 3.4234 18.1762C3.37644 18.2671 3.28708 18.3262 3.1856 18.3353L2.63882 18.3837C2.63882 18.3837 2.61913 18.3837 2.61155 18.3837H2.61307Z" fill="#F9F4E8"/>
<path d="M3.04039 17.3402C3.04039 17.3402 3.05403 17.3402 3.0616 17.3432C3.44935 17.4629 3.24638 17.634 3.1343 17.7067C3.10249 17.7279 3.09189 17.7688 3.11158 17.8021L3.22366 18.0006C3.24941 18.046 3.21912 18.102 3.16762 18.1081L2.62084 18.1566C2.62084 18.1566 2.61629 18.1566 2.61478 18.1566C2.56631 18.1566 2.53147 18.1081 2.54662 18.0612L2.70869 17.5901C2.71323 17.5765 2.72232 17.5643 2.73292 17.5568L2.99647 17.3553C3.00858 17.3462 3.02524 17.3402 3.04039 17.3402ZM3.04039 16.8858C2.92528 16.8858 2.81168 16.9237 2.7208 16.9933L2.45725 17.1948C2.37395 17.2584 2.31185 17.3432 2.27853 17.4432L2.11646 17.9142C2.06193 18.0748 2.08768 18.252 2.18613 18.3898C2.28458 18.5277 2.44514 18.6094 2.61326 18.6094C2.62689 18.6094 2.64658 18.6094 2.66022 18.6079L3.207 18.5595C3.38573 18.5428 3.54325 18.4383 3.62656 18.2793C3.69926 18.1399 3.70683 17.9763 3.64625 17.834C3.7447 17.681 3.74924 17.5356 3.73713 17.4447C3.71289 17.269 3.59929 17.0342 3.19488 16.91C3.1449 16.8949 3.0934 16.8873 3.04039 16.8873V16.8858Z" fill="#B7AE9A"/>
<path d="M22.7017 6.96943C22.6245 6.93157 22.5321 6.94368 22.4685 7.00124C22.1837 7.26175 21.4476 7.96606 21.8172 7.96606C22.105 7.96606 22.6972 7.72221 23.0925 7.54499C23.2531 7.47229 23.2561 7.24661 23.1001 7.16785L22.7033 6.96943H22.7017Z" fill="#F9F4E8" stroke="#B7AE9A" stroke-linejoin="round"/>
<path d="M18.1311 14.2251C18.2286 14.0947 18.3857 14.0268 18.5414 14.0357L18.5445 14.0358L18.5445 14.0358L19.1852 14.0783L19.1854 14.0783C19.2744 14.0842 19.3557 14.1146 19.4245 14.1622L19.4243 14.162L19.2257 14.4502L19.4249 14.1624L18.1311 14.2251ZM18.1311 14.2251C18.1091 14.2499 18.0902 14.2783 18.0755 14.3098L17.9805 14.5134C17.8679 14.7521 17.9706 15.0383 18.2113 15.1506L18.2111 15.1505L18.3594 14.8334M18.1311 14.2251L18.3594 14.8334M19.4387 14.5951C19.4381 14.5953 19.4375 14.5955 19.4369 14.5957L19.4369 14.5957L19.4387 14.5951ZM19.4387 14.5951C19.4393 14.5948 19.44 14.5946 19.4407 14.5943L19.4407 14.5943L19.4387 14.5951ZM18.3594 14.8334L18.2117 15.1508M18.3594 14.8334L18.2117 15.1508M18.2117 15.1508L18.7915 15.4218M18.2117 15.1508L18.7915 15.4218M18.7915 15.4218C18.909 15.4787 19.0434 15.483 19.1617 15.4391L19.6755 15.2538L18.7915 15.4218ZM19.7844 14.4102C19.7842 14.41 19.784 14.4099 19.7838 14.4098L19.5862 14.6986L19.7848 14.4104L19.7844 14.4102ZM18.2923 14.7598C18.2932 14.7621 18.2941 14.7645 18.295 14.7668C18.3 14.7785 18.3067 14.7896 18.315 14.7995C18.3056 14.7972 18.2962 14.7945 18.2868 14.7914L18.2823 14.7899L18.2923 14.7598ZM19.3864 14.986L19.3864 14.986C19.3868 14.9863 19.3872 14.9865 19.3876 14.9868C19.3879 14.987 19.3882 14.9872 19.3886 14.9875L19.3876 14.9868L19.3876 14.9868L19.3864 14.986Z" fill="#F9F4E8" stroke="#B7AE9A" stroke-width="0.7" stroke-linejoin="round"/>
<path d="M3.37048 20.5467C3.30686 20.5467 3.24174 20.5315 3.17812 20.5012L2.5238 20.1953C2.33295 20.1059 2.24207 19.9196 2.31478 19.7651L2.37082 19.6455C2.41777 19.5455 2.51925 19.4849 2.64346 19.4849C2.67526 19.4849 2.7101 19.4894 2.74342 19.497L3.40986 19.6591C3.45379 19.6697 3.49922 19.6879 3.54012 19.7121L3.9627 19.9559C4.10962 20.0408 4.18384 20.1831 4.15052 20.318C4.12022 20.4391 4.01269 20.5224 3.87637 20.527C3.87637 20.527 3.37503 20.5467 3.372 20.5467H3.37048Z" fill="#F9F4E8"/>
<path d="M2.64485 19.7105C2.65848 19.7105 2.67514 19.7121 2.69028 19.7166L3.35672 19.8787C3.38096 19.8847 3.40519 19.8938 3.42791 19.9074L3.8505 20.1513C3.95046 20.2089 3.96106 20.2952 3.86716 20.2997L3.37641 20.3194C3.37641 20.3194 3.37187 20.3194 3.37035 20.3194C3.34158 20.3194 3.30674 20.3103 3.27493 20.2952L2.62061 19.9892C2.54791 19.9559 2.50398 19.8984 2.52216 19.8605L2.5782 19.7408C2.58729 19.7211 2.61152 19.7105 2.64485 19.7105ZM2.64485 19.2562C2.43431 19.2562 2.25104 19.3682 2.16622 19.5485L2.11018 19.6681C1.98295 19.9408 2.11926 20.2558 2.42825 20.4012L3.08257 20.7072C3.17497 20.7511 3.27493 20.7738 3.37035 20.7738C3.37641 20.7738 3.38853 20.7738 3.39459 20.7738L3.88533 20.7541C4.12161 20.745 4.31701 20.5905 4.37153 20.3724C4.42909 20.1362 4.31398 19.8968 4.07769 19.759L3.65511 19.5152C3.59452 19.4803 3.53091 19.4546 3.46426 19.4379L2.79782 19.2758C2.74632 19.2637 2.69483 19.2577 2.64485 19.2577V19.2562Z" fill="#B7AE9A"/>
<path d="M18.7774 16.7752C18.7395 16.7752 18.7001 16.7661 18.6653 16.751L18.485 16.6662C18.4199 16.6359 18.3714 16.5829 18.3472 16.5162C18.323 16.4496 18.326 16.3769 18.3563 16.3117L18.3851 16.2496C18.429 16.1557 18.5244 16.0967 18.6259 16.0967C18.6304 16.0967 18.638 16.0967 18.6426 16.0967L18.8395 16.1103C18.8879 16.1133 18.9334 16.13 18.9728 16.1557L19.0833 16.233C19.1666 16.2905 19.209 16.3875 19.1969 16.4859C19.1848 16.5844 19.1182 16.6677 19.0243 16.7025L18.8652 16.7601C18.841 16.7692 18.8016 16.7752 18.7743 16.7752H18.7774Z" fill="#F9F4E8"/>
<path d="M18.6274 16.3238C18.6274 16.3238 18.629 16.3238 18.6305 16.3238L18.8274 16.3375C18.8274 16.3375 18.841 16.3405 18.8471 16.3451L18.9576 16.4208C18.9834 16.439 18.9788 16.4799 18.9485 16.4905L18.791 16.548C18.791 16.548 18.7819 16.551 18.7774 16.551C18.7713 16.551 18.7653 16.551 18.7607 16.548L18.582 16.4647C18.5623 16.4556 18.5532 16.4314 18.5623 16.4117L18.5911 16.3496C18.5971 16.336 18.6108 16.3269 18.6274 16.3269M18.6274 15.8695C18.4366 15.8695 18.2609 15.9815 18.1806 16.1542L18.1518 16.2178C18.0958 16.3375 18.0897 16.4708 18.1352 16.595C18.1806 16.7192 18.27 16.8176 18.3896 16.8737L18.5684 16.957C18.6335 16.9873 18.7062 17.0039 18.7774 17.0039C18.8349 17.0039 18.891 16.9933 18.9455 16.9736L19.103 16.9161C19.2772 16.8525 19.4014 16.6995 19.4241 16.5147C19.4469 16.3299 19.3681 16.1497 19.2136 16.0452L19.103 15.9694C19.0303 15.9194 18.944 15.8891 18.8562 15.8831L18.6592 15.8695C18.6486 15.8695 18.6365 15.8695 18.6259 15.8695H18.6274Z" fill="#B7AE9A"/>
<path d="M19.8982 6.45142L19.8103 6.65893C19.783 6.72406 19.8133 6.79979 19.8785 6.82705L20.4707 7.07848C20.5025 7.09212 20.5373 7.09212 20.5691 7.07848L21.0781 6.87249C21.175 6.83311 21.1871 6.70134 21.0993 6.6453L20.7297 6.41053C20.71 6.39841 20.6873 6.39084 20.6646 6.39084L20.0224 6.37115C19.9693 6.36963 19.9209 6.39992 19.9012 6.44991L19.8982 6.45142Z" fill="#F9F4E8" stroke="#B7AE9A" stroke-linejoin="round"/>
<path d="M24.2546 16.5463C24.2486 16.5577 24.2432 16.5696 24.2385 16.5819L24.1279 16.8666C24.1279 16.8666 24.1279 16.8666 24.1279 16.8667C23.9342 17.3655 24.4947 17.8241 24.9448 17.5281L24.945 17.5281C25.1258 17.4091 25.3352 17.2597 25.4851 17.1123C25.5565 17.0421 25.6415 16.9466 25.6916 16.8338C25.7179 16.7745 25.7432 16.6914 25.7361 16.5942C25.7285 16.4891 25.6846 16.3926 25.612 16.3173C25.3945 16.0912 25.1013 16.1058 24.932 16.1379C24.7495 16.1726 24.5848 16.2495 24.4972 16.2951L24.4972 16.295L24.4934 16.2971C24.391 16.3519 24.3065 16.4381 24.2546 16.5463Z" fill="#F9F4E8" stroke="#B7AE9A" stroke-width="0.7" stroke-linejoin="round"/>
</svg>
