<svg width="40" height="40" viewBox="0 0 40 40" fill="none" xmlns="http://www.w3.org/2000/svg">
<path d="M11.4971 3.04472C10.5342 3.26326 9.93055 4.21964 10.1491 5.18252L10.822 8.15554L9.9695 7.52155C9.1754 6.93301 8.05673 7.09962 7.46819 7.89372C6.87964 8.68783 7.04625 9.80649 7.84035 10.395L12.0359 13.5065L12.3648 14.9628C12.5833 15.9256 13.5397 16.5293 14.5026 16.3108C15.4655 16.0922 16.0692 15.1359 15.8506 14.173L13.6371 4.39274C13.4185 3.42987 12.4622 2.82618 11.4993 3.04472H11.4971Z" fill="#FFE68B" stroke="#F9D87A" stroke-miterlimit="10"/>
<path d="M27.8767 3.04472C28.8396 3.26326 29.4433 4.21964 29.2248 5.18252L28.5518 8.15554L29.4044 7.52155C30.1985 6.93301 31.3171 7.09962 31.9057 7.89372C32.4942 8.68783 32.3276 9.80649 31.5335 10.395L27.338 13.5065L27.0091 14.9628C26.7905 15.9256 25.8341 16.5293 24.8713 16.3108C23.9084 16.0922 23.3047 15.1359 23.5232 14.173L25.7368 4.39274C25.9553 3.42987 26.9117 2.82618 27.8746 3.04472H27.8767Z" fill="#FFE68B" stroke="#F9D87A" stroke-miterlimit="10"/>
<path d="M36.3263 23.8969C36.1467 23.2175 35.9866 22.629 35.926 22.3607C35.4391 20.2034 34.7078 18.2257 33.0546 16.5618C34.4092 14.926 34.896 13.182 34.1257 12.178C33.1261 10.8754 30.3824 11.2952 27.8919 13.0868C25.423 12.0049 22.5734 11.3839 19.5376 11.3774C19.5376 11.3774 19.5246 11.3774 19.5181 11.3774C19.5116 11.3774 19.5051 11.3774 19.4986 11.3774C16.4629 11.3839 13.6132 12.0049 11.1443 13.0868C8.65383 11.2952 5.90801 10.8754 4.91051 12.178C4.14021 13.182 4.62706 14.926 5.98158 16.5618C4.32846 18.2279 3.59711 20.2056 3.11026 22.3607C3.04967 22.629 2.88955 23.2175 2.70996 23.8969C5.41467 24.2864 11.3304 26.1884 7.57628 35.4601C10.7354 37.1219 14.9569 37.9398 19.5008 37.9441C19.5008 37.9441 19.5138 37.9441 19.5203 37.9441C19.5268 37.9441 19.5333 37.9441 19.5398 37.9441C24.0815 37.9398 28.303 37.1219 31.4643 35.4601C27.7101 26.1884 33.6281 24.2864 36.3306 23.8969H36.3263Z" fill="#ACDBD6" stroke="#8BC6BD" stroke-miterlimit="10"/>
<path d="M2.70539 23.8969C2.38515 25.1065 2 26.6017 2 27.1036C2 29.0792 2.59071 30.7756 3.63365 32.2015C3.7678 32.3811 3.90628 32.5563 4.04909 32.7294C4.96869 33.8092 6.16525 34.7179 7.5717 35.458C11.3258 26.1862 5.40793 24.2843 2.70539 23.8948V23.8969Z" fill="#FFE68B" stroke="#F9D87A" stroke-linecap="round" stroke-linejoin="round"/>
<path d="M36.3481 23.8969C36.6683 25.1065 37.0535 26.6017 37.0535 27.1036C37.0535 29.0792 36.4628 30.7756 35.4198 32.2015C35.2857 32.3811 35.1472 32.5563 35.0044 32.7294C34.0848 33.8092 32.8882 34.7179 31.4818 35.458C27.7276 26.1862 33.6455 24.2843 36.3481 23.8948V23.8969Z" fill="#FFE68B" stroke="#F9D87A" stroke-linecap="round" stroke-linejoin="round"/>
<path d="M14.9653 23.3842V26.2555" stroke="#4C4C4C" stroke-linecap="round" stroke-linejoin="round"/>
<path d="M24.5312 23.3842V26.2555" stroke="#4C4C4C" stroke-linecap="round" stroke-linejoin="round"/>
<path d="M14.5156 28.2592C14.5156 28.2592 17.322 30.265 19.6524 28.2592" stroke="#4C4C4C" stroke-linecap="round" stroke-linejoin="round"/>
<path d="M24.752 28.2592C24.752 28.2592 21.9456 30.265 19.6152 28.2592" stroke="#4C4C4C" stroke-linecap="round" stroke-linejoin="round"/>
</svg>
