<svg width="40" height="40" viewBox="0 0 40 40" fill="none" xmlns="http://www.w3.org/2000/svg">
<path d="M14.4581 29.3193L16.715 30.663L18.1041 32.1128C18.3226 32.3421 18.5736 32.539 18.8463 32.7013L20.6357 33.7572L21.6202 34.8348C21.895 35.1356 22.2218 35.3865 22.5831 35.5748L23.6563 36.133L25.039 37.4356C25.4393 37.7515 25.8915 37.5763 26.2074 37.176L27.8086 35.6289C27.9449 35.4969 28.0639 35.3519 28.1656 35.194L29.994 32.3638L31.7661 30.6003C31.9111 30.4575 32.0366 30.2952 32.1405 30.1221L33.3825 28.0579L34.5596 27.0084C34.7392 26.8483 34.8949 26.6622 35.0204 26.4567L36.3577 24.2756L38.6339 21.9322C38.9498 21.5319 38.8503 20.7075 38.45 20.3916L37.5585 19.5218C37.3898 19.3574 37.195 19.221 36.9808 19.1215L35.9357 18.6282L35.0377 17.5939C34.8495 17.3775 34.6223 17.1979 34.3691 17.0638L33.086 16.3865L31.7532 14.9714C31.593 14.8026 31.4113 14.6576 31.2079 14.543L29.5461 13.6017L28.0336 11.9789C27.6333 11.663 26.9409 11.8664 26.6272 12.2667L25.6297 13.8095L24.1865 15.1986C23.9657 15.4106 23.7775 15.653 23.626 15.9191L22.7389 17.4835L21.38 18.7731C21.1507 18.9917 20.9559 19.2405 20.8001 19.5175L19.9476 21.0321L18.697 22.1897C18.4719 22.3974 18.2772 22.6398 18.1214 22.9038L17.0568 24.7062L15.6872 25.9915C15.5032 26.1646 15.3388 26.3593 15.2003 26.5714L14.3608 27.8588C14.0449 28.2591 14.0102 28.9796 14.4538 29.3193H14.4581Z" fill="#67757E" stroke="#526068" stroke-miterlimit="10" stroke-linejoin="round"/>
<path d="M29.1048 15.495L29.2693 15.8434C29.3428 16.0013 29.2411 16.1853 29.068 16.2047L28.5249 16.2697C28.3951 16.2848 28.3129 16.1377 28.3929 16.0338L28.8408 15.4626C28.9122 15.3717 29.0551 15.3868 29.1027 15.4929L29.1048 15.495Z" fill="#6F7B82" stroke="#526068" stroke-miterlimit="10" stroke-linejoin="round"/>
<path d="M27.8298 16.2631L27.6935 16.8928C27.687 16.9188 27.674 16.9447 27.6546 16.9642L26.9578 17.6393C26.8843 17.7085 26.7652 17.6826 26.7306 17.5874L26.365 16.5855C26.3303 16.4903 26.4061 16.3908 26.5078 16.3995L26.9492 16.4341C27.0227 16.4406 27.0877 16.3886 27.0985 16.3151C27.1331 16.0576 27.2672 15.5599 27.7974 16.142C27.8277 16.1744 27.8406 16.222 27.8298 16.2653V16.2631Z" fill="#6F7B82" stroke="#526068" stroke-linecap="round" stroke-linejoin="round"/>
<path d="M28.8277 30.5051L28.3473 30.9854L27.0015 31.1759L27.5792 30.4077C27.5792 30.4077 28.0595 30.8881 28.8277 30.5051Z" fill="#6F7B82" stroke="#526068" stroke-linecap="round" stroke-linejoin="round"/>
<path d="M26.9342 34.3912L26.2678 34.0969C26.1985 34.0666 26.1206 34.0904 26.0795 34.1532C25.8935 34.4475 25.4066 35.2632 25.5105 35.5964C25.6381 36.0054 26.958 34.4669 26.958 34.4669L26.9342 34.3912Z" fill="#6F7B82" stroke="#526068" stroke-linecap="round" stroke-linejoin="round"/>
<path d="M27.6699 33.4824L27.3821 33.8654L26.4214 33.3851L27.0943 32.8095L27.6699 33.4824Z" fill="#6F7B82" stroke="#526068" stroke-linecap="round" stroke-linejoin="round"/>
<path d="M17.0911 27.6056L16.4246 28.7308C16.351 28.8541 16.4636 29.0034 16.602 28.9688L17.2944 28.7914C17.4199 28.7589 17.4957 28.6313 17.4654 28.5036L17.4221 27.7917L17.2988 27.6013C17.249 27.5256 17.1387 27.5277 17.0932 27.6056H17.0911Z" fill="#6F7B82" stroke="#526068" stroke-linecap="round" stroke-linejoin="round"/>
<path d="M16.5958 34.6205L13.824 32.7424L11.4006 31.9223C11.0176 31.7925 10.6541 31.6107 10.3209 31.3836L8.13547 29.8905L6.35902 29.3388C5.86135 29.1852 5.39615 28.9428 4.98287 28.6269L3.75817 27.69L1.50786 26.8007C0.927966 26.5086 0.884684 25.8919 1.17679 25.312L2.09639 22.6289C2.17429 22.4017 2.27816 22.1832 2.40582 21.9798L4.6821 18.3382L5.75749 15.3392C5.84404 15.0947 5.96306 14.8632 6.10586 14.649L7.8174 12.1L8.39296 10.1743C8.48168 9.88002 8.6115 9.60089 8.78028 9.3434L10.5719 6.62138L12.0454 2.72876C12.3375 2.14887 13.3415 1.81565 13.9236 2.10776L15.4079 2.66601C15.6892 2.77204 15.951 2.9235 16.1825 3.11608L17.3163 4.05515L18.9954 4.53118C19.3481 4.63072 19.677 4.79516 19.9691 5.01587L21.4426 6.13021L23.7947 6.90267C24.076 6.99572 24.3399 7.12771 24.5823 7.29864L26.5665 8.70509L29.256 9.57276C29.8359 9.86487 29.9766 10.7715 29.6844 11.3535L28.4424 13.3399L27.6202 15.7568C27.4947 16.1247 27.3173 16.4752 27.0923 16.7911L25.7659 18.6606L25.0129 20.9261C24.8852 21.309 24.7013 21.6704 24.4676 21.9971L23.1823 23.7974L22.5224 25.8681C22.4034 26.2403 22.2303 26.5951 22.0096 26.9175L20.5057 29.1181L19.7636 31.3944C19.664 31.7016 19.5277 31.9937 19.3568 32.2685L18.3247 33.9346C18.0325 34.5145 17.2211 34.9451 16.5893 34.6184L16.5958 34.6205Z" fill="#67757E" stroke="#526068" stroke-miterlimit="10" stroke-linejoin="round"/>
<path d="M24.6257 10.2501H24.1345C23.9138 10.2501 23.7558 10.4664 23.8251 10.6763L24.0436 11.3384C24.0955 11.4964 24.3119 11.5115 24.3855 11.3644L24.8009 10.5378C24.868 10.4059 24.7706 10.2522 24.6235 10.2501H24.6257Z" fill="#6F7B82" stroke="#526068" stroke-miterlimit="10" stroke-linejoin="round"/>
<path d="M7.45834 18.6844L7.16406 19.498L7.67255 21.1532L8.24595 20.0714C8.24595 20.0714 7.43237 19.7771 7.45834 18.6844Z" fill="#6F7B82" stroke="#526068" stroke-linecap="round" stroke-linejoin="round"/>
<path d="M3.9963 22.9708L4.69519 23.581C4.76659 23.6438 4.78391 23.7476 4.73198 23.8277C4.49396 24.202 3.8167 25.2038 3.37529 25.2644C2.83218 25.338 3.8946 22.9838 3.8946 22.9838L3.9963 22.9708Z" fill="#6F7B82" stroke="#526068" stroke-linecap="round" stroke-linejoin="round"/>
<path d="M4.6496 21.6293L4.36182 22.1702L5.43721 23.0162L5.73798 21.93L4.6496 21.6293Z" fill="#6F7B82" stroke="#526068" stroke-linecap="round" stroke-linejoin="round"/>
<path d="M17.15 30.6587L16.2131 32.037C16.1114 32.1885 15.8777 32.1387 15.8431 31.9613L15.6722 31.0655C15.6419 30.9032 15.7479 30.7452 15.9102 30.7149L16.7562 30.3817L17.0418 30.4207C17.1565 30.4358 17.2128 30.5656 17.15 30.6608V30.6587Z" fill="#6F7B82" stroke="#526068" stroke-linecap="round" stroke-linejoin="round"/>
</svg>
