<svg width="40" height="40" viewBox="0 0 40 40" fill="none" xmlns="http://www.w3.org/2000/svg">
<path d="M36.8403 21.4957C36.7018 21.1063 36.5265 20.7103 36.4054 20.3013C36.3296 20.0438 36.2755 19.782 36.2669 19.5137C36.2755 19.2454 36.3296 18.9836 36.4054 18.7261C36.5265 18.3193 36.7018 17.9212 36.8403 17.5317C37.0545 16.9323 37.2449 16.3243 37.4029 15.7033C37.7036 14.5176 38.0477 13.0614 37.5154 11.8951C37.3985 11.6376 37.2319 11.4169 37.0199 11.2568C35.0379 9.76811 31.2383 12.9207 31.2383 12.9207C31.6061 14.6734 31.7749 17.1249 31.8398 19.5116C31.7749 21.8982 31.6061 24.3497 31.2383 26.1024C31.2383 26.1024 35.0379 29.255 37.0199 27.7663C37.2319 27.6084 37.3985 27.3855 37.5154 27.128C38.0477 25.9618 37.7036 24.5055 37.4029 23.3198C37.2449 22.6988 37.0523 22.0886 36.8403 21.4914V21.4957Z" fill="#CFB48B" stroke="#937A5F" stroke-linecap="round" stroke-linejoin="round"/>
<path d="M31.301 12.4014C29.6717 8.44816 25.911 6.24112 21.9513 6.05287C16.3277 5.78673 9.92727 6.22814 5.11938 14.55C3.69129 17.021 2.85607 18.1224 3.02052 21.0088C3.25637 25.1654 5.19512 28.8265 8.4927 31.092C13.0215 34.2013 18.6581 34.7163 23.8187 33.2709C26.5623 32.5028 29.7452 31.2846 31.3075 28.5712C31.6126 28.0411 31.8051 27.4482 31.8354 26.8251C32.3894 15.0563 31.3031 12.41 31.2988 12.4014H31.301Z" fill="#CFB48B" stroke="#937A5F" stroke-linecap="round" stroke-linejoin="round"/>
<path d="M32.6963 16.7679L34.8298 14.827" stroke="#937A5F" stroke-linecap="round" stroke-linejoin="round"/>
<path d="M32.9604 21.6061L35.2995 23.2938" stroke="#937A5F" stroke-linecap="round" stroke-linejoin="round"/>
<path d="M16.282 10.8932C16.282 10.8932 21.276 20.4852 15.9229 29.4215L16.282 10.8932Z" fill="#CFB48B"/>
<path d="M16.282 10.8932C16.282 10.8932 21.276 20.4852 15.9229 29.4215" stroke="#937A5F" stroke-linecap="round" stroke-linejoin="round"/>
<path d="M21.0229 14.5846C21.5877 13.5525 22.5549 12.8904 23.6216 12.9401C25.2445 13.0159 26.4821 14.7123 26.3869 16.7289C26.2917 18.7455 24.9004 20.3164 23.2776 20.2407" fill="#CFB48B"/>
<path d="M21.0229 14.5846C21.5877 13.5525 22.5549 12.8904 23.6216 12.9401C25.2445 13.0159 26.4821 14.7123 26.3869 16.7289C26.2917 18.7455 24.9004 20.3164 23.2776 20.2407" stroke="#937A5F" stroke-linecap="round" stroke-linejoin="round"/>
<path d="M20.9043 26.3663C21.4041 27.0544 22.1225 27.5001 22.9361 27.5391C24.5589 27.6148 25.9502 26.0439 26.0454 24.0273C26.1406 22.0107 24.9008 20.3164 23.2801 20.2385" fill="#CFB48B"/>
<path d="M20.9043 26.3663C21.4041 27.0544 22.1225 27.5001 22.9361 27.5391C24.5589 27.6148 25.9502 26.0439 26.0454 24.0273C26.1406 22.0107 24.9008 20.3164 23.2801 20.2385" stroke="#937A5F" stroke-linecap="round" stroke-linejoin="round"/>
<path d="M10.3451 19.2736L10.1807 22.7594" stroke="#937A5F" stroke-linecap="round" stroke-linejoin="round"/>
</svg>
