<svg width="40" height="40" viewBox="0 0 40 40" fill="none" xmlns="http://www.w3.org/2000/svg">
<path d="M2.09525 15.5064L2.00005 28.5518C1.99356 29.4325 2.58426 30.2049 3.43463 30.4321L23.2829 35.1361C23.8866 35.2963 24.8538 35.1643 25.3341 34.7661L36.7761 25.2867C37.2024 24.9318 37.4577 24.4125 37.4729 23.8586L37.3495 10.8435C37.3755 9.9369 36.7675 9.13414 35.8868 8.91344L15.3375 5.0576C14.7338 4.90614 14.0934 5.0576 13.6195 5.46223L2.77035 14.0546C2.34409 14.4181 2.09526 14.9482 2.09093 15.5108L2.09525 15.5064Z" fill="#F9F4E8" stroke="#B7AE9A" stroke-miterlimit="10" stroke-linecap="round"/>
<path d="M2.24902 14.7686L24.3324 19.6522L36.8347 9.94122" fill="#F9F4E8"/>
<path d="M2.24902 14.7686L24.3324 19.6522L36.8347 9.94122" stroke="#B7AE9A" stroke-miterlimit="10" stroke-linecap="round"/>
<path d="M24.2979 19.6522L24.5878 34.857" stroke="#B7AE9A" stroke-miterlimit="10" stroke-linecap="round"/>
<path d="M17.0947 13.8814L19.5917 10.9582C19.5917 10.9582 22.6924 9.52359 21.1366 8.51527C19.5809 7.50695 19.5419 11.0209 19.5419 11.0209" fill="#82AE83"/>
<path d="M17.0947 13.8814L19.5917 10.9582C19.5917 10.9582 22.6924 9.52359 21.1366 8.51527C19.5809 7.50695 19.5419 11.0209 19.5419 11.0209" stroke="#70A070" stroke-miterlimit="10" stroke-linecap="round"/>
<path d="M18.0184 12.4122C18.0184 12.4122 18.4966 9.66424 17.4753 10.1922C16.454 10.7202 18.079 12.5074 18.079 12.5074" fill="#82AE83"/>
<path d="M18.0184 12.4122C18.0184 12.4122 18.4966 9.66424 17.4753 10.1922C16.454 10.7202 18.079 12.5074 18.079 12.5074" stroke="#70A070" stroke-miterlimit="10" stroke-linecap="round"/>
<path d="M18.8774 11.8929C18.8774 11.8929 22.2096 10.7591 21.5562 11.7545C20.9027 12.7498 18.8774 11.8929 18.8774 11.8929Z" fill="#82AE83" stroke="#70A070" stroke-miterlimit="10" stroke-linecap="round"/>
<path d="M3.73351 26.2625C3.59503 26.2625 3.46737 26.1954 3.38731 26.0829C3.30725 25.9703 3.28561 25.8254 3.33105 25.6955L3.56258 25.0226C3.59071 24.9426 3.64047 24.8733 3.70755 24.8214L4.08404 24.5358C4.15761 24.4795 4.25065 24.4492 4.34369 24.4492C4.38697 24.4492 4.42808 24.4557 4.46919 24.4687C4.80241 24.5704 4.98633 24.7392 5.01662 24.9664C5.03393 25.0919 5.00797 25.265 4.81973 25.4402L4.88464 25.5571C4.95604 25.6826 4.96037 25.8362 4.89113 25.966C4.82405 26.0958 4.69639 26.1802 4.55141 26.1932L3.7703 26.2625C3.7703 26.2625 3.74217 26.2625 3.73135 26.2625H3.73351Z" fill="#F9F4E8"/>
<path d="M4.34342 24.7717C4.34342 24.7717 4.36289 24.7717 4.37371 24.776C4.92764 24.947 4.63769 25.1915 4.47757 25.2953C4.43213 25.3256 4.41698 25.384 4.44511 25.4316L4.60523 25.7151C4.64201 25.78 4.59874 25.8601 4.52517 25.8687L3.74405 25.938C3.74405 25.938 3.73756 25.938 3.7354 25.938C3.66616 25.938 3.61639 25.8687 3.63803 25.8016L3.86955 25.1287C3.87604 25.1092 3.88902 25.0919 3.90417 25.0811L4.28066 24.7933C4.29797 24.7803 4.32178 24.7717 4.34342 24.7717ZM4.34342 24.1226C4.17897 24.1226 4.01669 24.1767 3.88686 24.2762L3.51036 24.564C3.39136 24.6548 3.30264 24.776 3.25504 24.9188L3.02352 25.5918C2.94562 25.8211 2.9824 26.0743 3.12305 26.2712C3.26369 26.4681 3.49305 26.5849 3.73323 26.5849C3.75271 26.5849 3.78083 26.5849 3.80031 26.5828L4.58143 26.5135C4.83676 26.4897 5.06179 26.3404 5.18079 26.1132C5.28465 25.9142 5.29547 25.6805 5.20892 25.4771C5.34957 25.2585 5.35606 25.0508 5.33875 24.921C5.30413 24.67 5.14184 24.3346 4.56412 24.1572C4.49271 24.1355 4.41915 24.1247 4.34342 24.1247V24.1226Z" fill="#B7AE9A"/>
<path d="M32.4313 9.95633C32.3209 9.90224 32.1889 9.91954 32.098 10.0018C31.6913 10.3739 30.6397 11.3801 31.1676 11.3801C31.5787 11.3801 32.4248 11.0317 32.9895 10.7786C33.2189 10.6747 33.2232 10.3523 33.0003 10.2398L32.4334 9.95633H32.4313Z" fill="#F9F4E8" stroke="#B7AE9A" stroke-linejoin="round"/>
<path d="M25.9014 20.3216C26.0407 20.1353 26.2651 20.0382 26.4875 20.0509L26.492 20.0512L26.492 20.0512L27.4073 20.1118L27.4075 20.1118C27.5346 20.1203 27.6508 20.1637 27.7491 20.2316L27.7488 20.2314L27.4651 20.6432L27.7497 20.2321L25.9014 20.3216ZM25.9014 20.3216C25.8699 20.357 25.8429 20.3976 25.8219 20.4425L25.6862 20.7334C25.5253 21.0745 25.672 21.4833 26.016 21.6437L26.0157 21.6435L26.2274 21.1906M25.9014 20.3216L26.2274 21.1906M26.2274 21.1906L26.0166 21.6439M26.2274 21.1906L26.0166 21.6439M26.0166 21.6439L26.8447 22.0311M26.0166 21.6439L26.8447 22.0311M26.8447 22.0311C27.0127 22.1124 27.2047 22.1185 27.3736 22.0559L26.8447 22.0311ZM28.2624 20.5854L27.9801 20.998L28.2638 20.5863L28.2633 20.5859C28.263 20.5857 28.2627 20.5856 28.2624 20.5854ZM28.1076 21.7911L28.1086 21.7908L27.939 21.3204L28.1058 21.7918C28.1064 21.7916 28.107 21.7914 28.1076 21.7911ZM27.7668 20.851C27.7676 20.8507 27.7685 20.8504 27.7693 20.8501L27.7667 20.851L27.7668 20.851ZM26.1317 21.0854C26.1329 21.0888 26.1342 21.0921 26.1356 21.0954C26.1426 21.1122 26.1522 21.128 26.1641 21.1422C26.1507 21.1389 26.1372 21.1351 26.1239 21.1306L26.1174 21.1285L26.1317 21.0854ZM27.6947 21.4085L27.6947 21.4085C27.6952 21.4089 27.6958 21.4093 27.6964 21.4097C27.6968 21.41 27.6973 21.4104 27.6977 21.4107L27.6964 21.4097L27.6964 21.4097L27.6947 21.4085Z" fill="#F9F4E8" stroke="#B7AE9A" stroke-linejoin="round"/>
<path d="M4.81532 29.3524C4.72444 29.3524 4.6314 29.3307 4.54052 29.2875L3.60577 28.8504C3.33314 28.7227 3.20331 28.4566 3.30717 28.2359L3.38723 28.0649C3.45431 27.9221 3.59928 27.8356 3.77671 27.8356C3.82215 27.8356 3.87192 27.8421 3.91952 27.8529L4.87158 28.0844C4.93433 28.0995 4.99924 28.1255 5.05766 28.1601L5.66135 28.5085C5.87124 28.6297 5.97726 28.8331 5.92966 29.0256C5.88638 29.1987 5.73276 29.3178 5.53802 29.3242C5.53802 29.3242 4.82181 29.3524 4.81749 29.3524H4.81532Z" fill="#F9F4E8"/>
<path d="M3.77884 28.1579C3.79831 28.1579 3.82211 28.1601 3.84375 28.1666L4.79581 28.3981C4.83043 28.4068 4.86505 28.4197 4.89751 28.4392L5.5012 28.7876C5.64401 28.8698 5.65915 28.9931 5.525 28.9996L4.82394 29.0278C4.82394 29.0278 4.81744 29.0278 4.81528 29.0278C4.77417 29.0278 4.7244 29.0148 4.67896 28.9931L3.74422 28.5561C3.64036 28.5084 3.5776 28.4262 3.60357 28.3721L3.68363 28.2012C3.69662 28.1731 3.73124 28.1579 3.77884 28.1579ZM3.77884 27.5088C3.47808 27.5088 3.21626 27.6689 3.09509 27.9264L3.01502 28.0973C2.83327 28.4868 3.02801 28.9369 3.46942 29.1446L4.40417 29.5817C4.53616 29.6444 4.67896 29.6769 4.81528 29.6769C4.82394 29.6769 4.84125 29.6769 4.8499 29.6769L5.55096 29.6488C5.88851 29.6358 6.16764 29.4151 6.24554 29.1035C6.32776 28.7659 6.16331 28.4241 5.82576 28.2272L5.22207 27.8788C5.13552 27.829 5.04464 27.7922 4.94943 27.7684L3.99738 27.5369C3.92381 27.5196 3.85025 27.511 3.77884 27.511V27.5088Z" fill="#B7AE9A"/>
<path d="M26.8251 23.9646C26.771 23.9646 26.7147 23.9516 26.665 23.93L26.4075 23.8088C26.3144 23.7655 26.2452 23.6898 26.2106 23.5946C26.176 23.4994 26.1803 23.3955 26.2236 23.3025L26.2647 23.2138C26.3274 23.0796 26.4637 22.9952 26.6087 22.9952C26.6152 22.9952 26.626 22.9952 26.6325 22.9952L26.9138 23.0147C26.983 23.019 27.048 23.0428 27.1042 23.0796L27.2622 23.19C27.3812 23.2722 27.4418 23.4107 27.4245 23.5513C27.4071 23.692 27.3119 23.811 27.1778 23.8607L26.9506 23.943C26.916 23.9559 26.8597 23.9646 26.8208 23.9646H26.8251Z" fill="#F9F4E8"/>
<path d="M26.6106 23.3198C26.6106 23.3198 26.6128 23.3198 26.615 23.3198L26.8962 23.3393C26.8962 23.3393 26.9157 23.3436 26.9244 23.3501L27.0823 23.4583C27.1191 23.4842 27.1126 23.5426 27.0693 23.5578L26.8443 23.64C26.8443 23.64 26.8313 23.6444 26.8248 23.6444C26.8162 23.6444 26.8075 23.6443 26.801 23.64L26.5457 23.521C26.5176 23.508 26.5046 23.4734 26.5176 23.4453L26.5587 23.3566C26.5674 23.3371 26.5868 23.3241 26.6106 23.3241M26.6106 22.6707C26.338 22.6707 26.087 22.8308 25.9723 23.0774L25.9312 23.1683C25.8511 23.3393 25.8425 23.5297 25.9074 23.7071C25.9723 23.8845 26.1 24.0252 26.2709 24.1052L26.5262 24.2242C26.6193 24.2675 26.7231 24.2913 26.8248 24.2913C26.9071 24.2913 26.9871 24.2762 27.065 24.248L27.29 24.1658C27.5389 24.0749 27.7163 23.8564 27.7488 23.5924C27.7812 23.3284 27.6687 23.0709 27.448 22.9216L27.29 22.8135C27.1862 22.7421 27.0629 22.6988 26.9374 22.6901L26.6561 22.6707C26.6409 22.6707 26.6236 22.6707 26.6085 22.6707H26.6106Z" fill="#B7AE9A"/>
<path d="M28.4259 9.21632L28.3004 9.51275C28.2615 9.6058 28.3048 9.71399 28.3978 9.75293L29.2438 10.1121C29.2893 10.1316 29.339 10.1316 29.3845 10.1121L30.1115 9.81785C30.25 9.76159 30.2673 9.57334 30.1418 9.49328L29.6138 9.1579C29.5857 9.14059 29.5533 9.12977 29.5208 9.12977L28.6034 9.10164C28.5276 9.09948 28.4584 9.14275 28.4303 9.21415L28.4259 9.21632Z" fill="#F9F4E8" stroke="#B7AE9A" stroke-linejoin="round"/>
<path d="M34.6497 23.6375C34.6411 23.6539 34.6334 23.6709 34.6266 23.6884L34.4687 24.0952C34.4687 24.0952 34.4687 24.0952 34.4686 24.0952C34.1919 24.8078 34.9926 25.463 35.6357 25.0402L35.6359 25.0401C35.8941 24.8701 36.1933 24.6567 36.4075 24.4461C36.5095 24.3458 36.6309 24.2094 36.7025 24.0482C36.7401 23.9635 36.7762 23.8449 36.7661 23.706C36.7552 23.5558 36.6924 23.4179 36.5887 23.3104C36.278 22.9875 35.8592 23.0082 35.6174 23.0542C35.3566 23.1038 35.1214 23.2136 34.9962 23.2787L34.9962 23.2786L34.9907 23.2815C34.8445 23.3599 34.7238 23.483 34.6497 23.6375Z" fill="#F9F4E8" stroke="#B7AE9A" stroke-linejoin="round"/>
</svg>
