<svg width="40" height="40" viewBox="0 0 40 40" fill="none" xmlns="http://www.w3.org/2000/svg">
<path d="M15.4502 23.2532C15.3961 23.2727 15.3918 24.3394 15.3896 24.4108C15.381 25.2287 15.2988 26.0466 15.1516 26.8516C14.9461 27.9789 14.6107 29.0846 14.1368 30.1275C13.4704 31.588 12.2219 32.5444 12.1786 34.2387C12.1656 34.719 12.2976 35.1345 12.6243 35.4937C14.3921 37.4432 17.6032 37.5687 20.0439 37.4562C22.6296 37.3372 25.4966 36.6556 27.1627 34.507C27.5176 34.0483 27.801 33.5376 28.0087 32.9967C28.7379 31.0752 28.0628 28.9201 27.7577 26.9836C27.5976 25.9666 27.4245 24.9496 27.2449 23.9348C27.2211 23.8028 27.1389 22.6993 27.0112 22.6452C27.0112 22.6452 21.5218 20.9964 15.4502 23.2511V23.2532Z" fill="#F3EBD3" stroke="#B7AE9A" stroke-miterlimit="10"/>
<path d="M16.2683 3.04789C16.2683 3.04789 7.40116 7.95748 3.58644 14.8988C3.26187 15.4896 3.07146 16.1452 3.03252 16.8181C2.90269 18.9776 2.91783 23.5583 8.01134 24.4822C8.29912 24.5341 8.5934 24.5536 8.88767 24.5493C11.138 24.5168 12.6332 24.229 13.3212 24.0646C13.5528 24.0083 13.78 23.9326 14.0007 23.8395C15.3898 23.2532 22.4696 20.5549 29.3742 23.2878C29.5906 23.3722 29.8113 23.4479 30.0363 23.4998C30.9906 23.7249 31.9837 24.0711 32.9769 24.0191C34.8616 23.9218 36.2074 22.2881 36.8912 20.6696C37.7156 18.7157 37.6853 16.4633 37.0513 14.4596C36.4389 12.5252 34.9676 11.1252 33.5049 9.79235C32.3862 8.77322 31.2113 7.819 30.0234 6.88209C29.9325 6.81069 29.8351 6.74144 29.7399 6.67653C24.6248 3.25128 21.5111 0.382127 16.2705 3.04573L16.2683 3.04789Z" fill="#9B8B75" stroke="#82705E" stroke-miterlimit="10"/>
<path d="M24.562 35.0068C24.562 35.0068 26.7171 33.3169 27.1239 31.9451L24.562 35.0068Z" fill="#F3EBD3"/>
<path d="M24.562 35.0068C24.562 35.0068 26.7171 33.3169 27.1239 31.9451" stroke="#B7AE9A" stroke-miterlimit="10" stroke-linecap="round"/>
<path d="M7.02659 13.038C7.02659 13.038 4.90393 15.0113 4.59668 16.4935L7.02659 13.038Z" fill="#9B8B75"/>
<path d="M7.02659 13.038C7.02659 13.038 4.90393 15.0113 4.59668 16.4935" stroke="#82705E" stroke-miterlimit="10" stroke-linecap="round"/>
<path d="M7.19126 14.4921C7.19126 14.4921 5.96656 15.6151 5.79346 16.407L7.19126 14.4921Z" fill="#9B8B75"/>
<path d="M7.19126 14.4921C7.19126 14.4921 5.96656 15.6151 5.79346 16.407" stroke="#82705E" stroke-miterlimit="10" stroke-linecap="round"/>
<path d="M24.3716 33.7215C24.3716 33.7215 25.6872 32.7046 25.9252 31.9299L24.3716 33.7215Z" fill="#F3EBD3"/>
<path d="M24.3716 33.7215C24.3716 33.7215 25.6872 32.7046 25.9252 31.9299" stroke="#B7AE9A" stroke-miterlimit="10" stroke-linecap="round"/>
<path d="M8.98056 10.9457L7.64551 12.3759" stroke="#82705E" stroke-miterlimit="10" stroke-linecap="round"/>
</svg>
